<svg xmlns="http://www.w3.org/2000/svg" xmlns:v="https://svgstorm.com"
viewBox = "0 0 2062 1241"
width="2062"
height="1241">
<g fill="None" fill-opacity="0.0" stroke="#000000" stroke-opacity="0.00" stroke-width="0.3"><path d="
M 0.00 1191.00 
C 0.34 1190.84 0.74 1190.24 1.00 1190.00
C 1.91 1183.68 1.24 1180.24 4.00 1175.00
C 4.19 1173.77 4.70 1173.17 5.00 1172.00
C 5.93 1168.41 5.03 1166.89 7.00 1164.00
C 7.32 1163.54 7.66 1162.34 8.00 1162.00
C 8.61 1158.52 8.45 1157.69 10.00 1155.00
C 11.94 1151.63 13.84 1148.73 15.00 1145.00
C 16.85 1139.07 20.09 1134.88 24.00 1130.00
C 24.23 1129.35 24.69 1128.60 25.00 1128.00
C 28.13 1121.90 33.71 1115.99 39.00 1112.00
C 39.17 1111.67 39.65 1111.13 40.00 1111.00
C 47.90 1102.92 56.47 1097.02 66.00 1091.00
C 68.58 1088.66 70.38 1087.00 74.00 1086.00
C 75.97 1085.04 76.39 1084.57 79.00 1084.00
C 80.18 1083.74 80.86 1083.40 82.00 1083.00
C 84.29 1081.37 84.07 1080.86 87.00 1080.00
C 88.32 1079.61 89.58 1079.19 91.00 1079.00
C 91.62 1076.08 95.04 1077.43 97.00 1077.00
C 98.48 1076.68 99.28 1076.01 101.00 1076.00
C 110.35 1072.53 120.68 1068.99 132.00 1070.00 C 143.32 1071.01 158.12 1067.65 169.00 1071.00
C 181.21 1074.76 193.36 1077.61 206.00 1080.00
C 216.30 1081.95 231.53 1084.40 238.00 1093.00
C 238.33 1093.17 238.73 1093.87 239.00 1094.00
C 249.98 1099.45 261.78 1104.49 272.00 1111.00
C 272.94 1111.60 273.92 1112.76 275.00 1113.00
C 275.48 1113.11 276.56 1113.17 277.00 1113.00
C 276.91 1113.04 279.00 1111.00 279.00 1111.00
C 280.91 1108.78 280.07 1106.39 281.00 1104.00
C 281.84 1101.82 284.05 1099.85 285.00 1098.00
C 285.11 1097.62 285.99 1096.06 286.00 1096.00
C 287.65 1088.09 290.06 1081.44 291.00 1073.00
C 291.40 1069.44 291.57 1069.32 294.00 1067.00
C 294.13 1066.53 293.92 1065.49 294.00 1065.00
C 294.44 1062.33 298.00 1059.38 300.00 1058.00
C 301.95 1052.55 312.85 1040.32 318.00 1040.00
C 318.50 1039.97 319.00 1040.00 319.00 1040.00
C 321.16 1035.78 323.50 1032.79 327.00 1030.00
C 329.76 1027.80 331.75 1025.93 335.00 1025.00
C 335.45 1024.58 336.40 1024.11 337.00 1024.00
C 339.71 1022.19 342.19 1019.60 345.00 1018.00
C 350.20 1015.04 355.82 1010.93 362.00 1010.00
C 365.14 1008.68 371.34 1004.70 376.00 1004.00
C 376.96 1003.86 378.03 1004.03 379.00 1004.00
C 380.52 1003.24 380.69 1000.81 383.03 1001.03 C 385.37 1001.24 387.85 1001.55 390.00 1001.00
C 390.11 999.78 391.93 1000.41 392.00 1000.00
C 398.05 997.12 404.46 999.68 411.00 998.00
C 411.10 996.97 412.28 997.11 413.00 997.00
C 413.81 996.62 413.75 996.15 415.00 996.00
C 421.65 993.29 436.36 993.90 444.00 995.00
C 444.35 995.05 444.74 995.78 445.00 996.00
C 445.93 996.77 447.13 997.35 448.00 998.00
C 448.35 997.77 449.00 998.00 449.00 998.00
C 454.51 998.00 460.91 997.21 466.00 999.00
C 467.08 999.38 468.52 999.97 469.00 1001.00
C 473.39 1000.59 475.81 1001.27 479.00 1003.00
C 480.09 1003.23 482.11 1004.32 483.00 1005.00
C 484.01 1003.91 488.36 1005.18 490.00 1006.00
C 490.81 1006.40 492.45 1007.40 493.00 1008.00
C 499.80 1006.88 508.63 1015.13 514.25 1017.75 C 519.86 1020.37 530.24 1023.24 534.00 1029.00
C 534.43 1029.17 535.00 1029.00 535.00 1029.00
C 540.76 1032.59 545.62 1038.41 552.00 1039.00
C 551.55 1041.31 554.53 1042.07 555.00 1044.00
C 558.73 1046.32 567.35 1052.25 569.00 1056.00
C 569.12 1055.53 569.00 1054.50 569.00 1054.00
C 567.47 1051.50 563.62 1050.38 564.00 1047.00
C 566.89 1046.11 566.46 1051.24 569.00 1049.00
C 569.00 1048.50 569.00 1048.00 569.00 1048.00
C 563.94 1041.16 569.57 1027.99 568.00 1019.00 C 566.43 1010.01 568.73 997.64 568.00 988.00 C 567.27 978.36 568.32 967.97 568.00 958.00 C 567.68 948.03 568.14 937.14 568.00 927.00 C 567.86 916.86 568.07 906.17 568.00 896.00 C 567.93 885.83 568.03 876.21 568.00 866.00 C 567.97 855.79 568.01 845.27 568.00 835.00 C 567.99 824.73 568.01 814.29 568.00 804.00
C 564.20 801.34 554.85 805.00 550.00 804.00 C 545.15 803.00 537.14 804.00 532.00 804.00
C 527.42 804.00 521.44 804.71 517.00 804.00 C 512.56 803.29 505.92 805.89 502.00 804.00
C 499.09 802.59 500.54 801.21 500.00 798.00
C 497.80 784.96 497.53 769.52 498.00 755.00
C 757.58 755.62 1016.63 754.20 1276.00 754.00
C 1278.10 753.80 1281.23 753.00 1284.00 753.00
C 1343.00 753.00 1402.00 753.00 1461.00 753.00
C 1470.97 753.00 1481.03 753.38 1491.00 753.00
C 1539.18 751.16 1588.41 752.00 1637.00 752.00
C 1654.68 752.00 1672.10 751.00 1690.00 751.00
C 1697.00 751.00 1704.00 751.00 1711.00 751.00
C 1745.94 751.00 1780.11 750.00 1815.00 750.00
C 1830.66 750.00 1847.46 751.78 1863.00 750.00
C 1864.47 749.83 1866.90 749.06 1869.00 749.00
C 1896.62 748.22 1924.37 749.00 1952.00 749.00
C 1954.67 749.00 1957.33 749.00 1960.00 749.00
C 1963.73 748.64 1968.59 748.00 1973.00 748.00
C 1976.00 748.00 1979.00 748.00 1982.00 748.00
C 1984.33 748.00 1986.67 748.00 1989.00 748.00
C 1993.00 748.00 1997.00 748.00 2001.00 748.00
C 2021.33 748.00 2041.67 748.00 2062.00 748.00
L 2062.00 0.00
L 0.00 0.00
L 0.00 1191.00
M 248.00 1075.00 
C 246.25 1076.60 242.70 1074.04 240.00 1075.00
C 241.83 1073.19 245.80 1073.77 248.00 1075.00
M 272.00 1097.00 
C 270.48 1098.28 268.04 1100.51 266.00 1099.00
C 267.41 1097.71 269.86 1096.97 272.00 1097.00 Z"/>
</g>
<g fill="None" fill-opacity="0.0" stroke="#0000FF" stroke-opacity="0.00" stroke-width="0.3"><path d="
M 1960.00 749.00 
C 1962.67 749.00 1965.33 749.00 1968.00 749.00
C 1969.67 749.00 1971.33 749.00 1973.00 749.00
C 1973.15 748.95 1973.00 748.00 1973.00 748.00
C 1968.59 748.00 1963.73 748.64 1960.00 749.00 Z"/>
</g>
<g fill="None" fill-opacity="0.0" stroke="#000080" stroke-opacity="0.01" stroke-width="0.3"><path d="
M 1973.00 749.00 
C 1976.00 749.00 1979.00 749.00 1982.00 749.00
C 1981.85 748.95 1982.00 748.00 1982.00 748.00
C 1979.00 748.00 1976.00 748.00 1973.00 748.00
C 1973.00 748.00 1973.15 748.95 1973.00 749.00 Z"/>
</g>
<g fill="None" fill-opacity="0.0" stroke="#0000E6" stroke-opacity="0.01" stroke-width="0.3"><path d="
M 1982.00 749.00 
C 1983.67 749.00 1985.33 749.00 1987.00 749.00
C 1987.50 749.00 1988.50 749.00 1989.00 749.00
C 1989.23 748.66 1989.00 748.00 1989.00 748.00
C 1986.67 748.00 1984.33 748.00 1982.00 748.00
C 1982.00 748.00 1981.85 748.95 1982.00 749.00 Z"/>
</g>
<g fill="None" fill-opacity="0.0" stroke="#0055AA" stroke-opacity="0.01" stroke-width="0.3"><path d="
M 1989.00 749.00 
C 1992.95 749.00 1997.07 749.35 2001.00 749.00
C 2000.84 748.94 2001.00 748.00 2001.00 748.00
C 1997.00 748.00 1993.00 748.00 1989.00 748.00
C 1989.00 748.00 1989.23 748.66 1989.00 749.00 Z"/>
</g>
<g fill="None" fill-opacity="0.0" stroke="#222FB3" stroke-opacity="0.99" stroke-width="0.3"><path d="
M 2001.00 749.00 
C 2004.23 750.21 1990.17 750.00 1987.00 750.00
C 1980.67 750.00 1974.33 750.00 1968.00 750.00
C 1962.61 750.00 1956.64 749.45 1952.00 749.00
C 1924.37 749.00 1896.62 748.22 1869.00 749.00
C 1872.23 749.22 1877.05 750.92 1881.00 750.00
C 1876.08 751.62 1867.85 751.69 1863.00 750.00
C 1847.46 751.78 1830.66 750.00 1815.00 750.00
C 1784.74 752.93 1752.27 753.00 1721.00 753.00
C 1711.92 753.00 1701.22 754.04 1693.00 752.00
C 1691.66 751.88 1690.79 751.17 1690.00 751.00
C 1672.10 751.00 1654.68 752.00 1637.00 752.00
C 1589.82 756.57 1539.36 754.00 1491.00 754.00
C 1481.01 754.00 1470.22 753.89 1461.00 753.00
C 1402.00 753.00 1343.00 753.00 1284.00 753.00
C 1281.91 753.20 1278.77 754.00 1276.00 754.00
C 1016.63 754.20 757.58 755.62 498.00 755.00
C 497.53 769.52 497.80 784.96 500.00 798.00
C 500.08 797.07 501.23 793.81 502.00 793.00
C 502.00 796.67 502.00 800.33 502.00 804.00
C 505.92 805.89 512.56 803.29 517.00 804.00 C 521.44 804.71 527.42 804.00 532.00 804.00
C 544.01 802.84 557.68 802.84 570.00 804.00
C 596.77 806.51 624.62 801.22 652.00 803.00 C 679.38 804.78 707.46 802.15 735.00 803.00 C 762.54 803.85 790.39 802.51 818.00 803.00 C 845.61 803.49 873.37 802.56 901.00 803.00 C 928.63 803.44 955.63 802.73 983.00 802.00 C 1010.37 801.27 1039.58 802.18 1067.00 802.00 C 1094.42 801.82 1122.80 801.73 1150.00 802.00 C 1177.20 802.27 1203.32 802.09 1231.00 802.00 C 1258.68 801.91 1286.32 802.24 1314.00 802.00 C 1341.68 801.76 1368.33 803.11 1396.00 803.00 C 1423.67 802.89 1451.25 803.05 1479.00 803.00 C 1506.75 802.95 1535.24 803.02 1563.00 803.00 C 1590.76 802.98 1618.29 803.01 1646.00 803.00 C 1673.71 802.99 1701.30 803.00 1729.00 803.00 C 1756.70 803.00 1784.30 803.00 1812.00 803.00 C 1839.70 803.00 1867.27 803.00 1895.00 803.00 C 1922.73 803.00 1950.20 803.00 1978.00 803.00 C 2005.80 803.00 2034.15 803.00 2062.00 803.00
L 2062.00 748.00
C 2041.67 748.00 2021.33 748.00 2001.00 748.00
C 2001.00 748.00 2000.84 748.94 2001.00 749.00 Z"/>
</g>
<g fill="None" fill-opacity="0.0" stroke="#1A33B5" stroke-opacity="0.32" stroke-width="0.3"><path d="
M 1863.00 750.00 
C 1867.85 751.69 1876.08 751.62 1881.00 750.00
C 1877.05 750.92 1872.23 749.22 1869.00 749.00
C 1866.90 749.06 1864.47 749.83 1863.00 750.00 Z"/>
</g>
<g fill="None" fill-opacity="0.0" stroke="#2130B2" stroke-opacity="0.28" stroke-width="0.3"><path d="
M 1968.00 750.00 
C 1967.96 750.00 1968.00 749.00 1968.00 749.00
C 1965.33 749.00 1962.67 749.00 1960.00 749.00
C 1957.33 749.00 1954.67 749.00 1952.00 749.00
C 1956.64 749.45 1962.61 750.00 1968.00 750.00 Z"/>
</g>
<g fill="None" fill-opacity="0.0" stroke="#2130B2" stroke-opacity="0.44" stroke-width="0.3"><path d="
M 1968.00 750.00 
C 1974.33 750.00 1980.67 750.00 1987.00 750.00
C 1986.95 750.00 1987.00 749.00 1987.00 749.00
C 1985.33 749.00 1983.67 749.00 1982.00 749.00
C 1979.00 749.00 1976.00 749.00 1973.00 749.00
C 1971.33 749.00 1969.67 749.00 1968.00 749.00
C 1968.00 749.00 1967.96 750.00 1968.00 750.00 Z"/>
</g>
<g fill="None" fill-opacity="0.0" stroke="#2230B3" stroke-opacity="0.61" stroke-width="0.3"><path d="
M 1987.00 750.00 
C 1990.17 750.00 2004.23 750.21 2001.00 749.00
C 1997.07 749.35 1992.95 749.00 1989.00 749.00
C 1988.50 749.00 1987.50 749.00 1987.00 749.00
C 1987.00 749.00 1986.95 750.00 1987.00 750.00 Z"/>
</g>
<g fill="None" fill-opacity="0.0" stroke="#2131B3" stroke-opacity="0.47" stroke-width="0.3"><path d="
M 1711.00 751.00 
C 1711.04 751.00 1711.00 752.00 1711.00 752.00
C 1714.43 752.00 1718.31 752.74 1721.00 753.00
C 1752.27 753.00 1784.74 752.93 1815.00 750.00
C 1780.11 750.00 1745.94 751.00 1711.00 751.00 Z"/>
</g>
<g fill="None" fill-opacity="0.0" stroke="#2230B2" stroke-opacity="0.22" stroke-width="0.3"><path d="
M 1693.00 752.00 
C 1698.90 752.51 1705.08 752.00 1711.00 752.00
C 1711.00 752.00 1711.04 751.00 1711.00 751.00
C 1704.00 751.00 1697.00 751.00 1690.00 751.00
C 1690.79 751.17 1691.66 751.88 1693.00 752.00 Z"/>
</g>
<g fill="None" fill-opacity="0.0" stroke="#2130B3" stroke-opacity="0.57" stroke-width="0.3"><path d="
M 1491.00 753.00 
C 1491.02 753.00 1491.00 754.00 1491.00 754.00
C 1539.36 754.00 1589.82 756.57 1637.00 752.00
C 1588.41 752.00 1539.18 751.16 1491.00 753.00 Z"/>
</g>
<g fill="None" fill-opacity="0.0" stroke="#2130B2" stroke-opacity="0.83" stroke-width="0.3"><path d="
M 1721.00 753.00 
C 1718.31 752.74 1714.43 752.00 1711.00 752.00
C 1705.08 752.00 1698.90 752.51 1693.00 752.00
C 1701.22 754.04 1711.92 753.00 1721.00 753.00 Z"/>
</g>
<g fill="None" fill-opacity="0.0" stroke="#2847B7" stroke-opacity="0.03" stroke-width="0.3"><path d="
M 1276.00 754.00 
C 1278.77 754.00 1281.91 753.20 1284.00 753.00
C 1281.23 753.00 1278.10 753.80 1276.00 754.00 Z"/>
</g>
<g fill="None" fill-opacity="0.0" stroke="#222FB2" stroke-opacity="0.75" stroke-width="0.3"><path d="
M 1491.00 754.00 
C 1491.00 754.00 1491.02 753.00 1491.00 753.00
C 1481.03 753.38 1470.97 753.00 1461.00 753.00
C 1470.22 753.89 1481.01 754.00 1491.00 754.00 Z"/>
</g>
<g fill="None" fill-opacity="0.0" stroke="#1628C0" stroke-opacity="0.22" stroke-width="0.3"><path d="
M 500.00 798.00 
C 500.54 801.21 499.09 802.59 502.00 804.00
C 502.00 800.33 502.00 796.67 502.00 793.00
C 501.23 793.81 500.08 797.07 500.00 798.00 Z"/>
</g>
<g fill="None" fill-opacity="0.0" stroke="#414EDE" stroke-opacity="1.00" stroke-width="0.3"><path d="
M 570.00 804.00 
C 573.35 808.74 568.26 819.08 570.00 825.00 C 571.74 830.92 570.71 838.30 571.00 845.00 C 571.29 851.70 570.86 860.07 571.00 867.00 C 571.14 873.93 570.94 880.99 571.00 888.00 C 571.06 895.01 570.97 901.91 571.00 909.00 C 571.03 916.09 570.97 923.88 571.00 931.00 C 571.03 938.12 570.96 944.90 571.00 952.00 C 571.04 959.10 570.93 965.86 571.00 973.00 C 571.07 980.14 570.85 987.85 571.00 995.00 C 571.15 1002.15 569.87 1007.82 570.00 1015.00 C 570.13 1022.18 570.00 1029.78 570.00 1037.00
C 570.00 1042.37 572.14 1053.18 570.00 1058.00
C 570.36 1058.79 570.15 1060.88 569.00 1061.00
C 568.16 1057.49 560.24 1054.37 561.00 1051.00
C 559.95 1049.93 559.16 1048.93 558.00 1048.00
C 553.93 1045.57 551.47 1044.47 548.00 1041.00
C 542.57 1036.36 537.16 1033.05 531.00 1030.00
C 528.95 1028.99 524.65 1027.51 524.00 1025.00
C 523.88 1024.53 524.00 1024.00 524.00 1024.00
C 519.41 1021.83 514.51 1019.62 510.00 1017.00
C 504.66 1014.85 499.72 1013.23 495.00 1010.00
C 494.83 1009.93 493.01 1009.03 493.00 1009.00
C 489.58 1008.40 488.64 1008.38 486.00 1007.00
C 484.75 1006.86 484.17 1006.19 483.00 1006.00
C 482.04 1005.84 480.97 1006.05 480.00 1006.00
C 476.78 1005.83 475.29 1003.75 473.00 1003.00
C 471.72 1002.95 469.50 1003.60 469.00 1002.00
C 467.53 1001.49 465.13 1000.20 464.00 1000.00
C 461.42 1000.32 458.60 1000.00 456.00 1000.00
C 452.57 1000.00 448.69 999.26 446.00 999.00
C 435.23 997.96 423.83 999.01 413.00 999.00
C 412.50 999.00 411.50 999.00 411.00 999.00
C 405.11 999.00 399.94 1000.00 394.00 1000.00
C 393.69 1000.10 391.60 1001.56 390.00 1002.00
C 388.60 1002.38 387.50 1002.71 386.00 1003.00
C 382.62 1004.11 379.90 1005.28 376.00 1006.00
C 372.15 1006.72 368.75 1009.63 365.00 1010.00
C 358.32 1013.72 350.37 1017.19 344.00 1020.00
C 343.88 1020.26 343.26 1020.77 343.00 1021.00
C 343.45 1023.24 338.46 1025.38 336.00 1027.00
C 334.59 1027.93 332.56 1029.43 331.00 1030.00
C 329.84 1030.42 327.06 1029.98 327.00 1030.00
C 323.50 1032.79 321.16 1035.78 319.00 1040.00
C 318.68 1040.63 318.35 1041.42 318.00 1042.00
C 315.34 1046.36 310.48 1049.52 307.00 1053.00
C 305.59 1054.65 301.41 1061.47 300.00 1060.00
C 298.39 1062.53 296.05 1063.36 294.00 1065.00
C 293.92 1065.49 294.13 1066.53 294.00 1067.00
C 293.44 1069.06 291.41 1071.23 291.00 1073.00
C 290.06 1081.44 287.65 1088.09 286.00 1096.00
C 285.67 1098.89 285.99 1098.10 284.00 1101.00
C 282.99 1104.08 281.37 1103.39 281.00 1104.00
C 280.07 1106.39 280.91 1108.78 279.00 1111.00
C 278.56 1112.32 279.51 1116.13 277.00 1113.00
C 276.56 1113.17 275.48 1113.11 275.00 1113.00
C 271.46 1117.32 271.36 1110.24 272.00 1111.00
C 261.78 1104.49 249.98 1099.45 239.00 1094.00
C 237.07 1093.24 231.86 1091.98 230.00 1089.00
C 229.50 1088.95 229.00 1089.00 229.00 1089.00
C 225.05 1091.88 222.48 1085.93 224.00 1087.00
C 218.51 1084.85 210.58 1081.78 206.00 1080.00
C 193.36 1077.61 181.21 1074.76 169.00 1071.00
C 158.89 1070.19 145.92 1073.48 135.00 1072.00 C 124.08 1070.52 113.52 1076.74 103.00 1076.00
C 101.41 1076.37 98.97 1077.51 97.00 1078.00
C 95.21 1078.44 94.09 1079.21 92.00 1079.00
C 90.49 1081.21 88.68 1081.35 87.00 1081.00
C 86.88 1081.26 86.15 1081.66 86.00 1082.00
C 84.65 1085.05 80.90 1085.60 78.00 1086.00
C 77.51 1086.07 76.50 1086.00 76.00 1086.00
C 72.21 1089.97 66.06 1093.58 61.00 1096.00
C 60.59 1096.19 59.41 1095.81 59.00 1096.00
C 57.35 1097.28 55.62 1099.61 54.00 1101.00
C 50.13 1104.87 45.80 1108.17 42.00 1112.00
C 41.26 1112.96 40.92 1113.30 40.00 1114.00
C 36.57 1117.40 33.10 1121.44 30.00 1125.00
C 27.88 1127.43 25.89 1130.54 24.00 1133.00
C 19.59 1141.64 14.58 1151.55 10.00 1159.00
C 9.91 1159.48 10.04 1160.50 10.00 1161.00
C 9.74 1164.23 8.38 1166.29 8.00 1167.00
C 8.00 1167.13 7.12 1170.24 7.00 1171.00
C 6.46 1174.50 4.88 1177.99 4.00 1181.00
C 3.81 1183.60 3.41 1186.32 3.00 1189.00
C 2.73 1190.78 2.55 1192.28 2.00 1194.00
C 1.93 1197.00 2.80 1200.73 2.00 1204.00
C 1.13 1213.03 2.33 1222.19 3.00 1231.00
C 3.98 1243.75 24.62 1236.80 36.00 1238.00 C 47.38 1239.20 64.37 1237.46 77.00 1238.00 C 89.63 1238.54 104.80 1237.76 118.00 1238.00 C 131.20 1238.24 145.54 1237.89 159.00 1238.00 C 172.46 1238.11 186.43 1237.95 200.00 1238.00 C 213.57 1238.05 227.38 1237.98 241.00 1238.00 C 254.62 1238.02 268.35 1237.99 282.00 1238.00 C 295.65 1238.01 309.34 1238.00 323.00 1238.00 C 336.66 1238.00 350.34 1238.00 364.00 1238.00 C 377.66 1238.00 391.34 1238.00 405.00 1238.00 C 418.66 1238.00 432.33 1238.00 446.00 1238.00 C 459.67 1238.00 473.33 1238.00 487.00 1238.00 C 500.67 1238.00 514.33 1238.00 528.00 1238.00 C 541.67 1238.00 555.33 1238.00 569.00 1238.00
C 569.00 1239.00 569.00 1240.00 569.00 1241.00
L 582.00 1241.00
C 582.00 1240.50 582.00 1239.50 582.00 1239.00
C 582.00 1238.50 582.00 1238.00 582.00 1238.00
C 582.00 1237.50 582.00 1237.00 582.00 1237.00
C 587.70 1227.03 581.10 1211.63 583.00 1200.00 C 584.90 1188.37 582.15 1174.30 583.00 1162.00 C 583.85 1149.70 582.58 1135.58 583.00 1123.00 C 583.42 1110.42 582.76 1097.70 583.00 1085.00 C 583.24 1072.30 582.76 1058.72 583.00 1046.00 C 583.24 1033.28 582.60 1020.65 583.00 1008.00 C 583.40 995.35 584.35 982.86 584.00 970.00 C 583.65 957.14 584.18 944.87 584.00 932.00 C 583.82 919.13 584.14 905.90 584.00 893.00
C 595.91 894.22 608.26 895.22 620.01 896.99 C 631.75 898.76 644.20 899.88 656.00 901.00 C 667.80 902.12 679.56 904.61 691.07 905.93 C 702.59 907.25 716.28 907.50 727.02 909.98 C 737.77 912.45 756.14 907.43 756.00 921.00 C 755.86 934.57 756.19 947.48 756.00 961.00 C 755.81 974.52 756.36 988.51 756.00 1002.00 C 755.64 1015.49 756.88 1027.70 757.00 1041.00 C 757.12 1054.30 756.99 1067.67 757.00 1081.00 C 757.01 1094.33 757.10 1107.65 757.00 1121.00 C 756.90 1134.35 757.28 1147.61 757.00 1161.00 C 756.72 1174.39 757.36 1186.77 758.00 1200.00 C 758.64 1213.23 757.52 1227.66 758.00 1241.00
L 771.00 1241.00
C 769.67 1132.51 770.25 1023.51 769.00 915.00
C 833.58 920.97 897.76 928.61 963.00 932.00
C 962.61 1035.18 964.77 1137.72 964.00 1241.00
L 978.00 1241.00
C 977.92 1138.52 977.38 1036.15 976.00 934.00
C 1037.47 936.75 1098.62 940.85 1161.00 940.00
C 1162.06 1040.23 1162.16 1140.71 1163.00 1241.00
L 1176.00 1241.00
C 1175.91 1140.94 1174.34 1041.24 1175.00 941.00
C 1235.92 940.35 1297.50 942.32 1358.00 940.00
C 1358.94 1040.26 1360.57 1140.36 1360.00 1241.00
L 1373.00 1241.00
C 1373.73 1140.40 1371.35 1040.58 1372.00 940.00
C 1383.45 939.86 1394.52 940.19 1406.00 940.00 C 1417.48 939.81 1428.38 940.36 1440.00 940.00 C 1451.62 939.64 1463.18 940.75 1475.00 940.00 C 1486.82 939.25 1495.90 941.79 1508.00 941.00 C 1520.10 940.21 1528.10 942.63 1541.00 942.00 C 1553.90 941.37 1551.46 955.52 1551.00 967.00 C 1550.54 978.48 1551.49 989.55 1551.00 1001.00 C 1550.51 1012.45 1551.66 1022.70 1552.00 1034.00 C 1552.34 1045.30 1551.84 1057.62 1552.00 1069.00 C 1552.16 1080.38 1551.93 1091.61 1552.00 1103.00 C 1552.07 1114.39 1551.97 1125.56 1552.00 1137.00 C 1552.03 1148.44 1551.98 1160.56 1552.00 1172.00 C 1552.02 1183.44 1551.99 1194.61 1552.00 1206.00 C 1552.01 1217.39 1551.99 1228.62 1552.00 1240.00
L 1566.00 1241.00
C 1564.83 1141.46 1565.54 1041.45 1564.00 942.00
C 1620.08 943.68 1675.56 947.72 1731.00 952.00
C 1731.55 1048.27 1732.46 1144.47 1732.00 1241.00
L 1746.00 1241.00
C 1745.97 1145.26 1744.32 1049.92 1745.00 954.00
C 1805.55 958.45 1865.08 966.95 1925.00 974.00
C 1925.12 983.29 1924.84 992.73 1925.00 1002.00 C 1925.16 1011.27 1924.68 1020.78 1925.00 1030.00 C 1925.32 1039.22 1924.32 1048.91 1925.00 1058.00 C 1925.68 1067.09 1926.32 1075.65 1926.00 1085.00 C 1925.68 1094.35 1926.18 1103.63 1926.00 1113.00 C 1925.82 1122.37 1926.17 1131.60 1926.00 1141.00 C 1925.83 1150.40 1926.26 1159.52 1926.00 1169.00 C 1925.74 1178.48 1926.53 1187.34 1926.00 1197.00 C 1925.47 1206.66 1927.15 1214.95 1926.00 1225.00 C 1924.85 1235.05 1927.48 1242.76 1940.00 1239.00
C 1940.19 1151.54 1938.25 1064.60 1939.00 977.00
C 1980.36 980.77 2020.73 988.68 2062.00 993.00
L 2062.00 803.00
C 2034.15 803.00 2005.80 803.00 1978.00 803.00 C 1950.20 803.00 1922.73 803.00 1895.00 803.00 C 1867.27 803.00 1839.70 803.00 1812.00 803.00 C 1784.30 803.00 1756.70 803.00 1729.00 803.00 C 1701.30 803.00 1673.71 802.99 1646.00 803.00 C 1618.29 803.01 1590.76 802.98 1563.00 803.00 C 1535.24 803.02 1506.75 802.95 1479.00 803.00 C 1451.25 803.05 1423.67 802.89 1396.00 803.00 C 1368.33 803.11 1341.68 801.76 1314.00 802.00 C 1286.32 802.24 1258.68 801.91 1231.00 802.00 C 1203.32 802.09 1177.20 802.27 1150.00 802.00 C 1122.80 801.73 1094.42 801.82 1067.00 802.00 C 1039.58 802.18 1010.37 801.27 983.00 802.00 C 955.63 802.73 928.63 803.44 901.00 803.00 C 873.37 802.56 845.61 803.49 818.00 803.00 C 790.39 802.51 762.54 803.85 735.00 803.00 C 707.46 802.15 679.38 804.78 652.00 803.00 C 624.62 801.22 596.77 806.51 570.00 804.00 Z"/>
</g>
<g fill="None" fill-opacity="0.0" stroke="#3341C9" stroke-opacity="0.45" stroke-width="0.3"><path d="
M 532.00 804.00 
C 537.14 804.00 545.15 803.00 550.00 804.00 C 554.85 805.00 564.20 801.34 568.00 804.00
C 572.49 807.14 567.65 820.03 569.00 826.00 C 570.35 831.97 568.42 841.97 569.00 849.00 C 569.58 856.03 568.72 865.54 569.00 873.00 C 569.28 880.46 568.88 888.33 569.00 896.00 C 569.12 903.67 568.94 912.26 569.00 920.00 C 569.06 927.74 568.97 935.25 569.00 943.00 C 569.03 950.75 568.99 958.19 569.00 966.00 C 569.01 973.81 568.99 982.16 569.00 990.00 C 569.01 997.84 569.00 1005.14 569.00 1013.00 C 569.00 1020.86 569.00 1029.10 569.00 1037.00
C 569.00 1036.96 570.00 1037.00 570.00 1037.00
C 570.00 1029.78 570.13 1022.18 570.00 1015.00 C 569.87 1007.82 571.15 1002.15 571.00 995.00 C 570.85 987.85 571.07 980.14 571.00 973.00 C 570.93 965.86 571.04 959.10 571.00 952.00 C 570.96 944.90 571.03 938.12 571.00 931.00 C 570.97 923.88 571.03 916.09 571.00 909.00 C 570.97 901.91 571.06 895.01 571.00 888.00 C 570.94 880.99 571.14 873.93 571.00 867.00 C 570.86 860.07 571.29 851.70 571.00 845.00 C 570.71 838.30 571.74 830.92 570.00 825.00 C 568.26 819.08 573.35 808.74 570.00 804.00
C 557.68 802.84 544.01 802.84 532.00 804.00 Z"/>
</g>
<g fill="None" fill-opacity="0.0" stroke="#000040" stroke-opacity="0.02" stroke-width="0.3"><path d="
M 569.00 1048.00 
C 569.00 1044.33 569.00 1040.67 569.00 1037.00
C 569.00 1029.10 569.00 1020.86 569.00 1013.00 C 569.00 1005.14 569.01 997.84 569.00 990.00 C 568.99 982.16 569.01 973.81 569.00 966.00 C 568.99 958.19 569.03 950.75 569.00 943.00 C 568.97 935.25 569.06 927.74 569.00 920.00 C 568.94 912.26 569.12 903.67 569.00 896.00 C 568.88 888.33 569.28 880.46 569.00 873.00 C 568.72 865.54 569.58 856.03 569.00 849.00 C 568.42 841.97 570.35 831.97 569.00 826.00 C 567.65 820.03 572.49 807.14 568.00 804.00
C 568.01 814.29 567.99 824.73 568.00 835.00 C 568.01 845.27 567.97 855.79 568.00 866.00 C 568.03 876.21 567.93 885.83 568.00 896.00 C 568.07 906.17 567.86 916.86 568.00 927.00 C 568.14 937.14 567.68 948.03 568.00 958.00 C 568.32 967.97 567.27 978.36 568.00 988.00 C 568.73 997.64 566.43 1010.01 568.00 1019.00 C 569.57 1027.99 563.94 1041.16 569.00 1048.00 Z"/>
</g>
<g fill="None" fill-opacity="0.0" stroke="#5764F2" stroke-opacity="1.00" stroke-width="0.3"><path d="
M 582.00 1237.00 
C 584.62 1236.76 593.18 1236.05 592.00 1239.00
C 591.83 1239.43 592.00 1240.50 592.00 1241.00
L 758.00 1241.00
C 757.52 1227.66 758.64 1213.23 758.00 1200.00 C 757.36 1186.77 756.72 1174.39 757.00 1161.00 C 757.28 1147.61 756.90 1134.35 757.00 1121.00 C 757.10 1107.65 757.01 1094.33 757.00 1081.00 C 756.99 1067.67 757.12 1054.30 757.00 1041.00 C 756.88 1027.70 755.64 1015.49 756.00 1002.00 C 756.36 988.51 755.81 974.52 756.00 961.00 C 756.19 947.48 755.86 934.57 756.00 921.00 C 756.14 907.43 737.77 912.45 727.02 909.98 C 716.28 907.50 702.59 907.25 691.07 905.93 C 679.56 904.61 667.80 902.12 656.00 901.00 C 644.20 899.88 631.75 898.76 620.01 896.99 C 608.26 895.22 595.91 894.22 584.00 893.00
C 584.14 905.90 583.82 919.13 584.00 932.00 C 584.18 944.87 583.65 957.14 584.00 970.00 C 584.35 982.86 583.40 995.35 583.00 1008.00 C 582.60 1020.65 583.24 1033.28 583.00 1046.00 C 582.76 1058.72 583.24 1072.30 583.00 1085.00 C 582.76 1097.70 583.42 1110.42 583.00 1123.00 C 582.58 1135.58 583.85 1149.70 583.00 1162.00 C 582.15 1174.30 584.90 1188.37 583.00 1200.00 C 581.10 1211.63 587.70 1227.03 582.00 1237.00 Z"/>
</g>
<g fill="None" fill-opacity="0.0" stroke="#5865F2" stroke-opacity="1.00" stroke-width="0.3"><path d="
M 771.00 1241.00 
L 964.00 1241.00
C 964.77 1137.72 962.61 1035.18 963.00 932.00
C 897.76 928.61 833.58 920.97 769.00 915.00
C 770.25 1023.51 769.67 1132.51 771.00 1241.00 Z"/>
</g>
<g fill="None" fill-opacity="0.0" stroke="#5865F2" stroke-opacity="1.00" stroke-width="0.3"><path d="
M 978.00 1241.00 
L 1163.00 1241.00
C 1162.16 1140.71 1162.06 1040.23 1161.00 940.00
C 1098.62 940.85 1037.47 936.75 976.00 934.00
C 977.38 1036.15 977.92 1138.52 978.00 1241.00 Z"/>
</g>
<g fill="None" fill-opacity="0.0" stroke="#5865F2" stroke-opacity="1.00" stroke-width="0.3"><path d="
M 1176.00 1241.00 
L 1360.00 1241.00
C 1360.57 1140.36 1358.94 1040.26 1358.00 940.00
C 1297.50 942.32 1235.92 940.35 1175.00 941.00
C 1174.34 1041.24 1175.91 1140.94 1176.00 1241.00 Z"/>
</g>
<g fill="None" fill-opacity="0.0" stroke="#5765F2" stroke-opacity="1.00" stroke-width="0.3"><path d="
M 1373.00 1241.00 
L 1552.00 1241.00
C 1551.99 1228.62 1552.01 1217.39 1552.00 1206.00 C 1551.99 1194.61 1552.02 1183.44 1552.00 1172.00 C 1551.98 1160.56 1552.03 1148.44 1552.00 1137.00 C 1551.97 1125.56 1552.07 1114.39 1552.00 1103.00 C 1551.93 1091.61 1552.16 1080.38 1552.00 1069.00 C 1551.84 1057.62 1552.34 1045.30 1552.00 1034.00 C 1551.66 1022.70 1550.51 1012.45 1551.00 1001.00 C 1551.49 989.55 1550.54 978.48 1551.00 967.00 C 1551.46 955.52 1553.90 941.37 1541.00 942.00 C 1528.10 942.63 1520.10 940.21 1508.00 941.00 C 1495.90 941.79 1486.82 939.25 1475.00 940.00 C 1463.18 940.75 1451.62 939.64 1440.00 940.00 C 1428.38 940.36 1417.48 939.81 1406.00 940.00 C 1394.52 940.19 1383.45 939.86 1372.00 940.00
C 1371.35 1040.58 1373.73 1140.40 1373.00 1241.00 Z"/>
</g>
<g fill="None" fill-opacity="0.0" stroke="#5865F2" stroke-opacity="1.00" stroke-width="0.3"><path d="
M 1566.00 1241.00 
L 1732.00 1241.00
C 1732.46 1144.47 1731.55 1048.27 1731.00 952.00
C 1675.56 947.72 1620.08 943.68 1564.00 942.00
C 1565.54 1041.45 1564.83 1141.46 1566.00 1241.00 Z"/>
</g>
<g fill="None" fill-opacity="0.0" stroke="#5865F2" stroke-opacity="1.00" stroke-width="0.3"><path d="
M 1746.00 1241.00 
L 2062.00 1241.00
L 2062.00 993.00
C 2020.73 988.68 1980.36 980.77 1939.00 977.00
C 1938.25 1064.60 1940.19 1151.54 1940.00 1239.00
C 1927.48 1242.76 1924.85 1235.05 1926.00 1225.00 C 1927.15 1214.95 1925.47 1206.66 1926.00 1197.00 C 1926.53 1187.34 1925.74 1178.48 1926.00 1169.00 C 1926.26 1159.52 1925.83 1150.40 1926.00 1141.00 C 1926.17 1131.60 1925.82 1122.37 1926.00 1113.00 C 1926.18 1103.63 1925.68 1094.35 1926.00 1085.00 C 1926.32 1075.65 1925.68 1067.09 1925.00 1058.00 C 1924.32 1048.91 1925.32 1039.22 1925.00 1030.00 C 1924.68 1020.78 1925.16 1011.27 1925.00 1002.00 C 1924.84 992.73 1925.12 983.29 1925.00 974.00
C 1865.08 966.95 1805.55 958.45 1745.00 954.00
C 1744.32 1049.92 1745.97 1145.26 1746.00 1241.00 Z"/>
</g>
<g fill="None" fill-opacity="0.0" stroke="#04074E" stroke-opacity="0.04" stroke-width="0.3"><path d="
M 415.00 996.00 
C 424.47 994.83 435.32 997.60 444.00 995.00
C 436.36 993.90 421.65 993.29 415.00 996.00 Z"/>
</g>
<g fill="None" fill-opacity="0.0" stroke="#272C87" stroke-opacity="0.10" stroke-width="0.3"><path d="
M 415.00 996.00 
C 413.75 996.15 413.81 996.62 413.00 997.00
C 414.59 996.77 416.39 997.00 418.00 997.00
C 424.66 997.00 431.34 997.13 438.00 997.00
C 439.95 996.96 443.95 997.87 445.00 996.00
C 444.74 995.78 444.35 995.05 444.00 995.00
C 435.32 997.60 424.47 994.83 415.00 996.00 Z"/>
</g>
<g fill="None" fill-opacity="0.0" stroke="#5159BB" stroke-opacity="0.14" stroke-width="0.3"><path d="
M 438.00 997.00 
C 439.88 997.18 444.19 998.82 446.00 999.00
C 447.57 999.16 447.06 998.63 448.00 998.00
C 447.13 997.35 445.93 996.77 445.00 996.00
C 443.95 997.87 439.95 996.96 438.00 997.00 Z"/>
</g>
<g fill="None" fill-opacity="0.0" stroke="#5560C2" stroke-opacity="0.16" stroke-width="0.3"><path d="
M 411.00 998.00 
C 410.95 998.50 411.00 999.00 411.00 999.00
C 411.50 999.00 412.50 999.00 413.00 999.00
C 414.11 998.68 416.94 997.16 418.00 997.00
C 416.39 997.00 414.59 996.77 413.00 997.00
C 412.28 997.11 411.10 996.97 411.00 998.00 Z"/>
</g>
<g fill="None" fill-opacity="0.0" stroke="#4F5CCD" stroke-opacity="0.39" stroke-width="0.3"><path d="
M 413.00 999.00 
C 423.83 999.01 435.23 997.96 446.00 999.00
C 444.19 998.82 439.88 997.18 438.00 997.00
C 431.34 997.13 424.66 997.00 418.00 997.00
C 416.94 997.16 414.11 998.68 413.00 999.00 Z"/>
</g>
<g fill="None" fill-opacity="0.0" stroke="#080B4B" stroke-opacity="0.12" stroke-width="0.3"><path d="
M 392.00 1000.00 
C 392.02 999.91 393.50 1000.00 394.00 1000.00
C 399.94 1000.00 405.11 999.00 411.00 999.00
C 411.00 999.00 410.95 998.50 411.00 998.00
C 404.46 999.68 398.05 997.12 392.00 1000.00 Z"/>
</g>
<g fill="None" fill-opacity="0.0" stroke="#26349F" stroke-opacity="0.47" stroke-width="0.3"><path d="
M 446.00 999.00 
C 448.69 999.26 452.57 1000.00 456.00 1000.00
C 454.55 999.86 450.27 998.94 449.00 998.00
C 449.00 998.00 448.35 997.77 448.00 998.00
C 447.06 998.63 447.57 999.16 446.00 999.00 Z"/>
</g>
<g fill="None" fill-opacity="0.0" stroke="#060C47" stroke-opacity="0.12" stroke-width="0.3"><path d="
M 456.00 1000.00 
C 458.60 1000.00 461.42 1000.32 464.00 1000.00
C 464.80 999.90 465.70 999.04 466.00 999.00
C 460.91 997.21 454.51 998.00 449.00 998.00
C 450.27 998.94 454.55 999.86 456.00 1000.00 Z"/>
</g>
<g fill="None" fill-opacity="0.0" stroke="#2C42A8" stroke-opacity="0.08" stroke-width="0.3"><path d="
M 464.00 1000.00 
C 465.13 1000.20 467.53 1001.49 469.00 1002.00
C 468.86 1001.54 469.00 1001.00 469.00 1001.00
C 468.52 999.97 467.08 999.38 466.00 999.00
C 465.70 999.04 464.80 999.90 464.00 1000.00 Z"/>
</g>
<g fill="None" fill-opacity="0.0" stroke="#5264C6" stroke-opacity="0.13" stroke-width="0.3"><path d="
M 390.00 1001.00 
C 389.95 1001.50 390.00 1002.00 390.00 1002.00
C 391.60 1001.56 393.69 1000.10 394.00 1000.00
C 393.50 1000.00 392.02 999.91 392.00 1000.00
C 391.93 1000.41 390.11 999.78 390.00 1001.00 Z"/>
</g>
<g fill="None" fill-opacity="0.0" stroke="#0B115D" stroke-opacity="0.09" stroke-width="0.3"><path d="
M 379.00 1004.00 
C 381.51 1003.91 383.57 1003.47 386.00 1003.00
C 387.50 1002.71 388.60 1002.38 390.00 1002.00
C 390.00 1002.00 389.95 1001.50 390.00 1001.00
C 387.85 1001.55 385.37 1001.24 383.03 1001.03 C 380.69 1000.81 380.52 1003.24 379.00 1004.00 Z"/>
</g>
<g fill="None" fill-opacity="0.0" stroke="#020448" stroke-opacity="0.11" stroke-width="0.3"><path d="
M 469.00 1002.00 
C 469.50 1003.60 471.72 1002.95 473.00 1003.00
C 474.33 1003.05 475.67 1003.00 477.00 1003.00
C 477.50 1003.00 478.52 1002.90 479.00 1003.00
C 475.81 1001.27 473.39 1000.59 469.00 1001.00
C 469.00 1001.00 468.86 1001.54 469.00 1002.00 Z"/>
</g>
<g fill="None" fill-opacity="0.0" stroke="#535FBA" stroke-opacity="0.24" stroke-width="0.3"><path d="
M 379.00 1004.00 
C 378.03 1004.03 376.96 1003.86 376.00 1004.00
C 375.76 1004.31 376.25 1005.75 376.00 1006.00
C 379.90 1005.28 382.62 1004.11 386.00 1003.00
C 383.57 1003.47 381.51 1003.91 379.00 1004.00 Z"/>
</g>
<g fill="None" fill-opacity="0.0" stroke="#454DBB" stroke-opacity="0.42" stroke-width="0.3"><path d="
M 480.00 1006.00 
C 479.24 1005.76 477.86 1003.22 477.00 1003.00
C 475.67 1003.00 474.33 1003.05 473.00 1003.00
C 475.29 1003.75 476.78 1005.83 480.00 1006.00 Z"/>
</g>
<g fill="None" fill-opacity="0.0" stroke="#414AB1" stroke-opacity="0.16" stroke-width="0.3"><path d="
M 480.00 1006.00 
C 480.97 1006.05 482.04 1005.84 483.00 1006.00
C 482.79 1005.62 483.00 1005.00 483.00 1005.00
C 482.11 1004.32 480.09 1003.23 479.00 1003.00
C 478.52 1002.90 477.50 1003.00 477.00 1003.00
C 477.86 1003.22 479.24 1005.76 480.00 1006.00 Z"/>
</g>
<g fill="None" fill-opacity="0.0" stroke="#0C1166" stroke-opacity="0.11" stroke-width="0.3"><path d="
M 362.00 1010.00 
C 362.97 1009.85 364.02 1010.10 365.00 1010.00
C 368.75 1009.63 372.15 1006.72 376.00 1006.00
C 376.25 1005.75 375.76 1004.31 376.00 1004.00
C 371.34 1004.70 365.14 1008.68 362.00 1010.00 Z"/>
</g>
<g fill="None" fill-opacity="0.0" stroke="#0E145B" stroke-opacity="0.11" stroke-width="0.3"><path d="
M 483.00 1005.00 
C 483.00 1005.00 482.79 1005.62 483.00 1006.00
C 484.17 1006.19 484.75 1006.86 486.00 1007.00
C 487.23 1007.13 489.70 1005.97 490.00 1006.00
C 488.36 1005.18 484.01 1003.91 483.00 1005.00 Z"/>
</g>
<g fill="None" fill-opacity="0.0" stroke="#4251C3" stroke-opacity="0.21" stroke-width="0.3"><path d="
M 486.00 1007.00 
C 488.64 1008.38 489.58 1008.40 493.00 1009.00
C 492.80 1008.60 493.00 1008.00 493.00 1008.00
C 492.45 1007.40 490.81 1006.40 490.00 1006.00
C 489.70 1005.97 487.23 1007.13 486.00 1007.00 Z"/>
</g>
<g fill="None" fill-opacity="0.0" stroke="#070E50" stroke-opacity="0.09" stroke-width="0.3"><path d="
M 493.00 1009.00 
C 493.01 1009.03 494.83 1009.93 495.00 1010.00
C 500.29 1012.19 505.19 1014.20 510.00 1017.00
C 514.51 1019.62 519.41 1021.83 524.00 1024.00
C 527.37 1025.60 530.54 1027.64 534.00 1029.00
C 530.24 1023.24 519.86 1020.37 514.25 1017.75 C 508.63 1015.13 499.80 1006.88 493.00 1008.00
C 493.00 1008.00 492.80 1008.60 493.00 1009.00 Z"/>
</g>
<g fill="None" fill-opacity="0.0" stroke="#3942A8" stroke-opacity="0.16" stroke-width="0.3"><path d="
M 345.00 1018.00 
C 344.51 1018.39 344.25 1019.47 344.00 1020.00
C 350.37 1017.19 358.32 1013.72 365.00 1010.00
C 364.02 1010.10 362.97 1009.85 362.00 1010.00
C 355.82 1010.93 350.20 1015.04 345.00 1018.00 Z"/>
</g>
<g fill="None" fill-opacity="0.0" stroke="#313D9C" stroke-opacity="0.33" stroke-width="0.3"><path d="
M 510.00 1017.00 
C 505.19 1014.20 500.29 1012.19 495.00 1010.00
C 499.72 1013.23 504.66 1014.85 510.00 1017.00 Z"/>
</g>
<g fill="None" fill-opacity="0.0" stroke="#0B1262" stroke-opacity="0.07" stroke-width="0.3"><path d="
M 337.00 1024.00 
C 337.48 1023.91 338.00 1024.00 338.00 1024.00
C 339.68 1023.39 341.67 1022.17 343.00 1021.00
C 343.26 1020.77 343.88 1020.26 344.00 1020.00
C 344.25 1019.47 344.51 1018.39 345.00 1018.00
C 342.19 1019.60 339.71 1022.19 337.00 1024.00 Z"/>
</g>
<g fill="None" fill-opacity="0.0" stroke="#4550C3" stroke-opacity="0.42" stroke-width="0.3"><path d="
M 338.00 1024.00 
C 337.99 1024.52 336.34 1026.68 336.00 1027.00
C 338.46 1025.38 343.45 1023.24 343.00 1021.00
C 341.67 1022.17 339.68 1023.39 338.00 1024.00 Z"/>
</g>
<g fill="None" fill-opacity="0.0" stroke="#4A55BA" stroke-opacity="0.23" stroke-width="0.3"><path d="
M 335.00 1025.00 
C 333.79 1026.13 332.36 1029.29 331.00 1030.00
C 332.56 1029.43 334.59 1027.93 336.00 1027.00
C 336.34 1026.68 337.99 1024.52 338.00 1024.00
C 338.00 1024.00 337.48 1023.91 337.00 1024.00
C 336.40 1024.11 335.45 1024.58 335.00 1025.00 Z"/>
</g>
<g fill="None" fill-opacity="0.0" stroke="#474FB7" stroke-opacity="0.25" stroke-width="0.3"><path d="
M 524.00 1025.00 
C 525.77 1026.65 529.08 1028.80 531.00 1030.00
C 537.16 1033.05 542.57 1036.36 548.00 1041.00
C 549.99 1042.70 551.96 1043.81 554.00 1045.00
C 553.76 1044.83 554.00 1044.00 554.00 1044.00
C 548.24 1040.40 538.66 1034.62 535.00 1029.00
C 535.00 1029.00 534.43 1029.17 534.00 1029.00
C 530.54 1027.64 527.37 1025.60 524.00 1024.00
C 524.00 1024.00 523.88 1024.53 524.00 1025.00 Z"/>
</g>
<g fill="None" fill-opacity="0.0" stroke="#151C6F" stroke-opacity="0.08" stroke-width="0.3"><path d="
M 327.00 1030.00 
C 327.06 1029.98 329.84 1030.42 331.00 1030.00
C 332.36 1029.29 333.79 1026.13 335.00 1025.00
C 331.75 1025.93 329.76 1027.80 327.00 1030.00 Z"/>
</g>
<g fill="None" fill-opacity="0.0" stroke="#4350DF" stroke-opacity="0.70" stroke-width="0.3"><path d="
M 531.00 1030.00 
C 529.08 1028.80 525.77 1026.65 524.00 1025.00
C 524.65 1027.51 528.95 1028.99 531.00 1030.00 Z"/>
</g>
<g fill="None" fill-opacity="0.0" stroke="#0F175E" stroke-opacity="0.06" stroke-width="0.3"><path d="
M 554.00 1044.00 
C 554.36 1044.22 555.00 1044.00 555.00 1044.00
C 554.53 1042.07 551.55 1041.31 552.00 1039.00
C 545.62 1038.41 540.76 1032.59 535.00 1029.00
C 538.66 1034.62 548.24 1040.40 554.00 1044.00 Z"/>
</g>
<g fill="None" fill-opacity="0.0" stroke="#333FC9" stroke-opacity="0.26" stroke-width="0.3"><path d="
M 569.00 1048.00 
C 569.00 1048.00 569.00 1048.50 569.00 1049.00
C 569.00 1050.67 569.00 1052.33 569.00 1054.00
C 569.00 1054.50 569.12 1055.53 569.00 1056.00
C 568.91 1056.35 568.12 1056.74 568.00 1057.00
C 568.23 1057.16 568.00 1058.00 568.00 1058.00
C 568.16 1058.23 569.92 1058.19 570.00 1058.00
C 572.14 1053.18 570.00 1042.37 570.00 1037.00
C 570.00 1037.00 569.00 1036.96 569.00 1037.00
C 569.00 1040.67 569.00 1044.33 569.00 1048.00 Z"/>
</g>
<g fill="None" fill-opacity="0.0" stroke="#3C48B1" stroke-opacity="0.09" stroke-width="0.3"><path d="
M 300.00 1058.00 
C 299.84 1058.44 300.00 1059.00 300.00 1059.00
C 305.70 1053.53 313.36 1046.63 318.00 1040.00
C 312.85 1040.32 301.95 1052.55 300.00 1058.00 Z"/>
</g>
<g fill="None" fill-opacity="0.0" stroke="#4650D6" stroke-opacity="0.45" stroke-width="0.3"><path d="
M 300.00 1059.00 
C 300.00 1059.50 300.00 1060.00 300.00 1060.00
C 301.41 1061.47 305.59 1054.65 307.00 1053.00
C 310.36 1049.07 314.57 1045.68 318.00 1042.00
C 318.35 1041.42 318.68 1040.63 319.00 1040.00
C 319.00 1040.00 318.50 1039.97 318.00 1040.00
C 313.36 1046.63 305.70 1053.53 300.00 1059.00 Z"/>
</g>
<g fill="None" fill-opacity="0.0" stroke="#525EE4" stroke-opacity="0.53" stroke-width="0.3"><path d="
M 558.00 1048.00 
C 556.60 1046.88 555.39 1045.98 554.00 1045.00
C 551.96 1043.81 549.99 1042.70 548.00 1041.00
C 551.47 1044.47 553.93 1045.57 558.00 1048.00 Z"/>
</g>
<g fill="None" fill-opacity="0.0" stroke="#404DE9" stroke-opacity="0.85" stroke-width="0.3"><path d="
M 307.00 1053.00 
C 310.48 1049.52 315.34 1046.36 318.00 1042.00
C 314.57 1045.68 310.36 1049.07 307.00 1053.00 Z"/>
</g>
<g fill="None" fill-opacity="0.0" stroke="#4056C5" stroke-opacity="0.07" stroke-width="0.3"><path d="
M 554.00 1045.00 
C 555.39 1045.98 556.60 1046.88 558.00 1048.00
C 559.16 1048.93 559.95 1049.93 561.00 1051.00
C 563.01 1053.05 565.69 1055.38 568.00 1057.00
C 568.12 1056.74 568.91 1056.35 569.00 1056.00
C 567.35 1052.25 558.73 1046.32 555.00 1044.00
C 555.00 1044.00 554.36 1044.22 554.00 1044.00
C 554.00 1044.00 553.76 1044.83 554.00 1045.00 Z"/>
</g>
<g fill="None" fill-opacity="0.0" stroke="#00014E" stroke-opacity="0.03" stroke-width="0.3"><path d="
M 569.00 1054.00 
C 569.00 1052.33 569.00 1050.67 569.00 1049.00
C 566.46 1051.24 566.89 1046.11 564.00 1047.00
C 563.62 1050.38 567.47 1051.50 569.00 1054.00 Z"/>
</g>
<g fill="None" fill-opacity="0.0" stroke="#3D4CE8" stroke-opacity="0.78" stroke-width="0.3"><path d="
M 570.00 1058.00 
C 569.92 1058.19 568.16 1058.23 568.00 1058.00
C 565.09 1056.80 562.98 1053.14 561.00 1051.00
C 560.24 1054.37 568.16 1057.49 569.00 1061.00
C 570.15 1060.88 570.36 1058.79 570.00 1058.00 Z"/>
</g>
<g fill="None" fill-opacity="0.0" stroke="#4252E5" stroke-opacity="0.40" stroke-width="0.3"><path d="
M 568.00 1058.00 
C 568.00 1058.00 568.23 1057.16 568.00 1057.00
C 565.69 1055.38 563.01 1053.05 561.00 1051.00
C 562.98 1053.14 565.09 1056.80 568.00 1058.00 Z"/>
</g>
<g fill="None" fill-opacity="0.0" stroke="#10196E" stroke-opacity="0.07" stroke-width="0.3"><path d="
M 294.00 1065.00 
C 296.05 1063.36 298.39 1062.53 300.00 1060.00
C 300.00 1060.00 300.00 1059.50 300.00 1059.00
C 300.00 1059.00 299.84 1058.44 300.00 1058.00
C 298.00 1059.38 294.44 1062.33 294.00 1065.00 Z"/>
</g>
<g fill="None" fill-opacity="0.0" stroke="#141D6F" stroke-opacity="0.07" stroke-width="0.3"><path d="
M 291.00 1073.00 
C 291.41 1071.23 293.44 1069.06 294.00 1067.00
C 291.57 1069.32 291.40 1069.44 291.00 1073.00 Z"/>
</g>
<g fill="None" fill-opacity="0.0" stroke="#050A4D" stroke-opacity="0.15" stroke-width="0.3"><path d="
M 101.00 1076.00 
C 101.50 1076.00 102.50 1075.97 103.00 1076.00
C 113.52 1076.74 124.08 1070.52 135.00 1072.00 C 145.92 1073.48 158.89 1070.19 169.00 1071.00
C 158.12 1067.65 143.32 1071.01 132.00 1070.00 C 120.68 1068.99 110.35 1072.53 101.00 1076.00 Z"/>
</g>
<g fill="None" fill-opacity="0.0" stroke="#ADADAD" stroke-opacity="0.01" stroke-width="0.3"><path d="
M 248.00 1075.00 
C 245.80 1073.77 241.83 1073.19 240.00 1075.00
C 242.70 1074.04 246.25 1076.60 248.00 1075.00 Z"/>
</g>
<g fill="None" fill-opacity="0.0" stroke="#4A51E2" stroke-opacity="0.10" stroke-width="0.3"><path d="
M 97.00 1077.00 
C 96.77 1077.35 97.00 1078.00 97.00 1078.00
C 98.97 1077.51 101.41 1076.37 103.00 1076.00
C 102.50 1075.97 101.50 1076.00 101.00 1076.00
C 99.28 1076.01 98.48 1076.68 97.00 1077.00 Z"/>
</g>
<g fill="None" fill-opacity="0.0" stroke="#111476" stroke-opacity="0.07" stroke-width="0.3"><path d="
M 91.00 1079.00 
C 91.49 1078.93 92.00 1079.00 92.00 1079.00
C 94.09 1079.21 95.21 1078.44 97.00 1078.00
C 97.00 1078.00 96.77 1077.35 97.00 1077.00
C 95.04 1077.43 91.62 1076.08 91.00 1079.00 Z"/>
</g>
<g fill="None" fill-opacity="0.0" stroke="#7277CE" stroke-opacity="0.10" stroke-width="0.3"><path d="
M 87.00 1080.00 
C 86.78 1080.13 87.00 1081.00 87.00 1081.00
C 88.68 1081.35 90.49 1081.21 92.00 1079.00
C 92.00 1079.00 91.49 1078.93 91.00 1079.00
C 89.58 1079.19 88.32 1079.61 87.00 1080.00 Z"/>
</g>
<g fill="None" fill-opacity="0.0" stroke="#181D70" stroke-opacity="0.05" stroke-width="0.3"><path d="
M 82.00 1083.00 
C 83.01 1082.64 85.11 1082.59 86.00 1082.00
C 86.15 1081.66 86.88 1081.26 87.00 1081.00
C 87.00 1081.00 86.78 1080.13 87.00 1080.00
C 84.07 1080.86 84.29 1081.37 82.00 1083.00 Z"/>
</g>
<g fill="None" fill-opacity="0.0" stroke="#0B165F" stroke-opacity="0.11" stroke-width="0.3"><path d="
M 224.00 1087.00 
C 225.71 1087.67 227.18 1088.55 229.00 1089.00
C 229.00 1089.00 229.50 1088.95 230.00 1089.00
C 232.95 1089.28 235.40 1091.70 238.00 1093.00
C 231.53 1084.40 216.30 1081.95 206.00 1080.00
C 210.58 1081.78 218.51 1084.85 224.00 1087.00 Z"/>
</g>
<g fill="None" fill-opacity="0.0" stroke="#4E52C9" stroke-opacity="0.24" stroke-width="0.3"><path d="
M 82.00 1083.00 
C 80.86 1083.40 80.18 1083.74 79.00 1084.00
C 78.65 1084.28 78.01 1085.55 78.00 1086.00
C 80.90 1085.60 84.65 1085.05 86.00 1082.00
C 85.11 1082.59 83.01 1082.64 82.00 1083.00 Z"/>
</g>
<g fill="None" fill-opacity="0.0" stroke="#080F5F" stroke-opacity="0.08" stroke-width="0.3"><path d="
M 74.00 1086.00 
C 74.46 1085.87 75.50 1086.00 76.00 1086.00
C 76.50 1086.00 77.51 1086.07 78.00 1086.00
C 78.01 1085.55 78.65 1084.28 79.00 1084.00
C 76.39 1084.57 75.97 1085.04 74.00 1086.00 Z"/>
</g>
<g fill="None" fill-opacity="0.0" stroke="#4047B4" stroke-opacity="0.17" stroke-width="0.3"><path d="
M 66.00 1091.00 
C 64.55 1092.32 62.55 1094.80 61.00 1096.00
C 66.06 1093.58 72.21 1089.97 76.00 1086.00
C 75.50 1086.00 74.46 1085.87 74.00 1086.00
C 70.38 1087.00 68.58 1088.66 66.00 1091.00 Z"/>
</g>
<g fill="None" fill-opacity="0.0" stroke="#4656DC" stroke-opacity="0.61" stroke-width="0.3"><path d="
M 229.00 1089.00 
C 227.18 1088.55 225.71 1087.67 224.00 1087.00
C 222.48 1085.93 225.05 1091.88 229.00 1089.00 Z"/>
</g>
<g fill="None" fill-opacity="0.0" stroke="#3540AF" stroke-opacity="0.33" stroke-width="0.3"><path d="
M 239.00 1094.00 
C 238.73 1093.87 238.33 1093.17 238.00 1093.00
C 235.40 1091.70 232.95 1089.28 230.00 1089.00
C 231.86 1091.98 237.07 1093.24 239.00 1094.00 Z"/>
</g>
<g fill="None" fill-opacity="0.0" stroke="#101659" stroke-opacity="0.08" stroke-width="0.3"><path d="
M 40.00 1111.00 
C 42.87 1109.97 44.28 1107.32 47.00 1106.00
C 47.40 1105.80 48.00 1106.00 48.00 1106.00
C 50.61 1102.27 54.97 1097.92 59.00 1096.00
C 59.41 1095.81 60.59 1096.19 61.00 1096.00
C 62.55 1094.80 64.55 1092.32 66.00 1091.00
C 56.47 1097.02 47.90 1102.92 40.00 1111.00 Z"/>
</g>
<g fill="None" fill-opacity="0.0" stroke="#4F57BE" stroke-opacity="0.28" stroke-width="0.3"><path d="
M 48.00 1106.00 
C 50.12 1104.96 52.26 1102.49 54.00 1101.00
C 55.62 1099.61 57.35 1097.28 59.00 1096.00
C 54.97 1097.92 50.61 1102.27 48.00 1106.00 Z"/>
</g>
<g fill="None" fill-opacity="0.0" stroke="#404BED" stroke-opacity="0.55" stroke-width="0.3"><path d="
M 285.00 1098.00 
C 284.70 1099.07 284.35 1099.92 284.00 1101.00
C 285.99 1098.10 285.67 1098.89 286.00 1096.00
C 285.99 1096.06 285.11 1097.62 285.00 1098.00 Z"/>
</g>
<g fill="None" fill-opacity="0.0" stroke="#FCFCFC" stroke-opacity="0.02" stroke-width="0.3"><path d="
M 272.00 1097.00 
C 269.86 1096.97 267.41 1097.71 266.00 1099.00
C 268.04 1100.51 270.48 1098.28 272.00 1097.00 Z"/>
</g>
<g fill="None" fill-opacity="0.0" stroke="#3D54F4" stroke-opacity="0.22" stroke-width="0.3"><path d="
M 281.00 1104.00 
C 281.37 1103.39 282.99 1104.08 284.00 1101.00
C 284.35 1099.92 284.70 1099.07 285.00 1098.00
C 284.05 1099.85 281.84 1101.82 281.00 1104.00 Z"/>
</g>
<g fill="None" fill-opacity="0.0" stroke="#4652D8" stroke-opacity="0.60" stroke-width="0.3"><path d="
M 48.00 1106.00 
C 48.00 1106.00 47.40 1105.80 47.00 1106.00
C 45.52 1108.12 43.53 1109.99 42.00 1112.00
C 45.80 1108.17 50.13 1104.87 54.00 1101.00
C 52.26 1102.49 50.12 1104.96 48.00 1106.00 Z"/>
</g>
<g fill="None" fill-opacity="0.0" stroke="#4149B2" stroke-opacity="0.24" stroke-width="0.3"><path d="
M 40.00 1111.00 
C 39.65 1111.13 39.17 1111.67 39.00 1112.00
C 35.92 1118.17 29.58 1123.09 25.00 1128.00
C 24.69 1128.60 24.23 1129.35 24.00 1130.00
C 22.03 1135.47 17.65 1140.09 15.00 1145.00
C 13.84 1148.73 11.94 1151.63 10.00 1155.00
C 9.97 1155.14 10.21 1157.88 10.00 1159.00
C 14.58 1151.55 19.59 1141.64 24.00 1133.00
C 25.84 1129.41 27.15 1127.85 30.00 1125.00
C 33.60 1121.40 35.87 1117.15 40.00 1114.00
C 40.92 1113.30 41.26 1112.96 42.00 1112.00
C 43.53 1109.99 45.52 1108.12 47.00 1106.00
C 44.28 1107.32 42.87 1109.97 40.00 1111.00 Z"/>
</g>
<g fill="None" fill-opacity="0.0" stroke="#414CEE" stroke-opacity="0.46" stroke-width="0.3"><path d="
M 275.00 1113.00 
C 273.92 1112.76 272.94 1111.60 272.00 1111.00
C 271.36 1110.24 271.46 1117.32 275.00 1113.00 Z"/>
</g>
<g fill="None" fill-opacity="0.0" stroke="#3745EA" stroke-opacity="0.36" stroke-width="0.3"><path d="
M 277.00 1113.00 
C 279.51 1116.13 278.56 1112.32 279.00 1111.00
C 279.00 1111.00 276.91 1113.04 277.00 1113.00 Z"/>
</g>
<g fill="None" fill-opacity="0.0" stroke="#040B59" stroke-opacity="0.05" stroke-width="0.3"><path d="
M 25.00 1128.00 
C 29.58 1123.09 35.92 1118.17 39.00 1112.00
C 33.71 1115.99 28.13 1121.90 25.00 1128.00 Z"/>
</g>
<g fill="None" fill-opacity="0.0" stroke="#4651D8" stroke-opacity="0.60" stroke-width="0.3"><path d="
M 30.00 1125.00 
C 33.10 1121.44 36.57 1117.40 40.00 1114.00
C 35.87 1117.15 33.60 1121.40 30.00 1125.00 Z"/>
</g>
<g fill="None" fill-opacity="0.0" stroke="#545DD7" stroke-opacity="0.36" stroke-width="0.3"><path d="
M 24.00 1133.00 
C 25.89 1130.54 27.88 1127.43 30.00 1125.00
C 27.15 1127.85 25.84 1129.41 24.00 1133.00 Z"/>
</g>
<g fill="None" fill-opacity="0.0" stroke="#0C136F" stroke-opacity="0.04" stroke-width="0.3"><path d="
M 15.00 1145.00 
C 17.65 1140.09 22.03 1135.47 24.00 1130.00
C 20.09 1134.88 16.85 1139.07 15.00 1145.00 Z"/>
</g>
<g fill="None" fill-opacity="0.0" stroke="#09116B" stroke-opacity="0.07" stroke-width="0.3"><path d="
M 8.00 1162.00 
C 8.21 1161.79 9.95 1161.12 10.00 1161.00
C 10.04 1160.50 9.91 1159.48 10.00 1159.00
C 10.21 1157.88 9.97 1155.14 10.00 1155.00
C 8.45 1157.69 8.61 1158.52 8.00 1162.00 Z"/>
</g>
<g fill="None" fill-opacity="0.0" stroke="#4550C5" stroke-opacity="0.31" stroke-width="0.3"><path d="
M 8.00 1162.00 
C 7.66 1162.34 7.32 1163.54 7.00 1164.00
C 6.81 1165.42 7.95 1165.75 8.00 1167.00
C 8.38 1166.29 9.74 1164.23 10.00 1161.00
C 9.95 1161.12 8.21 1161.79 8.00 1162.00 Z"/>
</g>
<g fill="None" fill-opacity="0.0" stroke="#060B49" stroke-opacity="0.13" stroke-width="0.3"><path d="
M 5.00 1172.00 
C 5.32 1171.67 6.83 1171.27 7.00 1171.00
C 7.12 1170.24 8.00 1167.13 8.00 1167.00
C 7.95 1165.75 6.81 1165.42 7.00 1164.00
C 5.03 1166.89 5.93 1168.41 5.00 1172.00 Z"/>
</g>
<g fill="None" fill-opacity="0.0" stroke="#4F52BB" stroke-opacity="0.25" stroke-width="0.3"><path d="
M 5.00 1172.00 
C 4.70 1173.17 4.19 1173.77 4.00 1175.00
C 3.70 1176.94 4.14 1179.04 4.00 1181.00
C 4.88 1177.99 6.46 1174.50 7.00 1171.00
C 6.83 1171.27 5.32 1171.67 5.00 1172.00 Z"/>
</g>
<g fill="None" fill-opacity="0.0" stroke="#070B65" stroke-opacity="0.10" stroke-width="0.3"><path d="
M 1.00 1190.00 
C 1.23 1189.78 2.94 1189.14 3.00 1189.00
C 3.41 1186.32 3.81 1183.60 4.00 1181.00
C 4.14 1179.04 3.70 1176.94 4.00 1175.00
C 1.24 1180.24 1.91 1183.68 1.00 1190.00 Z"/>
</g>
<g fill="None" fill-opacity="0.0" stroke="#4450E4" stroke-opacity="0.15" stroke-width="0.3"><path d="
M 1.00 1190.00 
C 0.74 1190.24 0.34 1190.84 0.00 1191.00
L 0.00 1198.00
C 0.88 1197.12 1.57 1195.36 2.00 1194.00
C 2.55 1192.28 2.73 1190.78 3.00 1189.00
C 2.94 1189.14 1.23 1189.78 1.00 1190.00 Z"/>
</g>
<g fill="None" fill-opacity="0.0" stroke="#3F4CE7" stroke-opacity="0.46" stroke-width="0.3"><path d="
M 0.00 1198.00 
L 0.00 1210.00
C 0.84 1208.60 1.64 1205.47 2.00 1204.00
C 2.80 1200.73 1.93 1197.00 2.00 1194.00
C 1.57 1195.36 0.88 1197.12 0.00 1198.00 Z"/>
</g>
<g fill="None" fill-opacity="0.0" stroke="#3D4DEC" stroke-opacity="0.66" stroke-width="0.3"><path d="
M 0.00 1210.00 
L 0.00 1230.00
C 0.36 1231.02 2.62 1230.52 3.00 1231.00
C 2.33 1222.19 1.13 1213.03 2.00 1204.00
C 1.64 1205.47 0.84 1208.60 0.00 1210.00 Z"/>
</g>
<g fill="None" fill-opacity="0.0" stroke="#3E4BEA" stroke-opacity="0.43" stroke-width="0.3"><path d="
M 0.00 1237.00 
C 1.47 1237.83 3.25 1239.07 3.00 1241.00
L 569.00 1241.00
C 569.00 1240.00 569.00 1239.00 569.00 1238.00
C 555.33 1238.00 541.67 1238.00 528.00 1238.00 C 514.33 1238.00 500.67 1238.00 487.00 1238.00 C 473.33 1238.00 459.67 1238.00 446.00 1238.00 C 432.33 1238.00 418.66 1238.00 405.00 1238.00 C 391.34 1238.00 377.66 1238.00 364.00 1238.00 C 350.34 1238.00 336.66 1238.00 323.00 1238.00 C 309.34 1238.00 295.65 1238.01 282.00 1238.00 C 268.35 1237.99 254.62 1238.02 241.00 1238.00 C 227.38 1237.98 213.57 1238.05 200.00 1238.00 C 186.43 1237.95 172.46 1238.11 159.00 1238.00 C 145.54 1237.89 131.20 1238.24 118.00 1238.00 C 104.80 1237.76 89.63 1238.54 77.00 1238.00 C 64.37 1237.46 47.38 1239.20 36.00 1238.00 C 24.62 1236.80 3.98 1243.75 3.00 1231.00
C 2.62 1230.52 0.36 1231.02 0.00 1230.00
L 0.00 1237.00 Z"/>
</g>
<g fill="None" fill-opacity="0.0" stroke="#3545C6" stroke-opacity="0.07" stroke-width="0.3"><path d="
M 0.00 1241.00 
L 3.00 1241.00
C 3.25 1239.07 1.47 1237.83 0.00 1237.00
L 0.00 1241.00 Z"/>
</g>
<g fill="None" fill-opacity="0.0" stroke="#5463F3" stroke-opacity="0.70" stroke-width="0.3"><path d="
M 582.00 1238.00 
C 585.09 1237.71 589.71 1237.41 592.00 1239.00
C 593.18 1236.05 584.62 1236.76 582.00 1237.00
C 582.00 1237.00 582.00 1237.50 582.00 1238.00 Z"/>
</g>
<g fill="None" fill-opacity="0.0" stroke="#5462F3" stroke-opacity="0.50" stroke-width="0.3"><path d="
M 582.00 1239.00 
C 584.75 1239.25 589.51 1237.89 592.00 1239.00
C 589.71 1237.41 585.09 1237.71 582.00 1238.00
C 582.00 1238.00 582.00 1238.50 582.00 1239.00 Z"/>
</g>
<g fill="None" fill-opacity="0.0" stroke="#5261F2" stroke-opacity="0.33" stroke-width="0.3"><path d="
M 582.00 1241.00 
L 592.00 1241.00
C 592.00 1240.50 591.83 1239.43 592.00 1239.00
C 589.51 1237.89 584.75 1239.25 582.00 1239.00
C 582.00 1239.50 582.00 1240.50 582.00 1241.00 Z"/>
</g>
<g fill="#000000" fill-opacity="0.00" stroke="None">
<path d="
M 0.00 1191.00 
C 0.34 1190.84 0.74 1190.24 1.00 1190.00
C 1.91 1183.68 1.24 1180.24 4.00 1175.00
C 4.19 1173.77 4.70 1173.17 5.00 1172.00
C 5.93 1168.41 5.03 1166.89 7.00 1164.00
C 7.32 1163.54 7.66 1162.34 8.00 1162.00
C 8.61 1158.52 8.45 1157.69 10.00 1155.00
C 11.94 1151.63 13.84 1148.73 15.00 1145.00
C 16.85 1139.07 20.09 1134.88 24.00 1130.00
C 24.23 1129.35 24.69 1128.60 25.00 1128.00
C 28.13 1121.90 33.71 1115.99 39.00 1112.00
C 39.17 1111.67 39.65 1111.13 40.00 1111.00
C 47.90 1102.92 56.47 1097.02 66.00 1091.00
C 68.58 1088.66 70.38 1087.00 74.00 1086.00
C 75.97 1085.04 76.39 1084.57 79.00 1084.00
C 80.18 1083.74 80.86 1083.40 82.00 1083.00
C 84.29 1081.37 84.07 1080.86 87.00 1080.00
C 88.32 1079.61 89.58 1079.19 91.00 1079.00
C 91.62 1076.08 95.04 1077.43 97.00 1077.00
C 98.48 1076.68 99.28 1076.01 101.00 1076.00
C 110.35 1072.53 120.68 1068.99 132.00 1070.00 C 143.32 1071.01 158.12 1067.65 169.00 1071.00
C 181.21 1074.76 193.36 1077.61 206.00 1080.00
C 216.30 1081.95 231.53 1084.40 238.00 1093.00
C 238.33 1093.17 238.73 1093.87 239.00 1094.00
C 249.98 1099.45 261.78 1104.49 272.00 1111.00
C 272.94 1111.60 273.92 1112.76 275.00 1113.00
C 275.48 1113.11 276.56 1113.17 277.00 1113.00
C 276.91 1113.04 279.00 1111.00 279.00 1111.00
C 280.91 1108.78 280.07 1106.39 281.00 1104.00
C 281.84 1101.82 284.05 1099.85 285.00 1098.00
C 285.11 1097.62 285.99 1096.06 286.00 1096.00
C 287.65 1088.09 290.06 1081.44 291.00 1073.00
C 291.40 1069.44 291.57 1069.32 294.00 1067.00
C 294.13 1066.53 293.92 1065.49 294.00 1065.00
C 294.44 1062.33 298.00 1059.38 300.00 1058.00
C 301.95 1052.55 312.85 1040.32 318.00 1040.00
C 318.50 1039.97 319.00 1040.00 319.00 1040.00
C 321.16 1035.78 323.50 1032.79 327.00 1030.00
C 329.76 1027.80 331.75 1025.93 335.00 1025.00
C 335.45 1024.58 336.40 1024.11 337.00 1024.00
C 339.71 1022.19 342.19 1019.60 345.00 1018.00
C 350.20 1015.04 355.82 1010.93 362.00 1010.00
C 365.14 1008.68 371.34 1004.70 376.00 1004.00
C 376.96 1003.86 378.03 1004.03 379.00 1004.00
C 380.52 1003.24 380.69 1000.81 383.03 1001.03 C 385.37 1001.24 387.85 1001.55 390.00 1001.00
C 390.11 999.78 391.93 1000.41 392.00 1000.00
C 398.05 997.12 404.46 999.68 411.00 998.00
C 411.10 996.97 412.28 997.11 413.00 997.00
C 413.81 996.62 413.75 996.15 415.00 996.00
C 421.65 993.29 436.36 993.90 444.00 995.00
C 444.35 995.05 444.74 995.78 445.00 996.00
C 445.93 996.77 447.13 997.35 448.00 998.00
C 448.35 997.77 449.00 998.00 449.00 998.00
C 454.51 998.00 460.91 997.21 466.00 999.00
C 467.08 999.38 468.52 999.97 469.00 1001.00
C 473.39 1000.59 475.81 1001.27 479.00 1003.00
C 480.09 1003.23 482.11 1004.32 483.00 1005.00
C 484.01 1003.91 488.36 1005.18 490.00 1006.00
C 490.81 1006.40 492.45 1007.40 493.00 1008.00
C 499.80 1006.88 508.63 1015.13 514.25 1017.75 C 519.86 1020.37 530.24 1023.24 534.00 1029.00
C 534.43 1029.17 535.00 1029.00 535.00 1029.00
C 540.76 1032.59 545.62 1038.41 552.00 1039.00
C 551.55 1041.31 554.53 1042.07 555.00 1044.00
C 558.73 1046.32 567.35 1052.25 569.00 1056.00
C 569.12 1055.53 569.00 1054.50 569.00 1054.00
C 567.47 1051.50 563.62 1050.38 564.00 1047.00
C 566.89 1046.11 566.46 1051.24 569.00 1049.00
C 569.00 1048.50 569.00 1048.00 569.00 1048.00
C 563.94 1041.16 569.57 1027.99 568.00 1019.00 C 566.43 1010.01 568.73 997.64 568.00 988.00 C 567.27 978.36 568.32 967.97 568.00 958.00 C 567.68 948.03 568.14 937.14 568.00 927.00 C 567.86 916.86 568.07 906.17 568.00 896.00 C 567.93 885.83 568.03 876.21 568.00 866.00 C 567.97 855.79 568.01 845.27 568.00 835.00 C 567.99 824.73 568.01 814.29 568.00 804.00
C 564.20 801.34 554.85 805.00 550.00 804.00 C 545.15 803.00 537.14 804.00 532.00 804.00
C 527.42 804.00 521.44 804.71 517.00 804.00 C 512.56 803.29 505.92 805.89 502.00 804.00
C 499.09 802.59 500.54 801.21 500.00 798.00
C 497.80 784.96 497.53 769.52 498.00 755.00
C 757.58 755.62 1016.63 754.20 1276.00 754.00
C 1278.10 753.80 1281.23 753.00 1284.00 753.00
C 1343.00 753.00 1402.00 753.00 1461.00 753.00
C 1470.97 753.00 1481.03 753.38 1491.00 753.00
C 1539.18 751.16 1588.41 752.00 1637.00 752.00
C 1654.68 752.00 1672.10 751.00 1690.00 751.00
C 1697.00 751.00 1704.00 751.00 1711.00 751.00
C 1745.94 751.00 1780.11 750.00 1815.00 750.00
C 1830.66 750.00 1847.46 751.78 1863.00 750.00
C 1864.47 749.83 1866.90 749.06 1869.00 749.00
C 1896.62 748.22 1924.37 749.00 1952.00 749.00
C 1954.67 749.00 1957.33 749.00 1960.00 749.00
C 1963.73 748.64 1968.59 748.00 1973.00 748.00
C 1976.00 748.00 1979.00 748.00 1982.00 748.00
C 1984.33 748.00 1986.67 748.00 1989.00 748.00
C 1993.00 748.00 1997.00 748.00 2001.00 748.00
C 2021.33 748.00 2041.67 748.00 2062.00 748.00
L 2062.00 0.00
L 0.00 0.00
L 0.00 1191.00
M 248.00 1075.00 
C 246.25 1076.60 242.70 1074.04 240.00 1075.00
C 241.83 1073.19 245.80 1073.77 248.00 1075.00
M 272.00 1097.00 
C 270.48 1098.28 268.04 1100.51 266.00 1099.00
C 267.41 1097.71 269.86 1096.97 272.00 1097.00 Z"/>
</g>
<g fill="#0000FF" fill-opacity="0.00" stroke="None">
<path d="
M 1960.00 749.00 
C 1962.67 749.00 1965.33 749.00 1968.00 749.00
C 1969.67 749.00 1971.33 749.00 1973.00 749.00
C 1973.15 748.95 1973.00 748.00 1973.00 748.00
C 1968.59 748.00 1963.73 748.64 1960.00 749.00 Z"/>
</g>
<g fill="#000080" fill-opacity="0.01" stroke="None">
<path d="
M 1973.00 749.00 
C 1976.00 749.00 1979.00 749.00 1982.00 749.00
C 1981.85 748.95 1982.00 748.00 1982.00 748.00
C 1979.00 748.00 1976.00 748.00 1973.00 748.00
C 1973.00 748.00 1973.15 748.95 1973.00 749.00 Z"/>
</g>
<g fill="#0000E6" fill-opacity="0.01" stroke="None">
<path d="
M 1982.00 749.00 
C 1983.67 749.00 1985.33 749.00 1987.00 749.00
C 1987.50 749.00 1988.50 749.00 1989.00 749.00
C 1989.23 748.66 1989.00 748.00 1989.00 748.00
C 1986.67 748.00 1984.33 748.00 1982.00 748.00
C 1982.00 748.00 1981.85 748.95 1982.00 749.00 Z"/>
</g>
<g fill="#0055AA" fill-opacity="0.01" stroke="None">
<path d="
M 1989.00 749.00 
C 1992.95 749.00 1997.07 749.35 2001.00 749.00
C 2000.84 748.94 2001.00 748.00 2001.00 748.00
C 1997.00 748.00 1993.00 748.00 1989.00 748.00
C 1989.00 748.00 1989.23 748.66 1989.00 749.00 Z"/>
</g>
<g fill="#222FB3" fill-opacity="0.99" stroke="None">
<path d="
M 2001.00 749.00 
C 2004.23 750.21 1990.17 750.00 1987.00 750.00
C 1980.67 750.00 1974.33 750.00 1968.00 750.00
C 1962.61 750.00 1956.64 749.45 1952.00 749.00
C 1924.37 749.00 1896.62 748.22 1869.00 749.00
C 1872.23 749.22 1877.05 750.92 1881.00 750.00
C 1876.08 751.62 1867.85 751.69 1863.00 750.00
C 1847.46 751.78 1830.66 750.00 1815.00 750.00
C 1784.74 752.93 1752.27 753.00 1721.00 753.00
C 1711.92 753.00 1701.22 754.04 1693.00 752.00
C 1691.66 751.88 1690.79 751.17 1690.00 751.00
C 1672.10 751.00 1654.68 752.00 1637.00 752.00
C 1589.82 756.57 1539.36 754.00 1491.00 754.00
C 1481.01 754.00 1470.22 753.89 1461.00 753.00
C 1402.00 753.00 1343.00 753.00 1284.00 753.00
C 1281.91 753.20 1278.77 754.00 1276.00 754.00
C 1016.63 754.20 757.58 755.62 498.00 755.00
C 497.53 769.52 497.80 784.96 500.00 798.00
C 500.08 797.07 501.23 793.81 502.00 793.00
C 502.00 796.67 502.00 800.33 502.00 804.00
C 505.92 805.89 512.56 803.29 517.00 804.00 C 521.44 804.71 527.42 804.00 532.00 804.00
C 544.01 802.84 557.68 802.84 570.00 804.00
C 596.77 806.51 624.62 801.22 652.00 803.00 C 679.38 804.78 707.46 802.15 735.00 803.00 C 762.54 803.85 790.39 802.51 818.00 803.00 C 845.61 803.49 873.37 802.56 901.00 803.00 C 928.63 803.44 955.63 802.73 983.00 802.00 C 1010.37 801.27 1039.58 802.18 1067.00 802.00 C 1094.42 801.82 1122.80 801.73 1150.00 802.00 C 1177.20 802.27 1203.32 802.09 1231.00 802.00 C 1258.68 801.91 1286.32 802.24 1314.00 802.00 C 1341.68 801.76 1368.33 803.11 1396.00 803.00 C 1423.67 802.89 1451.25 803.05 1479.00 803.00 C 1506.75 802.95 1535.24 803.02 1563.00 803.00 C 1590.76 802.98 1618.29 803.01 1646.00 803.00 C 1673.71 802.99 1701.30 803.00 1729.00 803.00 C 1756.70 803.00 1784.30 803.00 1812.00 803.00 C 1839.70 803.00 1867.27 803.00 1895.00 803.00 C 1922.73 803.00 1950.20 803.00 1978.00 803.00 C 2005.80 803.00 2034.15 803.00 2062.00 803.00
L 2062.00 748.00
C 2041.67 748.00 2021.33 748.00 2001.00 748.00
C 2001.00 748.00 2000.84 748.94 2001.00 749.00 Z"/>
</g>
<g fill="#1A33B5" fill-opacity="0.32" stroke="None">
<path d="
M 1863.00 750.00 
C 1867.85 751.69 1876.08 751.62 1881.00 750.00
C 1877.05 750.92 1872.23 749.22 1869.00 749.00
C 1866.90 749.06 1864.47 749.83 1863.00 750.00 Z"/>
</g>
<g fill="#2130B2" fill-opacity="0.28" stroke="None">
<path d="
M 1968.00 750.00 
C 1967.96 750.00 1968.00 749.00 1968.00 749.00
C 1965.33 749.00 1962.67 749.00 1960.00 749.00
C 1957.33 749.00 1954.67 749.00 1952.00 749.00
C 1956.64 749.45 1962.61 750.00 1968.00 750.00 Z"/>
</g>
<g fill="#2130B2" fill-opacity="0.44" stroke="None">
<path d="
M 1968.00 750.00 
C 1974.33 750.00 1980.67 750.00 1987.00 750.00
C 1986.95 750.00 1987.00 749.00 1987.00 749.00
C 1985.33 749.00 1983.67 749.00 1982.00 749.00
C 1979.00 749.00 1976.00 749.00 1973.00 749.00
C 1971.33 749.00 1969.67 749.00 1968.00 749.00
C 1968.00 749.00 1967.96 750.00 1968.00 750.00 Z"/>
</g>
<g fill="#2230B3" fill-opacity="0.61" stroke="None">
<path d="
M 1987.00 750.00 
C 1990.17 750.00 2004.23 750.21 2001.00 749.00
C 1997.07 749.35 1992.95 749.00 1989.00 749.00
C 1988.50 749.00 1987.50 749.00 1987.00 749.00
C 1987.00 749.00 1986.95 750.00 1987.00 750.00 Z"/>
</g>
<g fill="#2131B3" fill-opacity="0.47" stroke="None">
<path d="
M 1711.00 751.00 
C 1711.04 751.00 1711.00 752.00 1711.00 752.00
C 1714.43 752.00 1718.31 752.74 1721.00 753.00
C 1752.27 753.00 1784.74 752.93 1815.00 750.00
C 1780.11 750.00 1745.94 751.00 1711.00 751.00 Z"/>
</g>
<g fill="#2230B2" fill-opacity="0.22" stroke="None">
<path d="
M 1693.00 752.00 
C 1698.90 752.51 1705.08 752.00 1711.00 752.00
C 1711.00 752.00 1711.04 751.00 1711.00 751.00
C 1704.00 751.00 1697.00 751.00 1690.00 751.00
C 1690.79 751.17 1691.66 751.88 1693.00 752.00 Z"/>
</g>
<g fill="#2130B3" fill-opacity="0.57" stroke="None">
<path d="
M 1491.00 753.00 
C 1491.02 753.00 1491.00 754.00 1491.00 754.00
C 1539.36 754.00 1589.82 756.57 1637.00 752.00
C 1588.41 752.00 1539.18 751.16 1491.00 753.00 Z"/>
</g>
<g fill="#2130B2" fill-opacity="0.83" stroke="None">
<path d="
M 1721.00 753.00 
C 1718.31 752.74 1714.43 752.00 1711.00 752.00
C 1705.08 752.00 1698.90 752.51 1693.00 752.00
C 1701.22 754.04 1711.92 753.00 1721.00 753.00 Z"/>
</g>
<g fill="#2847B7" fill-opacity="0.03" stroke="None">
<path d="
M 1276.00 754.00 
C 1278.77 754.00 1281.91 753.20 1284.00 753.00
C 1281.23 753.00 1278.10 753.80 1276.00 754.00 Z"/>
</g>
<g fill="#222FB2" fill-opacity="0.75" stroke="None">
<path d="
M 1491.00 754.00 
C 1491.00 754.00 1491.02 753.00 1491.00 753.00
C 1481.03 753.38 1470.97 753.00 1461.00 753.00
C 1470.22 753.89 1481.01 754.00 1491.00 754.00 Z"/>
</g>
<g fill="#1628C0" fill-opacity="0.22" stroke="None">
<path d="
M 500.00 798.00 
C 500.54 801.21 499.09 802.59 502.00 804.00
C 502.00 800.33 502.00 796.67 502.00 793.00
C 501.23 793.81 500.08 797.07 500.00 798.00 Z"/>
</g>
<g fill="#414EDE" fill-opacity="1.00" stroke="None">
<path d="
M 570.00 804.00 
C 573.35 808.74 568.26 819.08 570.00 825.00 C 571.74 830.92 570.71 838.30 571.00 845.00 C 571.29 851.70 570.86 860.07 571.00 867.00 C 571.14 873.93 570.94 880.99 571.00 888.00 C 571.06 895.01 570.97 901.91 571.00 909.00 C 571.03 916.09 570.97 923.88 571.00 931.00 C 571.03 938.12 570.96 944.90 571.00 952.00 C 571.04 959.10 570.93 965.86 571.00 973.00 C 571.07 980.14 570.85 987.85 571.00 995.00 C 571.15 1002.15 569.87 1007.82 570.00 1015.00 C 570.13 1022.18 570.00 1029.78 570.00 1037.00
C 570.00 1042.37 572.14 1053.18 570.00 1058.00
C 570.36 1058.79 570.15 1060.88 569.00 1061.00
C 568.16 1057.49 560.24 1054.37 561.00 1051.00
C 559.95 1049.93 559.16 1048.93 558.00 1048.00
C 553.93 1045.57 551.47 1044.47 548.00 1041.00
C 542.57 1036.36 537.16 1033.05 531.00 1030.00
C 528.95 1028.99 524.65 1027.51 524.00 1025.00
C 523.88 1024.53 524.00 1024.00 524.00 1024.00
C 519.41 1021.83 514.51 1019.62 510.00 1017.00
C 504.66 1014.85 499.72 1013.23 495.00 1010.00
C 494.83 1009.93 493.01 1009.03 493.00 1009.00
C 489.58 1008.40 488.64 1008.38 486.00 1007.00
C 484.75 1006.86 484.17 1006.19 483.00 1006.00
C 482.04 1005.84 480.97 1006.05 480.00 1006.00
C 476.78 1005.83 475.29 1003.75 473.00 1003.00
C 471.72 1002.95 469.50 1003.60 469.00 1002.00
C 467.53 1001.49 465.13 1000.20 464.00 1000.00
C 461.42 1000.32 458.60 1000.00 456.00 1000.00
C 452.57 1000.00 448.69 999.26 446.00 999.00
C 435.23 997.96 423.83 999.01 413.00 999.00
C 412.50 999.00 411.50 999.00 411.00 999.00
C 405.11 999.00 399.94 1000.00 394.00 1000.00
C 393.69 1000.10 391.60 1001.56 390.00 1002.00
C 388.60 1002.38 387.50 1002.71 386.00 1003.00
C 382.62 1004.11 379.90 1005.28 376.00 1006.00
C 372.15 1006.72 368.75 1009.63 365.00 1010.00
C 358.32 1013.72 350.37 1017.19 344.00 1020.00
C 343.88 1020.26 343.26 1020.77 343.00 1021.00
C 343.45 1023.24 338.46 1025.38 336.00 1027.00
C 334.59 1027.93 332.56 1029.43 331.00 1030.00
C 329.84 1030.42 327.06 1029.98 327.00 1030.00
C 323.50 1032.79 321.16 1035.78 319.00 1040.00
C 318.68 1040.63 318.35 1041.42 318.00 1042.00
C 315.34 1046.36 310.48 1049.52 307.00 1053.00
C 305.59 1054.65 301.41 1061.47 300.00 1060.00
C 298.39 1062.53 296.05 1063.36 294.00 1065.00
C 293.92 1065.49 294.13 1066.53 294.00 1067.00
C 293.44 1069.06 291.41 1071.23 291.00 1073.00
C 290.06 1081.44 287.65 1088.09 286.00 1096.00
C 285.67 1098.89 285.99 1098.10 284.00 1101.00
C 282.99 1104.08 281.37 1103.39 281.00 1104.00
C 280.07 1106.39 280.91 1108.78 279.00 1111.00
C 278.56 1112.32 279.51 1116.13 277.00 1113.00
C 276.56 1113.17 275.48 1113.11 275.00 1113.00
C 271.46 1117.32 271.36 1110.24 272.00 1111.00
C 261.78 1104.49 249.98 1099.45 239.00 1094.00
C 237.07 1093.24 231.86 1091.98 230.00 1089.00
C 229.50 1088.95 229.00 1089.00 229.00 1089.00
C 225.05 1091.88 222.48 1085.93 224.00 1087.00
C 218.51 1084.85 210.58 1081.78 206.00 1080.00
C 193.36 1077.61 181.21 1074.76 169.00 1071.00
C 158.89 1070.19 145.92 1073.48 135.00 1072.00 C 124.08 1070.52 113.52 1076.74 103.00 1076.00
C 101.41 1076.37 98.97 1077.51 97.00 1078.00
C 95.21 1078.44 94.09 1079.21 92.00 1079.00
C 90.49 1081.21 88.68 1081.35 87.00 1081.00
C 86.88 1081.26 86.15 1081.66 86.00 1082.00
C 84.65 1085.05 80.90 1085.60 78.00 1086.00
C 77.51 1086.07 76.50 1086.00 76.00 1086.00
C 72.21 1089.97 66.06 1093.58 61.00 1096.00
C 60.59 1096.19 59.41 1095.81 59.00 1096.00
C 57.35 1097.28 55.62 1099.61 54.00 1101.00
C 50.13 1104.87 45.80 1108.17 42.00 1112.00
C 41.26 1112.96 40.92 1113.30 40.00 1114.00
C 36.57 1117.40 33.10 1121.44 30.00 1125.00
C 27.88 1127.43 25.89 1130.54 24.00 1133.00
C 19.59 1141.64 14.58 1151.55 10.00 1159.00
C 9.91 1159.48 10.04 1160.50 10.00 1161.00
C 9.74 1164.23 8.38 1166.29 8.00 1167.00
C 8.00 1167.13 7.12 1170.24 7.00 1171.00
C 6.46 1174.50 4.88 1177.99 4.00 1181.00
C 3.81 1183.60 3.41 1186.32 3.00 1189.00
C 2.73 1190.78 2.55 1192.28 2.00 1194.00
C 1.93 1197.00 2.80 1200.73 2.00 1204.00
C 1.13 1213.03 2.33 1222.19 3.00 1231.00
C 3.98 1243.75 24.62 1236.80 36.00 1238.00 C 47.38 1239.20 64.37 1237.46 77.00 1238.00 C 89.63 1238.54 104.80 1237.76 118.00 1238.00 C 131.20 1238.24 145.54 1237.89 159.00 1238.00 C 172.46 1238.11 186.43 1237.95 200.00 1238.00 C 213.57 1238.05 227.38 1237.98 241.00 1238.00 C 254.62 1238.02 268.35 1237.99 282.00 1238.00 C 295.65 1238.01 309.34 1238.00 323.00 1238.00 C 336.66 1238.00 350.34 1238.00 364.00 1238.00 C 377.66 1238.00 391.34 1238.00 405.00 1238.00 C 418.66 1238.00 432.33 1238.00 446.00 1238.00 C 459.67 1238.00 473.33 1238.00 487.00 1238.00 C 500.67 1238.00 514.33 1238.00 528.00 1238.00 C 541.67 1238.00 555.33 1238.00 569.00 1238.00
C 569.00 1239.00 569.00 1240.00 569.00 1241.00
L 582.00 1241.00
C 582.00 1240.50 582.00 1239.50 582.00 1239.00
C 582.00 1238.50 582.00 1238.00 582.00 1238.00
C 582.00 1237.50 582.00 1237.00 582.00 1237.00
C 587.70 1227.03 581.10 1211.63 583.00 1200.00 C 584.90 1188.37 582.15 1174.30 583.00 1162.00 C 583.85 1149.70 582.58 1135.58 583.00 1123.00 C 583.42 1110.42 582.76 1097.70 583.00 1085.00 C 583.24 1072.30 582.76 1058.72 583.00 1046.00 C 583.24 1033.28 582.60 1020.65 583.00 1008.00 C 583.40 995.35 584.35 982.86 584.00 970.00 C 583.65 957.14 584.18 944.87 584.00 932.00 C 583.82 919.13 584.14 905.90 584.00 893.00
C 595.91 894.22 608.26 895.22 620.01 896.99 C 631.75 898.76 644.20 899.88 656.00 901.00 C 667.80 902.12 679.56 904.61 691.07 905.93 C 702.59 907.25 716.28 907.50 727.02 909.98 C 737.77 912.45 756.14 907.43 756.00 921.00 C 755.86 934.57 756.19 947.48 756.00 961.00 C 755.81 974.52 756.36 988.51 756.00 1002.00 C 755.64 1015.49 756.88 1027.70 757.00 1041.00 C 757.12 1054.30 756.99 1067.67 757.00 1081.00 C 757.01 1094.33 757.10 1107.65 757.00 1121.00 C 756.90 1134.35 757.28 1147.61 757.00 1161.00 C 756.72 1174.39 757.36 1186.77 758.00 1200.00 C 758.64 1213.23 757.52 1227.66 758.00 1241.00
L 771.00 1241.00
C 769.67 1132.51 770.25 1023.51 769.00 915.00
C 833.58 920.97 897.76 928.61 963.00 932.00
C 962.61 1035.18 964.77 1137.72 964.00 1241.00
L 978.00 1241.00
C 977.92 1138.52 977.38 1036.15 976.00 934.00
C 1037.47 936.75 1098.62 940.85 1161.00 940.00
C 1162.06 1040.23 1162.16 1140.71 1163.00 1241.00
L 1176.00 1241.00
C 1175.91 1140.94 1174.34 1041.24 1175.00 941.00
C 1235.92 940.35 1297.50 942.32 1358.00 940.00
C 1358.94 1040.26 1360.57 1140.36 1360.00 1241.00
L 1373.00 1241.00
C 1373.73 1140.40 1371.35 1040.58 1372.00 940.00
C 1383.45 939.86 1394.52 940.19 1406.00 940.00 C 1417.48 939.81 1428.38 940.36 1440.00 940.00 C 1451.62 939.64 1463.18 940.75 1475.00 940.00 C 1486.82 939.25 1495.90 941.79 1508.00 941.00 C 1520.10 940.21 1528.10 942.63 1541.00 942.00 C 1553.90 941.37 1551.46 955.52 1551.00 967.00 C 1550.54 978.48 1551.49 989.55 1551.00 1001.00 C 1550.51 1012.45 1551.66 1022.70 1552.00 1034.00 C 1552.34 1045.30 1551.84 1057.62 1552.00 1069.00 C 1552.16 1080.38 1551.93 1091.61 1552.00 1103.00 C 1552.07 1114.39 1551.97 1125.56 1552.00 1137.00 C 1552.03 1148.44 1551.98 1160.56 1552.00 1172.00 C 1552.02 1183.44 1551.99 1194.61 1552.00 1206.00 C 1552.01 1217.39 1551.99 1228.62 1552.00 1240.00
L 1566.00 1241.00
C 1564.83 1141.46 1565.54 1041.45 1564.00 942.00
C 1620.08 943.68 1675.56 947.72 1731.00 952.00
C 1731.55 1048.27 1732.46 1144.47 1732.00 1241.00
L 1746.00 1241.00
C 1745.97 1145.26 1744.32 1049.92 1745.00 954.00
C 1805.55 958.45 1865.08 966.95 1925.00 974.00
C 1925.12 983.29 1924.84 992.73 1925.00 1002.00 C 1925.16 1011.27 1924.68 1020.78 1925.00 1030.00 C 1925.32 1039.22 1924.32 1048.91 1925.00 1058.00 C 1925.68 1067.09 1926.32 1075.65 1926.00 1085.00 C 1925.68 1094.35 1926.18 1103.63 1926.00 1113.00 C 1925.82 1122.37 1926.17 1131.60 1926.00 1141.00 C 1925.83 1150.40 1926.26 1159.52 1926.00 1169.00 C 1925.74 1178.48 1926.53 1187.34 1926.00 1197.00 C 1925.47 1206.66 1927.15 1214.95 1926.00 1225.00 C 1924.85 1235.05 1927.48 1242.76 1940.00 1239.00
C 1940.19 1151.54 1938.25 1064.60 1939.00 977.00
C 1980.36 980.77 2020.73 988.68 2062.00 993.00
L 2062.00 803.00
C 2034.15 803.00 2005.80 803.00 1978.00 803.00 C 1950.20 803.00 1922.73 803.00 1895.00 803.00 C 1867.27 803.00 1839.70 803.00 1812.00 803.00 C 1784.30 803.00 1756.70 803.00 1729.00 803.00 C 1701.30 803.00 1673.71 802.99 1646.00 803.00 C 1618.29 803.01 1590.76 802.98 1563.00 803.00 C 1535.24 803.02 1506.75 802.95 1479.00 803.00 C 1451.25 803.05 1423.67 802.89 1396.00 803.00 C 1368.33 803.11 1341.68 801.76 1314.00 802.00 C 1286.32 802.24 1258.68 801.91 1231.00 802.00 C 1203.32 802.09 1177.20 802.27 1150.00 802.00 C 1122.80 801.73 1094.42 801.82 1067.00 802.00 C 1039.58 802.18 1010.37 801.27 983.00 802.00 C 955.63 802.73 928.63 803.44 901.00 803.00 C 873.37 802.56 845.61 803.49 818.00 803.00 C 790.39 802.51 762.54 803.85 735.00 803.00 C 707.46 802.15 679.38 804.78 652.00 803.00 C 624.62 801.22 596.77 806.51 570.00 804.00 Z"/>
</g>
<g fill="#3341C9" fill-opacity="0.45" stroke="None">
<path d="
M 532.00 804.00 
C 537.14 804.00 545.15 803.00 550.00 804.00 C 554.85 805.00 564.20 801.34 568.00 804.00
C 572.49 807.14 567.65 820.03 569.00 826.00 C 570.35 831.97 568.42 841.97 569.00 849.00 C 569.58 856.03 568.72 865.54 569.00 873.00 C 569.28 880.46 568.88 888.33 569.00 896.00 C 569.12 903.67 568.94 912.26 569.00 920.00 C 569.06 927.74 568.97 935.25 569.00 943.00 C 569.03 950.75 568.99 958.19 569.00 966.00 C 569.01 973.81 568.99 982.16 569.00 990.00 C 569.01 997.84 569.00 1005.14 569.00 1013.00 C 569.00 1020.86 569.00 1029.10 569.00 1037.00
C 569.00 1036.96 570.00 1037.00 570.00 1037.00
C 570.00 1029.78 570.13 1022.18 570.00 1015.00 C 569.87 1007.82 571.15 1002.15 571.00 995.00 C 570.85 987.85 571.07 980.14 571.00 973.00 C 570.93 965.86 571.04 959.10 571.00 952.00 C 570.96 944.90 571.03 938.12 571.00 931.00 C 570.97 923.88 571.03 916.09 571.00 909.00 C 570.97 901.91 571.06 895.01 571.00 888.00 C 570.94 880.99 571.14 873.93 571.00 867.00 C 570.86 860.07 571.29 851.70 571.00 845.00 C 570.71 838.30 571.74 830.92 570.00 825.00 C 568.26 819.08 573.35 808.74 570.00 804.00
C 557.68 802.84 544.01 802.84 532.00 804.00 Z"/>
</g>
<g fill="#000040" fill-opacity="0.02" stroke="None">
<path d="
M 569.00 1048.00 
C 569.00 1044.33 569.00 1040.67 569.00 1037.00
C 569.00 1029.10 569.00 1020.86 569.00 1013.00 C 569.00 1005.14 569.01 997.84 569.00 990.00 C 568.99 982.16 569.01 973.81 569.00 966.00 C 568.99 958.19 569.03 950.75 569.00 943.00 C 568.97 935.25 569.06 927.74 569.00 920.00 C 568.94 912.26 569.12 903.67 569.00 896.00 C 568.88 888.33 569.28 880.46 569.00 873.00 C 568.72 865.54 569.58 856.03 569.00 849.00 C 568.42 841.97 570.35 831.97 569.00 826.00 C 567.65 820.03 572.49 807.14 568.00 804.00
C 568.01 814.29 567.99 824.73 568.00 835.00 C 568.01 845.27 567.97 855.79 568.00 866.00 C 568.03 876.21 567.93 885.83 568.00 896.00 C 568.07 906.17 567.86 916.86 568.00 927.00 C 568.14 937.14 567.68 948.03 568.00 958.00 C 568.32 967.97 567.27 978.36 568.00 988.00 C 568.73 997.64 566.43 1010.01 568.00 1019.00 C 569.57 1027.99 563.94 1041.16 569.00 1048.00 Z"/>
</g>
<g fill="#5764F2" fill-opacity="1.00" stroke="None">
<path d="
M 582.00 1237.00 
C 584.62 1236.76 593.18 1236.05 592.00 1239.00
C 591.83 1239.43 592.00 1240.50 592.00 1241.00
L 758.00 1241.00
C 757.52 1227.66 758.64 1213.23 758.00 1200.00 C 757.36 1186.77 756.72 1174.39 757.00 1161.00 C 757.28 1147.61 756.90 1134.35 757.00 1121.00 C 757.10 1107.65 757.01 1094.33 757.00 1081.00 C 756.99 1067.67 757.12 1054.30 757.00 1041.00 C 756.88 1027.70 755.64 1015.49 756.00 1002.00 C 756.36 988.51 755.81 974.52 756.00 961.00 C 756.19 947.48 755.86 934.57 756.00 921.00 C 756.14 907.43 737.77 912.45 727.02 909.98 C 716.28 907.50 702.59 907.25 691.07 905.93 C 679.56 904.61 667.80 902.12 656.00 901.00 C 644.20 899.88 631.75 898.76 620.01 896.99 C 608.26 895.22 595.91 894.22 584.00 893.00
C 584.14 905.90 583.82 919.13 584.00 932.00 C 584.18 944.87 583.65 957.14 584.00 970.00 C 584.35 982.86 583.40 995.35 583.00 1008.00 C 582.60 1020.65 583.24 1033.28 583.00 1046.00 C 582.76 1058.72 583.24 1072.30 583.00 1085.00 C 582.76 1097.70 583.42 1110.42 583.00 1123.00 C 582.58 1135.58 583.85 1149.70 583.00 1162.00 C 582.15 1174.30 584.90 1188.37 583.00 1200.00 C 581.10 1211.63 587.70 1227.03 582.00 1237.00 Z"/>
</g>
<g fill="#5865F2" fill-opacity="1.00" stroke="None">
<path d="
M 771.00 1241.00 
L 964.00 1241.00
C 964.77 1137.72 962.61 1035.18 963.00 932.00
C 897.76 928.61 833.58 920.97 769.00 915.00
C 770.25 1023.51 769.67 1132.51 771.00 1241.00 Z"/>
</g>
<g fill="#5865F2" fill-opacity="1.00" stroke="None">
<path d="
M 978.00 1241.00 
L 1163.00 1241.00
C 1162.16 1140.71 1162.06 1040.23 1161.00 940.00
C 1098.62 940.85 1037.47 936.75 976.00 934.00
C 977.38 1036.15 977.92 1138.52 978.00 1241.00 Z"/>
</g>
<g fill="#5865F2" fill-opacity="1.00" stroke="None">
<path d="
M 1176.00 1241.00 
L 1360.00 1241.00
C 1360.57 1140.36 1358.94 1040.26 1358.00 940.00
C 1297.50 942.32 1235.92 940.35 1175.00 941.00
C 1174.34 1041.24 1175.91 1140.94 1176.00 1241.00 Z"/>
</g>
<g fill="#5765F2" fill-opacity="1.00" stroke="None">
<path d="
M 1373.00 1241.00 
L 1552.00 1241.00
C 1551.99 1228.62 1552.01 1217.39 1552.00 1206.00 C 1551.99 1194.61 1552.02 1183.44 1552.00 1172.00 C 1551.98 1160.56 1552.03 1148.44 1552.00 1137.00 C 1551.97 1125.56 1552.07 1114.39 1552.00 1103.00 C 1551.93 1091.61 1552.16 1080.38 1552.00 1069.00 C 1551.84 1057.62 1552.34 1045.30 1552.00 1034.00 C 1551.66 1022.70 1550.51 1012.45 1551.00 1001.00 C 1551.49 989.55 1550.54 978.48 1551.00 967.00 C 1551.46 955.52 1553.90 941.37 1541.00 942.00 C 1528.10 942.63 1520.10 940.21 1508.00 941.00 C 1495.90 941.79 1486.82 939.25 1475.00 940.00 C 1463.18 940.75 1451.62 939.64 1440.00 940.00 C 1428.38 940.36 1417.48 939.81 1406.00 940.00 C 1394.52 940.19 1383.45 939.86 1372.00 940.00
C 1371.35 1040.58 1373.73 1140.40 1373.00 1241.00 Z"/>
</g>
<g fill="#5865F2" fill-opacity="1.00" stroke="None">
<path d="
M 1566.00 1241.00 
L 1732.00 1241.00
C 1732.46 1144.47 1731.55 1048.27 1731.00 952.00
C 1675.56 947.72 1620.08 943.68 1564.00 942.00
C 1565.54 1041.45 1564.83 1141.46 1566.00 1241.00 Z"/>
</g>
<g fill="#5865F2" fill-opacity="1.00" stroke="None">
<path d="
M 1746.00 1241.00 
L 2062.00 1241.00
L 2062.00 993.00
C 2020.73 988.68 1980.36 980.77 1939.00 977.00
C 1938.25 1064.60 1940.19 1151.54 1940.00 1239.00
C 1927.48 1242.76 1924.85 1235.05 1926.00 1225.00 C 1927.15 1214.95 1925.47 1206.66 1926.00 1197.00 C 1926.53 1187.34 1925.74 1178.48 1926.00 1169.00 C 1926.26 1159.52 1925.83 1150.40 1926.00 1141.00 C 1926.17 1131.60 1925.82 1122.37 1926.00 1113.00 C 1926.18 1103.63 1925.68 1094.35 1926.00 1085.00 C 1926.32 1075.65 1925.68 1067.09 1925.00 1058.00 C 1924.32 1048.91 1925.32 1039.22 1925.00 1030.00 C 1924.68 1020.78 1925.16 1011.27 1925.00 1002.00 C 1924.84 992.73 1925.12 983.29 1925.00 974.00
C 1865.08 966.95 1805.55 958.45 1745.00 954.00
C 1744.32 1049.92 1745.97 1145.26 1746.00 1241.00 Z"/>
</g>
<g fill="#04074E" fill-opacity="0.04" stroke="None">
<path d="
M 415.00 996.00 
C 424.47 994.83 435.32 997.60 444.00 995.00
C 436.36 993.90 421.65 993.29 415.00 996.00 Z"/>
</g>
<g fill="#272C87" fill-opacity="0.10" stroke="None">
<path d="
M 415.00 996.00 
C 413.75 996.15 413.81 996.62 413.00 997.00
C 414.59 996.77 416.39 997.00 418.00 997.00
C 424.66 997.00 431.34 997.13 438.00 997.00
C 439.95 996.96 443.95 997.87 445.00 996.00
C 444.74 995.78 444.35 995.05 444.00 995.00
C 435.32 997.60 424.47 994.83 415.00 996.00 Z"/>
</g>
<g fill="#5159BB" fill-opacity="0.14" stroke="None">
<path d="
M 438.00 997.00 
C 439.88 997.18 444.19 998.82 446.00 999.00
C 447.57 999.16 447.06 998.63 448.00 998.00
C 447.13 997.35 445.93 996.77 445.00 996.00
C 443.95 997.87 439.95 996.96 438.00 997.00 Z"/>
</g>
<g fill="#5560C2" fill-opacity="0.16" stroke="None">
<path d="
M 411.00 998.00 
C 410.95 998.50 411.00 999.00 411.00 999.00
C 411.50 999.00 412.50 999.00 413.00 999.00
C 414.11 998.68 416.94 997.16 418.00 997.00
C 416.39 997.00 414.59 996.77 413.00 997.00
C 412.28 997.11 411.10 996.97 411.00 998.00 Z"/>
</g>
<g fill="#4F5CCD" fill-opacity="0.39" stroke="None">
<path d="
M 413.00 999.00 
C 423.83 999.01 435.23 997.96 446.00 999.00
C 444.19 998.82 439.88 997.18 438.00 997.00
C 431.34 997.13 424.66 997.00 418.00 997.00
C 416.94 997.16 414.11 998.68 413.00 999.00 Z"/>
</g>
<g fill="#080B4B" fill-opacity="0.12" stroke="None">
<path d="
M 392.00 1000.00 
C 392.02 999.91 393.50 1000.00 394.00 1000.00
C 399.94 1000.00 405.11 999.00 411.00 999.00
C 411.00 999.00 410.95 998.50 411.00 998.00
C 404.46 999.68 398.05 997.12 392.00 1000.00 Z"/>
</g>
<g fill="#26349F" fill-opacity="0.47" stroke="None">
<path d="
M 446.00 999.00 
C 448.69 999.26 452.57 1000.00 456.00 1000.00
C 454.55 999.86 450.27 998.94 449.00 998.00
C 449.00 998.00 448.35 997.77 448.00 998.00
C 447.06 998.63 447.57 999.16 446.00 999.00 Z"/>
</g>
<g fill="#060C47" fill-opacity="0.12" stroke="None">
<path d="
M 456.00 1000.00 
C 458.60 1000.00 461.42 1000.32 464.00 1000.00
C 464.80 999.90 465.70 999.04 466.00 999.00
C 460.91 997.21 454.51 998.00 449.00 998.00
C 450.27 998.94 454.55 999.86 456.00 1000.00 Z"/>
</g>
<g fill="#2C42A8" fill-opacity="0.08" stroke="None">
<path d="
M 464.00 1000.00 
C 465.13 1000.20 467.53 1001.49 469.00 1002.00
C 468.86 1001.54 469.00 1001.00 469.00 1001.00
C 468.52 999.97 467.08 999.38 466.00 999.00
C 465.70 999.04 464.80 999.90 464.00 1000.00 Z"/>
</g>
<g fill="#5264C6" fill-opacity="0.13" stroke="None">
<path d="
M 390.00 1001.00 
C 389.95 1001.50 390.00 1002.00 390.00 1002.00
C 391.60 1001.56 393.69 1000.10 394.00 1000.00
C 393.50 1000.00 392.02 999.91 392.00 1000.00
C 391.93 1000.41 390.11 999.78 390.00 1001.00 Z"/>
</g>
<g fill="#0B115D" fill-opacity="0.09" stroke="None">
<path d="
M 379.00 1004.00 
C 381.51 1003.91 383.57 1003.47 386.00 1003.00
C 387.50 1002.71 388.60 1002.38 390.00 1002.00
C 390.00 1002.00 389.95 1001.50 390.00 1001.00
C 387.85 1001.55 385.37 1001.24 383.03 1001.03 C 380.69 1000.81 380.52 1003.24 379.00 1004.00 Z"/>
</g>
<g fill="#020448" fill-opacity="0.11" stroke="None">
<path d="
M 469.00 1002.00 
C 469.50 1003.60 471.72 1002.95 473.00 1003.00
C 474.33 1003.05 475.67 1003.00 477.00 1003.00
C 477.50 1003.00 478.52 1002.90 479.00 1003.00
C 475.81 1001.27 473.39 1000.59 469.00 1001.00
C 469.00 1001.00 468.86 1001.54 469.00 1002.00 Z"/>
</g>
<g fill="#535FBA" fill-opacity="0.24" stroke="None">
<path d="
M 379.00 1004.00 
C 378.03 1004.03 376.96 1003.86 376.00 1004.00
C 375.76 1004.31 376.25 1005.75 376.00 1006.00
C 379.90 1005.28 382.62 1004.11 386.00 1003.00
C 383.57 1003.47 381.51 1003.91 379.00 1004.00 Z"/>
</g>
<g fill="#454DBB" fill-opacity="0.42" stroke="None">
<path d="
M 480.00 1006.00 
C 479.24 1005.76 477.86 1003.22 477.00 1003.00
C 475.67 1003.00 474.33 1003.05 473.00 1003.00
C 475.29 1003.75 476.78 1005.83 480.00 1006.00 Z"/>
</g>
<g fill="#414AB1" fill-opacity="0.16" stroke="None">
<path d="
M 480.00 1006.00 
C 480.97 1006.05 482.04 1005.84 483.00 1006.00
C 482.79 1005.62 483.00 1005.00 483.00 1005.00
C 482.11 1004.32 480.09 1003.23 479.00 1003.00
C 478.52 1002.90 477.50 1003.00 477.00 1003.00
C 477.86 1003.22 479.24 1005.76 480.00 1006.00 Z"/>
</g>
<g fill="#0C1166" fill-opacity="0.11" stroke="None">
<path d="
M 362.00 1010.00 
C 362.97 1009.85 364.02 1010.10 365.00 1010.00
C 368.75 1009.63 372.15 1006.72 376.00 1006.00
C 376.25 1005.75 375.76 1004.31 376.00 1004.00
C 371.34 1004.70 365.14 1008.68 362.00 1010.00 Z"/>
</g>
<g fill="#0E145B" fill-opacity="0.11" stroke="None">
<path d="
M 483.00 1005.00 
C 483.00 1005.00 482.79 1005.62 483.00 1006.00
C 484.17 1006.19 484.75 1006.86 486.00 1007.00
C 487.23 1007.13 489.70 1005.97 490.00 1006.00
C 488.36 1005.18 484.01 1003.91 483.00 1005.00 Z"/>
</g>
<g fill="#4251C3" fill-opacity="0.21" stroke="None">
<path d="
M 486.00 1007.00 
C 488.64 1008.38 489.58 1008.40 493.00 1009.00
C 492.80 1008.60 493.00 1008.00 493.00 1008.00
C 492.45 1007.40 490.81 1006.40 490.00 1006.00
C 489.70 1005.97 487.23 1007.13 486.00 1007.00 Z"/>
</g>
<g fill="#070E50" fill-opacity="0.09" stroke="None">
<path d="
M 493.00 1009.00 
C 493.01 1009.03 494.83 1009.93 495.00 1010.00
C 500.29 1012.19 505.19 1014.20 510.00 1017.00
C 514.51 1019.62 519.41 1021.83 524.00 1024.00
C 527.37 1025.60 530.54 1027.64 534.00 1029.00
C 530.24 1023.24 519.86 1020.37 514.25 1017.75 C 508.63 1015.13 499.80 1006.88 493.00 1008.00
C 493.00 1008.00 492.80 1008.60 493.00 1009.00 Z"/>
</g>
<g fill="#3942A8" fill-opacity="0.16" stroke="None">
<path d="
M 345.00 1018.00 
C 344.51 1018.39 344.25 1019.47 344.00 1020.00
C 350.37 1017.19 358.32 1013.72 365.00 1010.00
C 364.02 1010.10 362.97 1009.85 362.00 1010.00
C 355.82 1010.93 350.20 1015.04 345.00 1018.00 Z"/>
</g>
<g fill="#313D9C" fill-opacity="0.33" stroke="None">
<path d="
M 510.00 1017.00 
C 505.19 1014.20 500.29 1012.19 495.00 1010.00
C 499.72 1013.23 504.66 1014.85 510.00 1017.00 Z"/>
</g>
<g fill="#0B1262" fill-opacity="0.07" stroke="None">
<path d="
M 337.00 1024.00 
C 337.48 1023.91 338.00 1024.00 338.00 1024.00
C 339.68 1023.39 341.67 1022.17 343.00 1021.00
C 343.26 1020.77 343.88 1020.26 344.00 1020.00
C 344.25 1019.47 344.51 1018.39 345.00 1018.00
C 342.19 1019.60 339.71 1022.19 337.00 1024.00 Z"/>
</g>
<g fill="#4550C3" fill-opacity="0.42" stroke="None">
<path d="
M 338.00 1024.00 
C 337.99 1024.52 336.34 1026.68 336.00 1027.00
C 338.46 1025.38 343.45 1023.24 343.00 1021.00
C 341.67 1022.17 339.68 1023.39 338.00 1024.00 Z"/>
</g>
<g fill="#4A55BA" fill-opacity="0.23" stroke="None">
<path d="
M 335.00 1025.00 
C 333.79 1026.13 332.36 1029.29 331.00 1030.00
C 332.56 1029.43 334.59 1027.93 336.00 1027.00
C 336.34 1026.68 337.99 1024.52 338.00 1024.00
C 338.00 1024.00 337.48 1023.91 337.00 1024.00
C 336.40 1024.11 335.45 1024.58 335.00 1025.00 Z"/>
</g>
<g fill="#474FB7" fill-opacity="0.25" stroke="None">
<path d="
M 524.00 1025.00 
C 525.77 1026.65 529.08 1028.80 531.00 1030.00
C 537.16 1033.05 542.57 1036.36 548.00 1041.00
C 549.99 1042.70 551.96 1043.81 554.00 1045.00
C 553.76 1044.83 554.00 1044.00 554.00 1044.00
C 548.24 1040.40 538.66 1034.62 535.00 1029.00
C 535.00 1029.00 534.43 1029.17 534.00 1029.00
C 530.54 1027.64 527.37 1025.60 524.00 1024.00
C 524.00 1024.00 523.88 1024.53 524.00 1025.00 Z"/>
</g>
<g fill="#151C6F" fill-opacity="0.08" stroke="None">
<path d="
M 327.00 1030.00 
C 327.06 1029.98 329.84 1030.42 331.00 1030.00
C 332.36 1029.29 333.79 1026.13 335.00 1025.00
C 331.75 1025.93 329.76 1027.80 327.00 1030.00 Z"/>
</g>
<g fill="#4350DF" fill-opacity="0.70" stroke="None">
<path d="
M 531.00 1030.00 
C 529.08 1028.80 525.77 1026.65 524.00 1025.00
C 524.65 1027.51 528.95 1028.99 531.00 1030.00 Z"/>
</g>
<g fill="#0F175E" fill-opacity="0.06" stroke="None">
<path d="
M 554.00 1044.00 
C 554.36 1044.22 555.00 1044.00 555.00 1044.00
C 554.53 1042.07 551.55 1041.31 552.00 1039.00
C 545.62 1038.41 540.76 1032.59 535.00 1029.00
C 538.66 1034.62 548.24 1040.40 554.00 1044.00 Z"/>
</g>
<g fill="#333FC9" fill-opacity="0.26" stroke="None">
<path d="
M 569.00 1048.00 
C 569.00 1048.00 569.00 1048.50 569.00 1049.00
C 569.00 1050.67 569.00 1052.33 569.00 1054.00
C 569.00 1054.50 569.12 1055.53 569.00 1056.00
C 568.91 1056.35 568.12 1056.74 568.00 1057.00
C 568.23 1057.16 568.00 1058.00 568.00 1058.00
C 568.16 1058.23 569.92 1058.19 570.00 1058.00
C 572.14 1053.18 570.00 1042.37 570.00 1037.00
C 570.00 1037.00 569.00 1036.96 569.00 1037.00
C 569.00 1040.67 569.00 1044.33 569.00 1048.00 Z"/>
</g>
<g fill="#3C48B1" fill-opacity="0.09" stroke="None">
<path d="
M 300.00 1058.00 
C 299.84 1058.44 300.00 1059.00 300.00 1059.00
C 305.70 1053.53 313.36 1046.63 318.00 1040.00
C 312.85 1040.32 301.95 1052.55 300.00 1058.00 Z"/>
</g>
<g fill="#4650D6" fill-opacity="0.45" stroke="None">
<path d="
M 300.00 1059.00 
C 300.00 1059.50 300.00 1060.00 300.00 1060.00
C 301.41 1061.47 305.59 1054.65 307.00 1053.00
C 310.36 1049.07 314.57 1045.68 318.00 1042.00
C 318.35 1041.42 318.68 1040.63 319.00 1040.00
C 319.00 1040.00 318.50 1039.97 318.00 1040.00
C 313.36 1046.63 305.70 1053.53 300.00 1059.00 Z"/>
</g>
<g fill="#525EE4" fill-opacity="0.53" stroke="None">
<path d="
M 558.00 1048.00 
C 556.60 1046.88 555.39 1045.98 554.00 1045.00
C 551.96 1043.81 549.99 1042.70 548.00 1041.00
C 551.47 1044.47 553.93 1045.57 558.00 1048.00 Z"/>
</g>
<g fill="#404DE9" fill-opacity="0.85" stroke="None">
<path d="
M 307.00 1053.00 
C 310.48 1049.52 315.34 1046.36 318.00 1042.00
C 314.57 1045.68 310.36 1049.07 307.00 1053.00 Z"/>
</g>
<g fill="#4056C5" fill-opacity="0.07" stroke="None">
<path d="
M 554.00 1045.00 
C 555.39 1045.98 556.60 1046.88 558.00 1048.00
C 559.16 1048.93 559.95 1049.93 561.00 1051.00
C 563.01 1053.05 565.69 1055.38 568.00 1057.00
C 568.12 1056.74 568.91 1056.35 569.00 1056.00
C 567.35 1052.25 558.73 1046.32 555.00 1044.00
C 555.00 1044.00 554.36 1044.22 554.00 1044.00
C 554.00 1044.00 553.76 1044.83 554.00 1045.00 Z"/>
</g>
<g fill="#00014E" fill-opacity="0.03" stroke="None">
<path d="
M 569.00 1054.00 
C 569.00 1052.33 569.00 1050.67 569.00 1049.00
C 566.46 1051.24 566.89 1046.11 564.00 1047.00
C 563.62 1050.38 567.47 1051.50 569.00 1054.00 Z"/>
</g>
<g fill="#3D4CE8" fill-opacity="0.78" stroke="None">
<path d="
M 570.00 1058.00 
C 569.92 1058.19 568.16 1058.23 568.00 1058.00
C 565.09 1056.80 562.98 1053.14 561.00 1051.00
C 560.24 1054.37 568.16 1057.49 569.00 1061.00
C 570.15 1060.88 570.36 1058.79 570.00 1058.00 Z"/>
</g>
<g fill="#4252E5" fill-opacity="0.40" stroke="None">
<path d="
M 568.00 1058.00 
C 568.00 1058.00 568.23 1057.16 568.00 1057.00
C 565.69 1055.38 563.01 1053.05 561.00 1051.00
C 562.98 1053.14 565.09 1056.80 568.00 1058.00 Z"/>
</g>
<g fill="#10196E" fill-opacity="0.07" stroke="None">
<path d="
M 294.00 1065.00 
C 296.05 1063.36 298.39 1062.53 300.00 1060.00
C 300.00 1060.00 300.00 1059.50 300.00 1059.00
C 300.00 1059.00 299.84 1058.44 300.00 1058.00
C 298.00 1059.38 294.44 1062.33 294.00 1065.00 Z"/>
</g>
<g fill="#141D6F" fill-opacity="0.07" stroke="None">
<path d="
M 291.00 1073.00 
C 291.41 1071.23 293.44 1069.06 294.00 1067.00
C 291.57 1069.32 291.40 1069.44 291.00 1073.00 Z"/>
</g>
<g fill="#050A4D" fill-opacity="0.15" stroke="None">
<path d="
M 101.00 1076.00 
C 101.50 1076.00 102.50 1075.97 103.00 1076.00
C 113.52 1076.74 124.08 1070.52 135.00 1072.00 C 145.92 1073.48 158.89 1070.19 169.00 1071.00
C 158.12 1067.65 143.32 1071.01 132.00 1070.00 C 120.68 1068.99 110.35 1072.53 101.00 1076.00 Z"/>
</g>
<g fill="#ADADAD" fill-opacity="0.01" stroke="None">
<path d="
M 248.00 1075.00 
C 245.80 1073.77 241.83 1073.19 240.00 1075.00
C 242.70 1074.04 246.25 1076.60 248.00 1075.00 Z"/>
</g>
<g fill="#4A51E2" fill-opacity="0.10" stroke="None">
<path d="
M 97.00 1077.00 
C 96.77 1077.35 97.00 1078.00 97.00 1078.00
C 98.97 1077.51 101.41 1076.37 103.00 1076.00
C 102.50 1075.97 101.50 1076.00 101.00 1076.00
C 99.28 1076.01 98.48 1076.68 97.00 1077.00 Z"/>
</g>
<g fill="#111476" fill-opacity="0.07" stroke="None">
<path d="
M 91.00 1079.00 
C 91.49 1078.93 92.00 1079.00 92.00 1079.00
C 94.09 1079.21 95.21 1078.44 97.00 1078.00
C 97.00 1078.00 96.77 1077.35 97.00 1077.00
C 95.04 1077.43 91.62 1076.08 91.00 1079.00 Z"/>
</g>
<g fill="#7277CE" fill-opacity="0.10" stroke="None">
<path d="
M 87.00 1080.00 
C 86.78 1080.13 87.00 1081.00 87.00 1081.00
C 88.68 1081.35 90.49 1081.21 92.00 1079.00
C 92.00 1079.00 91.49 1078.93 91.00 1079.00
C 89.58 1079.19 88.32 1079.61 87.00 1080.00 Z"/>
</g>
<g fill="#181D70" fill-opacity="0.05" stroke="None">
<path d="
M 82.00 1083.00 
C 83.01 1082.64 85.11 1082.59 86.00 1082.00
C 86.15 1081.66 86.88 1081.26 87.00 1081.00
C 87.00 1081.00 86.78 1080.13 87.00 1080.00
C 84.07 1080.86 84.29 1081.37 82.00 1083.00 Z"/>
</g>
<g fill="#0B165F" fill-opacity="0.11" stroke="None">
<path d="
M 224.00 1087.00 
C 225.71 1087.67 227.18 1088.55 229.00 1089.00
C 229.00 1089.00 229.50 1088.95 230.00 1089.00
C 232.95 1089.28 235.40 1091.70 238.00 1093.00
C 231.53 1084.40 216.30 1081.95 206.00 1080.00
C 210.58 1081.78 218.51 1084.85 224.00 1087.00 Z"/>
</g>
<g fill="#4E52C9" fill-opacity="0.24" stroke="None">
<path d="
M 82.00 1083.00 
C 80.86 1083.40 80.18 1083.74 79.00 1084.00
C 78.65 1084.28 78.01 1085.55 78.00 1086.00
C 80.90 1085.60 84.65 1085.05 86.00 1082.00
C 85.11 1082.59 83.01 1082.64 82.00 1083.00 Z"/>
</g>
<g fill="#080F5F" fill-opacity="0.08" stroke="None">
<path d="
M 74.00 1086.00 
C 74.46 1085.87 75.50 1086.00 76.00 1086.00
C 76.50 1086.00 77.51 1086.07 78.00 1086.00
C 78.01 1085.55 78.65 1084.28 79.00 1084.00
C 76.39 1084.57 75.97 1085.04 74.00 1086.00 Z"/>
</g>
<g fill="#4047B4" fill-opacity="0.17" stroke="None">
<path d="
M 66.00 1091.00 
C 64.55 1092.32 62.55 1094.80 61.00 1096.00
C 66.06 1093.58 72.21 1089.97 76.00 1086.00
C 75.50 1086.00 74.46 1085.87 74.00 1086.00
C 70.38 1087.00 68.58 1088.66 66.00 1091.00 Z"/>
</g>
<g fill="#4656DC" fill-opacity="0.61" stroke="None">
<path d="
M 229.00 1089.00 
C 227.18 1088.55 225.71 1087.67 224.00 1087.00
C 222.48 1085.93 225.05 1091.88 229.00 1089.00 Z"/>
</g>
<g fill="#3540AF" fill-opacity="0.33" stroke="None">
<path d="
M 239.00 1094.00 
C 238.73 1093.87 238.33 1093.17 238.00 1093.00
C 235.40 1091.70 232.95 1089.28 230.00 1089.00
C 231.86 1091.98 237.07 1093.24 239.00 1094.00 Z"/>
</g>
<g fill="#101659" fill-opacity="0.08" stroke="None">
<path d="
M 40.00 1111.00 
C 42.87 1109.97 44.28 1107.32 47.00 1106.00
C 47.40 1105.80 48.00 1106.00 48.00 1106.00
C 50.61 1102.27 54.97 1097.92 59.00 1096.00
C 59.41 1095.81 60.59 1096.19 61.00 1096.00
C 62.55 1094.80 64.55 1092.32 66.00 1091.00
C 56.47 1097.02 47.90 1102.92 40.00 1111.00 Z"/>
</g>
<g fill="#4F57BE" fill-opacity="0.28" stroke="None">
<path d="
M 48.00 1106.00 
C 50.12 1104.96 52.26 1102.49 54.00 1101.00
C 55.62 1099.61 57.35 1097.28 59.00 1096.00
C 54.97 1097.92 50.61 1102.27 48.00 1106.00 Z"/>
</g>
<g fill="#404BED" fill-opacity="0.55" stroke="None">
<path d="
M 285.00 1098.00 
C 284.70 1099.07 284.35 1099.92 284.00 1101.00
C 285.99 1098.10 285.67 1098.89 286.00 1096.00
C 285.99 1096.06 285.11 1097.62 285.00 1098.00 Z"/>
</g>
<g fill="#FCFCFC" fill-opacity="0.02" stroke="None">
<path d="
M 272.00 1097.00 
C 269.86 1096.97 267.41 1097.71 266.00 1099.00
C 268.04 1100.51 270.48 1098.28 272.00 1097.00 Z"/>
</g>
<g fill="#3D54F4" fill-opacity="0.22" stroke="None">
<path d="
M 281.00 1104.00 
C 281.37 1103.39 282.99 1104.08 284.00 1101.00
C 284.35 1099.92 284.70 1099.07 285.00 1098.00
C 284.05 1099.85 281.84 1101.82 281.00 1104.00 Z"/>
</g>
<g fill="#4652D8" fill-opacity="0.60" stroke="None">
<path d="
M 48.00 1106.00 
C 48.00 1106.00 47.40 1105.80 47.00 1106.00
C 45.52 1108.12 43.53 1109.99 42.00 1112.00
C 45.80 1108.17 50.13 1104.87 54.00 1101.00
C 52.26 1102.49 50.12 1104.96 48.00 1106.00 Z"/>
</g>
<g fill="#4149B2" fill-opacity="0.24" stroke="None">
<path d="
M 40.00 1111.00 
C 39.65 1111.13 39.17 1111.67 39.00 1112.00
C 35.92 1118.17 29.58 1123.09 25.00 1128.00
C 24.69 1128.60 24.23 1129.35 24.00 1130.00
C 22.03 1135.47 17.65 1140.09 15.00 1145.00
C 13.84 1148.73 11.94 1151.63 10.00 1155.00
C 9.97 1155.14 10.21 1157.88 10.00 1159.00
C 14.58 1151.55 19.59 1141.64 24.00 1133.00
C 25.84 1129.41 27.15 1127.85 30.00 1125.00
C 33.60 1121.40 35.87 1117.15 40.00 1114.00
C 40.92 1113.30 41.26 1112.96 42.00 1112.00
C 43.53 1109.99 45.52 1108.12 47.00 1106.00
C 44.28 1107.32 42.87 1109.97 40.00 1111.00 Z"/>
</g>
<g fill="#414CEE" fill-opacity="0.46" stroke="None">
<path d="
M 275.00 1113.00 
C 273.92 1112.76 272.94 1111.60 272.00 1111.00
C 271.36 1110.24 271.46 1117.32 275.00 1113.00 Z"/>
</g>
<g fill="#3745EA" fill-opacity="0.36" stroke="None">
<path d="
M 277.00 1113.00 
C 279.51 1116.13 278.56 1112.32 279.00 1111.00
C 279.00 1111.00 276.91 1113.04 277.00 1113.00 Z"/>
</g>
<g fill="#040B59" fill-opacity="0.05" stroke="None">
<path d="
M 25.00 1128.00 
C 29.58 1123.09 35.92 1118.17 39.00 1112.00
C 33.71 1115.99 28.13 1121.90 25.00 1128.00 Z"/>
</g>
<g fill="#4651D8" fill-opacity="0.60" stroke="None">
<path d="
M 30.00 1125.00 
C 33.10 1121.44 36.57 1117.40 40.00 1114.00
C 35.87 1117.15 33.60 1121.40 30.00 1125.00 Z"/>
</g>
<g fill="#545DD7" fill-opacity="0.36" stroke="None">
<path d="
M 24.00 1133.00 
C 25.89 1130.54 27.88 1127.43 30.00 1125.00
C 27.15 1127.85 25.84 1129.41 24.00 1133.00 Z"/>
</g>
<g fill="#0C136F" fill-opacity="0.04" stroke="None">
<path d="
M 15.00 1145.00 
C 17.65 1140.09 22.03 1135.47 24.00 1130.00
C 20.09 1134.88 16.85 1139.07 15.00 1145.00 Z"/>
</g>
<g fill="#09116B" fill-opacity="0.07" stroke="None">
<path d="
M 8.00 1162.00 
C 8.21 1161.79 9.95 1161.12 10.00 1161.00
C 10.04 1160.50 9.91 1159.48 10.00 1159.00
C 10.21 1157.88 9.97 1155.14 10.00 1155.00
C 8.45 1157.69 8.61 1158.52 8.00 1162.00 Z"/>
</g>
<g fill="#4550C5" fill-opacity="0.31" stroke="None">
<path d="
M 8.00 1162.00 
C 7.66 1162.34 7.32 1163.54 7.00 1164.00
C 6.81 1165.42 7.95 1165.75 8.00 1167.00
C 8.38 1166.29 9.74 1164.23 10.00 1161.00
C 9.95 1161.12 8.21 1161.79 8.00 1162.00 Z"/>
</g>
<g fill="#060B49" fill-opacity="0.13" stroke="None">
<path d="
M 5.00 1172.00 
C 5.32 1171.67 6.83 1171.27 7.00 1171.00
C 7.12 1170.24 8.00 1167.13 8.00 1167.00
C 7.95 1165.75 6.81 1165.42 7.00 1164.00
C 5.03 1166.89 5.93 1168.41 5.00 1172.00 Z"/>
</g>
<g fill="#4F52BB" fill-opacity="0.25" stroke="None">
<path d="
M 5.00 1172.00 
C 4.70 1173.17 4.19 1173.77 4.00 1175.00
C 3.70 1176.94 4.14 1179.04 4.00 1181.00
C 4.88 1177.99 6.46 1174.50 7.00 1171.00
C 6.83 1171.27 5.32 1171.67 5.00 1172.00 Z"/>
</g>
<g fill="#070B65" fill-opacity="0.10" stroke="None">
<path d="
M 1.00 1190.00 
C 1.23 1189.78 2.94 1189.14 3.00 1189.00
C 3.41 1186.32 3.81 1183.60 4.00 1181.00
C 4.14 1179.04 3.70 1176.94 4.00 1175.00
C 1.24 1180.24 1.91 1183.68 1.00 1190.00 Z"/>
</g>
<g fill="#4450E4" fill-opacity="0.15" stroke="None">
<path d="
M 1.00 1190.00 
C 0.74 1190.24 0.34 1190.84 0.00 1191.00
L 0.00 1198.00
C 0.88 1197.12 1.57 1195.36 2.00 1194.00
C 2.55 1192.28 2.73 1190.78 3.00 1189.00
C 2.94 1189.14 1.23 1189.78 1.00 1190.00 Z"/>
</g>
<g fill="#3F4CE7" fill-opacity="0.46" stroke="None">
<path d="
M 0.00 1198.00 
L 0.00 1210.00
C 0.84 1208.60 1.64 1205.47 2.00 1204.00
C 2.80 1200.73 1.93 1197.00 2.00 1194.00
C 1.57 1195.36 0.88 1197.12 0.00 1198.00 Z"/>
</g>
<g fill="#3D4DEC" fill-opacity="0.66" stroke="None">
<path d="
M 0.00 1210.00 
L 0.00 1230.00
C 0.36 1231.02 2.62 1230.52 3.00 1231.00
C 2.33 1222.19 1.13 1213.03 2.00 1204.00
C 1.64 1205.47 0.84 1208.60 0.00 1210.00 Z"/>
</g>
<g fill="#3E4BEA" fill-opacity="0.43" stroke="None">
<path d="
M 0.00 1237.00 
C 1.47 1237.83 3.25 1239.07 3.00 1241.00
L 569.00 1241.00
C 569.00 1240.00 569.00 1239.00 569.00 1238.00
C 555.33 1238.00 541.67 1238.00 528.00 1238.00 C 514.33 1238.00 500.67 1238.00 487.00 1238.00 C 473.33 1238.00 459.67 1238.00 446.00 1238.00 C 432.33 1238.00 418.66 1238.00 405.00 1238.00 C 391.34 1238.00 377.66 1238.00 364.00 1238.00 C 350.34 1238.00 336.66 1238.00 323.00 1238.00 C 309.34 1238.00 295.65 1238.01 282.00 1238.00 C 268.35 1237.99 254.62 1238.02 241.00 1238.00 C 227.38 1237.98 213.57 1238.05 200.00 1238.00 C 186.43 1237.95 172.46 1238.11 159.00 1238.00 C 145.54 1237.89 131.20 1238.24 118.00 1238.00 C 104.80 1237.76 89.63 1238.54 77.00 1238.00 C 64.37 1237.46 47.38 1239.20 36.00 1238.00 C 24.62 1236.80 3.98 1243.75 3.00 1231.00
C 2.62 1230.52 0.36 1231.02 0.00 1230.00
L 0.00 1237.00 Z"/>
</g>
<g fill="#3545C6" fill-opacity="0.07" stroke="None">
<path d="
M 0.00 1241.00 
L 3.00 1241.00
C 3.25 1239.07 1.47 1237.83 0.00 1237.00
L 0.00 1241.00 Z"/>
</g>
<g fill="#5463F3" fill-opacity="0.70" stroke="None">
<path d="
M 582.00 1238.00 
C 585.09 1237.71 589.71 1237.41 592.00 1239.00
C 593.18 1236.05 584.62 1236.76 582.00 1237.00
C 582.00 1237.00 582.00 1237.50 582.00 1238.00 Z"/>
</g>
<g fill="#5462F3" fill-opacity="0.50" stroke="None">
<path d="
M 582.00 1239.00 
C 584.75 1239.25 589.51 1237.89 592.00 1239.00
C 589.71 1237.41 585.09 1237.71 582.00 1238.00
C 582.00 1238.00 582.00 1238.50 582.00 1239.00 Z"/>
</g>
<g fill="#5261F2" fill-opacity="0.33" stroke="None">
<path d="
M 582.00 1241.00 
L 592.00 1241.00
C 592.00 1240.50 591.83 1239.43 592.00 1239.00
C 589.51 1237.89 584.75 1239.25 582.00 1239.00
C 582.00 1239.50 582.00 1240.50 582.00 1241.00 Z"/>
</g>
</svg>