<svg xmlns="http://www.w3.org/2000/svg" xmlns:v="https://svgstorm.com"
viewBox = "0 0 2062 1241"
width="2062"
height="1241">
<g fill="None" fill-opacity="0.0" stroke="#000000" stroke-opacity="0.00" stroke-width="0.3"><path d="
M 0.00 1241.00 
L 2062.00 1241.00
L 2062.00 0.00
L 0.00 0.00
L 0.00 1241.00
M 666.00 353.00 
C 682.17 349.34 700.37 354.65 717.00 353.00 C 733.63 351.35 751.17 353.74 768.00 353.00 C 784.83 352.26 802.07 353.33 819.00 353.00 C 835.93 352.67 853.03 353.13 870.00 353.00 C 886.97 352.87 904.01 353.02 921.00 353.00 C 938.00 352.98 954.98 352.93 972.00 353.00 C 989.02 353.07 1005.96 352.79 1023.00 353.00 C 1040.04 353.21 1056.90 352.50 1074.00 353.00 C 1091.10 353.50 1108.88 351.92 1126.00 353.00
C 1142.53 354.05 1162.77 356.07 1179.00 361.00
C 1187.19 360.23 1196.40 362.22 1203.00 365.00
C 1209.44 367.71 1216.50 368.43 1223.00 371.00
C 1217.36 373.05 1221.25 372.02 1224.00 375.00
C 1236.52 376.08 1248.67 383.75 1260.00 390.00
C 1269.67 395.33 1280.21 403.87 1287.75 412.25 C 1295.30 420.63 1307.24 428.70 1311.00 439.00
C 1311.76 441.09 1311.15 451.81 1316.00 447.00
C 1322.06 461.92 1332.09 470.98 1332.00 489.00
C 1333.55 481.04 1333.56 485.18 1335.92 490.08 C 1338.28 494.98 1336.56 500.22 1340.00 504.00
C 1342.22 510.48 1341.93 517.58 1343.33 524.67 C 1344.73 531.76 1346.69 538.31 1347.00 546.00 C 1347.31 553.69 1346.76 563.20 1347.00 571.00 C 1347.24 578.80 1346.66 587.33 1347.00 595.00 C 1347.34 602.67 1347.19 611.64 1345.08 618.08 C 1342.98 624.52 1346.48 635.88 1343.00 641.00 C 1339.52 646.12 1344.38 659.46 1338.00 661.00
C 1336.37 661.40 1339.00 658.26 1339.00 658.00
C 1331.95 663.54 1340.81 684.79 1329.00 686.00
C 1330.05 693.05 1324.61 698.53 1326.00 705.00
C 1325.09 715.52 1318.44 727.83 1314.00 738.00
C 1312.08 742.40 1308.58 746.13 1308.00 751.00
C 1303.50 747.72 1310.41 746.20 1308.00 743.00
C 1304.95 747.66 1304.02 754.06 1299.00 757.00
C 1298.63 758.54 1300.43 759.40 1300.00 761.00
C 1299.81 763.38 1297.59 769.80 1294.00 768.00
C 1293.71 775.39 1286.41 785.46 1280.00 787.00
C 1278.49 790.72 1274.56 797.88 1270.00 797.00
C 1270.90 803.50 1264.11 806.35 1260.25 811.25 C 1256.39 816.14 1250.43 819.59 1246.75 824.75 C 1243.08 829.91 1234.05 833.17 1235.00 838.00
C 1232.16 837.41 1228.02 839.22 1226.00 837.00
C 1216.81 834.51 1208.18 824.52 1200.25 818.75 C 1192.32 812.98 1186.25 800.91 1183.00 792.00
C 1181.38 788.65 1176.54 787.37 1176.08 782.92 C 1175.62 778.47 1173.57 773.66 1172.00 770.00
C 1175.81 772.04 1173.74 763.96 1171.67 760.33 C 1169.60 756.70 1172.13 750.89 1170.00 747.00
C 1173.13 745.51 1174.73 742.44 1174.00 739.00
C 1175.04 735.89 1178.26 733.57 1178.00 730.00
C 1180.03 734.61 1179.11 730.58 1182.00 729.00
C 1182.41 724.25 1182.71 719.78 1185.00 715.00
C 1188.79 707.07 1191.15 699.11 1194.00 691.00
C 1196.03 685.21 1198.70 678.96 1200.00 673.00
C 1200.21 665.55 1201.26 657.70 1203.75 650.75 C 1206.25 643.81 1205.58 636.02 1207.33 628.33 C 1209.08 620.64 1208.41 612.29 1209.00 604.00 C 1209.59 595.71 1206.97 584.86 1209.00 577.00 C 1211.03 569.14 1211.01 562.57 1209.00 555.00 C 1207.00 547.42 1210.27 536.06 1209.00 529.00 C 1207.73 521.94 1207.23 511.32 1206.67 505.33 C 1206.11 499.34 1204.51 486.39 1202.00 495.00
C 1201.98 482.15 1194.77 473.63 1194.00 462.00
C 1191.67 458.57 1187.46 456.14 1185.00 451.00
C 1182.92 446.65 1180.05 444.64 1177.00 441.00
C 1174.90 438.50 1171.83 434.64 1172.00 431.00
C 1167.87 431.94 1165.14 427.76 1163.00 425.00
C 1166.15 424.96 1167.30 429.02 1170.00 430.00
C 1162.28 417.75 1149.44 408.61 1137.00 406.00
C 1142.63 404.30 1131.86 398.77 1128.00 401.00
C 1136.31 405.56 1121.68 400.55 1119.00 398.00
C 1113.29 395.05 1105.61 394.15 1100.00 392.00
C 1066.80 383.39 1031.15 384.87 994.00 385.00 C 956.85 385.13 918.28 384.90 881.00 385.00
C 881.00 555.67 881.00 726.34 881.00 897.00
C 912.58 896.34 944.87 898.33 976.00 896.00
C 976.53 897.28 975.03 897.86 975.00 899.00
C 979.88 898.11 987.86 897.25 993.00 895.00
C 995.28 893.56 996.61 890.06 1001.00 892.00
C 999.67 889.50 995.26 892.57 994.00 890.00
C 1001.08 889.93 1007.37 887.52 1014.00 886.00
C 1020.89 882.85 1028.12 878.06 1036.00 875.00
C 1042.82 872.36 1049.61 871.71 1056.00 868.00
C 1056.22 867.87 1056.00 867.00 1056.00 867.00
C 1054.36 867.68 1052.80 868.63 1051.00 869.00
C 1053.05 866.41 1057.95 863.27 1060.00 863.00
C 1060.61 862.60 1062.42 861.33 1063.00 861.00
C 1065.45 859.60 1069.83 859.55 1069.00 864.00
C 1062.96 873.57 1066.55 890.24 1064.00 902.00
C 1061.16 905.82 1063.92 912.61 1061.00 916.00
C 1058.65 918.72 1052.37 918.10 1049.00 919.00
C 1041.81 920.92 1031.86 922.34 1023.00 923.00 C 1014.14 923.66 1007.83 929.39 998.00 928.00 C 988.17 926.61 979.77 930.34 970.00 930.00 C 960.23 929.66 949.90 930.15 940.00 930.00 C 930.10 929.85 919.96 930.07 910.00 930.00 C 900.04 929.93 889.99 930.03 880.00 930.00 C 870.01 929.97 860.01 930.01 850.00 930.00 C 839.99 929.99 830.05 930.01 820.00 930.00 C 809.95 929.99 800.11 930.00 790.00 930.00 C 779.89 930.00 770.25 930.00 760.00 930.00 C 749.75 930.00 740.56 929.99 730.00 930.00 C 719.44 930.01 711.24 929.98 700.00 930.00 C 688.76 930.02 682.75 929.96 670.00 930.00 C 657.25 930.04 667.19 920.61 678.00 926.00
C 678.90 921.25 684.49 923.52 688.00 923.00
C 692.28 922.00 700.81 918.92 704.00 918.00
C 708.54 916.69 711.06 914.66 715.03 912.03 C 719.01 909.40 724.60 911.76 728.00 911.00
C 731.58 909.11 735.04 905.50 740.00 906.00
C 746.15 895.92 758.06 886.77 764.00 875.00
C 769.65 862.39 763.16 842.19 765.00 826.00 C 766.84 809.81 764.16 789.90 765.00 773.00 C 765.84 756.10 764.63 738.23 765.00 721.00 C 765.37 703.77 764.85 685.37 765.00 668.00 C 765.15 650.63 764.97 633.43 765.00 616.00 C 765.03 598.57 765.07 580.43 765.00 563.00 C 764.93 545.57 765.22 528.38 765.00 511.00 C 764.78 493.62 765.50 475.25 765.00 458.00 C 764.50 440.75 767.01 423.03 763.00 407.00
C 764.82 406.45 765.47 408.75 767.00 409.00
C 766.58 406.72 763.77 405.24 765.00 402.00
C 762.36 401.55 761.76 397.70 759.00 400.00
C 757.27 391.56 750.89 388.79 745.25 383.75 C 739.61 378.71 735.56 373.91 727.32 373.68 C 719.09 373.45 713.15 361.12 704.00 362.00
C 699.38 361.53 688.30 359.58 683.00 359.00 C 677.70 358.42 659.95 354.37 666.00 353.00
M 1450.00 692.00 
C 1447.65 688.64 1443.43 686.28 1443.00 682.00
C 1447.94 686.01 1455.35 692.75 1454.00 698.00
C 1454.71 703.41 1459.70 714.60 1466.00 714.00
C 1463.96 719.10 1468.60 722.12 1469.00 727.00
C 1470.56 720.57 1473.77 725.88 1474.00 730.00
C 1474.85 732.04 1478.03 737.24 1477.00 739.00
C 1476.81 739.32 1476.03 739.79 1476.00 740.00
C 1475.47 743.45 1479.22 745.55 1480.00 748.00
C 1479.81 747.87 1482.52 747.38 1483.00 747.00
C 1483.60 757.11 1489.84 764.71 1489.00 775.00
C 1491.75 779.04 1493.23 785.82 1495.00 791.00
C 1497.93 799.55 1496.79 809.90 1499.00 819.00
C 1497.84 819.79 1496.47 817.04 1496.00 819.00
C 1498.83 827.28 1495.63 841.56 1501.00 848.00
C 1498.58 857.39 1498.83 868.27 1499.00 879.00
C 1498.64 886.33 1497.65 896.18 1496.00 904.00
C 1493.33 902.55 1496.50 898.21 1495.00 897.00
C 1494.95 897.23 1494.18 897.67 1494.00 898.00
C 1494.27 914.84 1487.39 933.84 1478.00 947.00
C 1477.03 948.36 1475.93 949.68 1475.00 951.00
C 1476.21 949.68 1478.23 948.13 1480.00 948.00
C 1473.82 953.26 1474.32 962.29 1468.00 967.00
C 1466.75 968.79 1464.29 975.12 1462.00 971.00
C 1453.93 987.93 1437.69 1001.69 1425.00 1015.00
C 1421.72 1011.03 1413.73 1016.24 1418.00 1020.00
C 1415.30 1019.41 1413.17 1021.97 1412.00 1024.00
C 1407.13 1020.30 1403.89 1024.77 1399.00 1026.00
C 1399.60 1033.94 1385.29 1035.24 1380.00 1036.00
C 1375.71 1037.88 1368.10 1041.98 1362.00 1042.00
C 1342.54 1048.74 1318.99 1045.44 1298.00 1044.00
C 1300.54 1041.63 1296.72 1041.33 1297.00 1039.00
C 1293.49 1038.24 1291.23 1038.13 1288.00 1037.00
C 1289.10 1037.88 1289.07 1039.98 1290.00 1041.00
C 1280.71 1036.21 1265.39 1037.08 1259.00 1027.00
C 1256.70 1026.83 1255.13 1027.56 1253.00 1028.00
C 1251.09 1024.60 1247.82 1016.28 1243.00 1021.00
C 1239.80 1016.83 1234.54 1014.91 1230.00 1013.00
C 1232.91 1008.91 1226.20 1003.52 1222.00 1007.00
C 1220.04 1004.65 1218.19 1001.94 1215.00 1002.00
C 1205.42 995.94 1203.34 989.32 1193.25 982.75 C 1183.15 976.18 1178.49 965.64 1165.00 965.00 C 1151.51 964.37 1139.18 968.89 1128.00 972.00
C 1124.15 981.52 1110.83 989.65 1105.00 999.00
C 1104.49 1000.67 1102.60 1006.11 1100.00 1006.00
C 1092.93 1005.70 1096.22 989.38 1094.67 984.33 C 1093.12 979.28 1092.15 967.06 1091.00 961.00
C 1089.95 955.45 1091.00 948.66 1091.00 943.00 C 1091.00 937.34 1089.95 930.54 1091.00 925.00
C 1092.17 918.82 1093.98 910.93 1093.00 904.00 C 1092.02 897.07 1091.17 898.90 1093.00 893.00 C 1094.83 887.10 1095.13 878.65 1095.33 872.33 C 1095.53 866.01 1099.10 867.64 1097.00 862.00 C 1094.90 856.36 1099.15 855.58 1100.00 853.00
C 1099.75 849.29 1098.47 839.42 1100.33 836.33 C 1102.20 833.24 1100.56 824.21 1104.00 823.00
C 1105.29 818.95 1105.35 813.40 1106.00 809.00 C 1106.65 804.60 1109.15 798.12 1109.26 794.26 C 1109.36 790.40 1111.87 779.18 1113.00 785.00
C 1113.93 781.52 1116.96 778.66 1117.00 773.00
C 1117.05 765.73 1118.47 755.47 1121.00 747.00
C 1121.95 748.69 1123.52 746.27 1124.00 748.00
C 1128.53 752.01 1126.65 765.99 1130.00 772.00
C 1131.44 774.59 1133.85 777.40 1133.00 781.00
C 1135.26 770.61 1135.64 785.76 1139.00 789.00
C 1141.80 796.06 1142.29 801.34 1146.00 808.00
C 1145.45 806.74 1145.07 805.24 1145.00 805.00
C 1144.44 803.19 1143.27 801.93 1143.00 800.00
C 1147.10 802.40 1147.03 807.63 1150.00 811.00
C 1151.27 813.91 1151.59 817.45 1154.00 820.00
C 1150.47 820.20 1151.18 815.74 1149.00 814.00
C 1148.77 813.75 1148.00 814.00 1148.00 814.00
C 1150.01 818.61 1153.50 831.44 1159.00 828.00
C 1161.07 834.68 1168.14 844.26 1171.92 851.08 C 1175.70 857.90 1175.13 869.58 1185.00 870.00
C 1188.09 873.27 1185.43 880.01 1187.78 883.22 C 1190.13 886.44 1194.19 895.31 1196.00 890.00
C 1197.78 893.35 1197.83 898.17 1202.00 900.00
C 1198.95 903.31 1203.39 904.83 1203.00 908.00
C 1205.96 902.82 1207.86 914.68 1211.78 918.22 C 1215.69 921.77 1218.71 929.67 1224.00 932.00
C 1220.64 939.81 1232.17 942.60 1235.25 948.75 C 1238.32 954.90 1251.10 954.41 1248.00 961.00
C 1253.82 962.61 1256.89 964.21 1262.00 967.00
C 1268.02 970.92 1274.03 974.79 1280.00 978.00
C 1280.65 978.35 1283.46 979.78 1284.00 980.00
C 1286.71 981.08 1288.77 981.81 1292.03 981.97 C 1295.28 982.13 1295.72 985.74 1296.00 986.00
C 1302.46 988.66 1311.02 989.68 1318.00 991.00
C 1316.88 990.45 1316.95 987.78 1316.00 987.00
C 1322.28 992.26 1334.70 985.59 1341.00 991.00
C 1346.57 989.94 1357.59 987.20 1360.00 984.00
C 1360.86 982.87 1362.80 981.38 1366.08 980.08 C 1369.36 978.78 1369.77 982.02 1369.00 982.00
C 1371.98 980.70 1378.04 978.98 1380.68 977.68 C 1383.31 976.38 1389.45 973.28 1388.00 971.00
C 1385.05 973.05 1382.87 975.98 1379.00 976.00
C 1381.05 973.41 1385.95 970.27 1388.00 970.00
C 1397.48 972.33 1404.11 958.19 1411.75 952.75 C 1419.39 947.31 1425.10 935.52 1430.00 928.00
C 1428.38 929.80 1427.64 932.16 1426.00 934.00
C 1427.96 927.06 1433.58 915.52 1439.00 913.00
C 1440.71 909.23 1442.59 906.88 1443.00 902.00
C 1443.54 895.59 1444.35 880.15 1452.00 877.00
C 1455.87 854.13 1456.23 824.32 1452.00 802.00
C 1445.40 803.59 1445.72 792.82 1444.22 787.78 C 1442.73 782.74 1437.65 778.14 1434.00 774.00
C 1438.53 774.35 1441.42 782.66 1445.00 782.00
C 1435.54 770.71 1423.94 767.35 1410.00 772.00
C 1412.35 777.27 1402.21 779.76 1399.00 780.00
C 1397.44 780.12 1396.61 778.77 1395.00 779.00
C 1384.76 786.52 1380.14 798.29 1368.00 805.00
C 1368.36 802.39 1366.48 797.05 1371.00 798.00
C 1374.18 786.85 1371.13 776.29 1377.00 766.00
C 1378.44 758.91 1378.19 752.23 1379.00 745.00
C 1380.62 746.65 1382.31 744.48 1384.00 744.00
C 1386.69 729.81 1385.87 714.81 1386.00 700.00 C 1386.13 685.19 1386.67 670.11 1384.00 656.00
C 1383.49 654.88 1380.46 653.86 1380.00 656.00
C 1378.01 650.95 1376.64 644.05 1376.22 638.78 C 1375.80 633.50 1370.42 628.53 1373.00 625.00
C 1373.45 623.84 1372.66 622.20 1373.00 621.00
C 1393.14 633.50 1411.43 649.60 1429.00 667.00
C 1423.45 658.02 1412.72 649.96 1406.00 643.00
C 1420.82 651.11 1430.65 667.80 1443.00 679.00
C 1438.48 684.49 1446.49 688.52 1450.00 692.00 Z"/>
</g>
<g fill="None" fill-opacity="0.0" stroke="#000000" stroke-opacity="0.48" stroke-width="0.3"><path d="
M 704.00 362.00 
C 691.28 356.18 679.26 354.01 665.00 356.00
C 664.47 354.72 665.97 354.14 666.00 353.00
C 659.95 354.37 677.70 358.42 683.00 359.00 C 688.30 359.58 699.38 361.53 704.00 362.00 Z"/>
</g>
<g fill="None" fill-opacity="0.0" stroke="#000000" stroke-opacity="0.49" stroke-width="0.3"><path d="
M 1126.00 353.00 
C 1127.43 353.61 1128.09 355.79 1127.00 357.00
C 1136.23 355.84 1146.83 357.69 1155.03 358.97 C 1163.23 360.25 1172.91 361.74 1179.00 361.00
C 1162.77 356.07 1142.53 354.05 1126.00 353.00 Z"/>
</g>
<g fill="None" fill-opacity="0.0" stroke="#000000" stroke-opacity="1.00" stroke-width="0.3"><path d="
M 704.00 362.00 
C 713.15 361.12 719.09 373.45 727.32 373.68 C 735.56 373.91 739.61 378.71 745.25 383.75 C 750.89 388.79 757.27 391.56 759.00 400.00
C 761.76 397.70 762.36 401.55 765.00 402.00
C 763.77 405.24 766.58 406.72 767.00 409.00
C 769.74 423.99 765.80 439.68 767.00 455.00 C 768.20 470.32 766.46 486.50 767.00 502.00 C 767.54 517.50 766.77 533.42 767.00 549.00 C 767.23 564.58 766.92 580.39 767.00 596.00 C 767.08 611.61 767.02 627.40 767.00 643.00 C 766.98 658.60 767.14 674.46 767.00 690.00 C 766.86 705.54 767.34 721.61 767.00 737.00 C 766.66 752.39 767.78 768.95 767.00 784.00 C 766.22 799.05 768.74 816.69 767.00 831.00 C 765.26 845.31 772.23 864.36 764.00 875.00
C 758.06 886.77 746.15 895.92 740.00 906.00
C 735.04 905.50 731.58 909.11 728.00 911.00
C 723.83 913.20 718.92 912.77 714.78 915.78 C 710.64 918.79 704.16 918.02 704.00 918.00
C 700.81 918.92 692.28 922.00 688.00 923.00
C 688.68 923.00 689.86 923.33 691.00 922.00
C 690.60 927.54 683.82 925.74 680.00 926.00
C 689.47 928.01 699.64 926.76 710.00 927.00 C 720.36 927.24 731.48 926.89 742.00 927.00 C 752.52 927.11 763.41 926.94 774.00 927.00 C 784.59 927.06 795.38 926.96 806.00 927.00 C 816.62 927.04 827.39 926.96 838.00 927.00 C 848.61 927.04 859.44 926.93 870.00 927.00 C 880.56 927.07 890.45 926.85 901.00 927.00 C 911.55 927.15 922.44 926.68 933.00 927.00 C 943.56 927.32 954.50 926.30 965.00 927.00 C 975.50 927.70 984.60 923.72 995.00 925.00 C 1005.41 926.28 1014.38 922.12 1023.00 921.00 C 1031.62 919.88 1043.31 917.93 1049.00 919.00
C 1052.37 918.10 1058.65 918.72 1061.00 916.00
C 1059.94 916.55 1057.22 915.96 1056.00 916.00
C 1055.05 916.03 1054.19 917.60 1053.00 917.00
C 1054.08 913.98 1057.22 913.69 1060.00 914.00
C 1061.06 909.97 1057.36 901.95 1063.00 901.00
C 1063.29 900.94 1064.10 901.86 1064.00 902.00
C 1066.55 890.24 1062.96 873.57 1069.00 864.00
C 1069.83 859.55 1065.45 859.60 1063.00 861.00
C 1066.37 861.61 1058.34 867.28 1056.00 868.00
C 1049.61 871.71 1042.82 872.36 1036.00 875.00
C 1035.00 875.79 1033.51 878.58 1035.00 880.00
C 1029.41 883.06 1023.32 884.54 1017.00 886.00
C 1010.05 890.13 1001.24 891.40 993.00 895.00
C 987.86 897.25 979.88 898.11 975.00 899.00
C 963.24 901.15 950.98 897.77 939.00 899.00 C 927.02 900.23 915.19 897.87 903.00 899.00 C 890.81 900.13 876.81 901.15 879.00 887.00 C 881.19 872.85 878.01 863.97 879.00 851.00 C 879.99 838.03 878.55 827.44 879.00 815.00 C 879.45 802.56 878.80 791.20 879.00 779.00 C 879.20 766.80 878.91 755.09 879.00 743.00 C 879.09 730.91 878.96 719.04 879.00 707.00 C 879.04 694.96 878.98 683.02 879.00 671.00 C 879.02 658.98 878.99 647.01 879.00 635.00 C 879.01 622.99 879.00 611.00 879.00 599.00 C 879.00 587.00 879.00 575.00 879.00 563.00 C 879.00 551.00 879.00 539.00 879.00 527.00 C 879.00 515.00 879.00 503.00 879.00 491.00 C 879.00 479.00 879.00 467.00 879.00 455.00 C 879.00 443.00 879.00 431.00 879.00 419.00 C 879.00 407.00 879.00 395.00 879.00 383.00
C 916.25 383.15 954.89 382.80 992.00 383.00 C 1029.11 383.20 1066.09 380.93 1100.00 389.00
C 1105.06 390.51 1110.55 392.79 1116.00 393.00 C 1121.45 393.21 1117.86 396.30 1119.00 398.00
C 1121.68 400.55 1136.31 405.56 1128.00 401.00
C 1131.86 398.77 1142.63 404.30 1137.00 406.00
C 1149.44 408.61 1162.28 417.75 1170.00 430.00
C 1167.30 429.02 1166.15 424.96 1163.00 425.00
C 1165.14 427.76 1167.87 431.94 1172.00 431.00
C 1171.83 434.64 1174.90 438.50 1177.00 441.00
C 1178.24 441.82 1185.27 442.79 1187.00 447.00
C 1185.63 448.05 1186.77 450.44 1185.00 451.00
C 1187.46 456.14 1191.67 458.57 1194.00 462.00
C 1199.16 469.60 1200.01 478.15 1203.33 487.67 C 1206.66 497.19 1207.54 507.20 1209.33 517.67 C 1211.13 528.14 1209.27 540.03 1211.00 551.00 C 1212.73 561.97 1214.75 570.71 1211.00 581.00 C 1207.26 591.30 1212.90 605.41 1211.00 616.00 C 1209.10 626.59 1210.83 638.39 1207.03 648.03 C 1203.22 657.67 1207.43 670.86 1199.00 676.00
C 1199.02 674.88 1201.97 673.67 1200.00 673.00
C 1198.70 678.96 1196.03 685.21 1194.00 691.00
C 1194.89 689.30 1199.09 688.68 1197.00 685.00
C 1197.30 695.70 1191.87 709.19 1186.00 719.00
C 1183.51 718.35 1187.63 715.63 1185.00 715.00
C 1182.71 719.78 1182.41 724.25 1182.00 729.00
C 1181.61 733.47 1176.45 739.12 1177.00 745.00
C 1173.66 744.39 1176.31 740.14 1174.00 739.00
C 1174.73 742.44 1173.13 745.51 1170.00 747.00
C 1172.13 750.89 1169.60 756.70 1171.67 760.33 C 1173.74 763.96 1175.81 772.04 1172.00 770.00
C 1173.57 773.66 1175.62 778.47 1176.08 782.92 C 1176.54 787.37 1181.38 788.65 1183.00 792.00
C 1182.30 790.08 1179.64 789.32 1180.00 787.00
C 1186.14 796.79 1194.24 807.09 1201.67 814.33 C 1209.11 821.56 1220.85 830.40 1226.00 837.00
C 1228.02 839.22 1232.16 837.41 1235.00 838.00
C 1234.05 833.17 1243.08 829.91 1246.75 824.75 C 1250.43 819.59 1256.39 816.14 1260.25 811.25 C 1264.11 806.35 1270.90 803.50 1270.00 797.00
C 1274.56 797.88 1278.49 790.72 1280.00 787.00
C 1281.04 784.43 1285.86 776.59 1289.25 774.25 C 1292.64 771.90 1294.40 758.64 1300.00 761.00
C 1300.43 759.40 1298.63 758.54 1299.00 757.00
C 1304.02 754.06 1304.95 747.66 1308.00 743.00
C 1309.03 741.43 1309.14 740.78 1310.00 739.00
C 1312.33 734.15 1313.85 729.09 1316.75 724.75 C 1319.66 720.42 1317.54 711.59 1324.00 712.00
C 1324.26 709.65 1322.97 705.93 1326.00 705.00
C 1324.61 698.53 1330.05 693.05 1329.00 686.00
C 1340.81 684.79 1331.95 663.54 1339.00 658.00
C 1339.00 658.26 1336.37 661.40 1338.00 661.00
C 1344.79 655.47 1337.26 645.13 1340.00 638.00 C 1342.73 630.87 1341.87 620.69 1344.92 612.92 C 1347.97 605.14 1343.59 591.74 1345.00 583.00 C 1346.41 574.26 1344.28 563.03 1345.00 554.00 C 1345.72 544.97 1342.56 535.91 1341.67 527.33 C 1340.78 518.75 1337.72 510.75 1336.00 503.00
C 1337.26 503.23 1339.27 505.69 1340.00 504.00
C 1336.56 500.22 1338.28 494.98 1335.92 490.08 C 1333.56 485.18 1333.55 481.04 1332.00 489.00
C 1332.09 470.98 1322.06 461.92 1316.00 447.00
C 1311.15 451.81 1311.76 441.09 1311.00 439.00
C 1300.57 434.09 1294.49 420.75 1283.75 412.25 C 1273.01 403.75 1263.23 392.75 1250.00 390.00
C 1252.61 387.55 1256.54 391.25 1260.00 390.00
C 1248.67 383.75 1236.52 376.08 1224.00 375.00
C 1213.62 374.10 1199.01 367.03 1189.00 363.00
C 1193.45 365.28 1199.19 365.36 1203.00 365.00
C 1196.40 362.22 1187.19 360.23 1179.00 361.00
C 1172.91 361.74 1163.23 360.25 1155.03 358.97 C 1146.83 357.69 1136.23 355.84 1127.00 357.00
C 1128.09 355.79 1127.43 353.61 1126.00 353.00
C 1108.88 351.92 1091.10 353.50 1074.00 353.00 C 1056.90 352.50 1040.04 353.21 1023.00 353.00 C 1005.96 352.79 989.02 353.07 972.00 353.00 C 954.98 352.93 938.00 352.98 921.00 353.00 C 904.01 353.02 886.97 352.87 870.00 353.00 C 853.03 353.13 835.93 352.67 819.00 353.00 C 802.07 353.33 784.83 352.26 768.00 353.00 C 751.17 353.74 733.63 351.35 717.00 353.00 C 700.37 354.65 682.17 349.34 666.00 353.00
C 665.97 354.14 664.47 354.72 665.00 356.00
C 679.26 354.01 691.28 356.18 704.00 362.00
M 1248.00 387.00 
C 1244.67 383.98 1239.33 384.13 1237.00 380.00
C 1240.50 382.17 1246.76 382.66 1248.00 387.00 Z"/>
</g>
<g fill="None" fill-opacity="0.0" stroke="#000000" stroke-opacity="0.55" stroke-width="0.3"><path d="
M 1224.00 375.00 
C 1221.25 372.02 1217.36 373.05 1223.00 371.00
C 1216.50 368.43 1209.44 367.71 1203.00 365.00
C 1199.19 365.36 1193.45 365.28 1189.00 363.00
C 1199.01 367.03 1213.62 374.10 1224.00 375.00 Z"/>
</g>
<g fill="None" fill-opacity="0.0" stroke="#000000" stroke-opacity="0.73" stroke-width="0.3"><path d="
M 1248.00 387.00 
C 1246.76 382.66 1240.50 382.17 1237.00 380.00
C 1239.33 384.13 1244.67 383.98 1248.00 387.00 Z"/>
</g>
<g fill="None" fill-opacity="0.0" stroke="#000000" stroke-opacity="0.45" stroke-width="0.3"><path d="
M 975.00 899.00 
C 975.03 897.86 976.53 897.28 976.00 896.00
C 944.87 898.33 912.58 896.34 881.00 897.00
C 881.00 726.34 881.00 555.67 881.00 385.00
C 918.28 384.90 956.85 385.13 994.00 385.00 C 1031.15 384.87 1066.80 383.39 1100.00 392.00
C 1097.86 391.18 1092.92 391.61 1093.00 388.00
C 1094.72 389.61 1098.31 391.35 1100.00 389.00
C 1066.09 380.93 1029.11 383.20 992.00 383.00 C 954.89 382.80 916.25 383.15 879.00 383.00
C 879.00 395.00 879.00 407.00 879.00 419.00 C 879.00 431.00 879.00 443.00 879.00 455.00 C 879.00 467.00 879.00 479.00 879.00 491.00 C 879.00 503.00 879.00 515.00 879.00 527.00 C 879.00 539.00 879.00 551.00 879.00 563.00 C 879.00 575.00 879.00 587.00 879.00 599.00 C 879.00 611.00 879.01 622.99 879.00 635.00 C 878.99 647.01 879.02 658.98 879.00 671.00 C 878.98 683.02 879.04 694.96 879.00 707.00 C 878.96 719.04 879.09 730.91 879.00 743.00 C 878.91 755.09 879.20 766.80 879.00 779.00 C 878.80 791.20 879.45 802.56 879.00 815.00 C 878.55 827.44 879.99 838.03 879.00 851.00 C 878.01 863.97 881.19 872.85 879.00 887.00 C 876.81 901.15 890.81 900.13 903.00 899.00 C 915.19 897.87 927.02 900.23 939.00 899.00 C 950.98 897.77 963.24 901.15 975.00 899.00 Z"/>
</g>
<g fill="None" fill-opacity="0.0" stroke="#000000" stroke-opacity="0.54" stroke-width="0.3"><path d="
M 1100.00 392.00 
C 1105.61 394.15 1113.29 395.05 1119.00 398.00
C 1117.86 396.30 1121.45 393.21 1116.00 393.00 C 1110.55 392.79 1105.06 390.51 1100.00 389.00
C 1098.31 391.35 1094.72 389.61 1093.00 388.00
C 1092.92 391.61 1097.86 391.18 1100.00 392.00 Z"/>
</g>
<g fill="None" fill-opacity="0.0" stroke="#000000" stroke-opacity="0.51" stroke-width="0.3"><path d="
M 1311.00 439.00 
C 1307.24 428.70 1295.30 420.63 1287.75 412.25 C 1280.21 403.87 1269.67 395.33 1260.00 390.00
C 1256.54 391.25 1252.61 387.55 1250.00 390.00
C 1263.23 392.75 1273.01 403.75 1283.75 412.25 C 1294.49 420.75 1300.57 434.09 1311.00 439.00 Z"/>
</g>
<g fill="None" fill-opacity="0.0" stroke="#000000" stroke-opacity="0.42" stroke-width="0.3"><path d="
M 764.00 875.00 
C 772.23 864.36 765.26 845.31 767.00 831.00 C 768.74 816.69 766.22 799.05 767.00 784.00 C 767.78 768.95 766.66 752.39 767.00 737.00 C 767.34 721.61 766.86 705.54 767.00 690.00 C 767.14 674.46 766.98 658.60 767.00 643.00 C 767.02 627.40 767.08 611.61 767.00 596.00 C 766.92 580.39 767.23 564.58 767.00 549.00 C 766.77 533.42 767.54 517.50 767.00 502.00 C 766.46 486.50 768.20 470.32 767.00 455.00 C 765.80 439.68 769.74 423.99 767.00 409.00
C 765.47 408.75 764.82 406.45 763.00 407.00
C 767.01 423.03 764.50 440.75 765.00 458.00 C 765.50 475.25 764.78 493.62 765.00 511.00 C 765.22 528.38 764.93 545.57 765.00 563.00 C 765.07 580.43 765.03 598.57 765.00 616.00 C 764.97 633.43 765.15 650.63 765.00 668.00 C 764.85 685.37 765.37 703.77 765.00 721.00 C 764.63 738.23 765.84 756.10 765.00 773.00 C 764.16 789.90 766.84 809.81 765.00 826.00 C 763.16 842.19 769.65 862.39 764.00 875.00 Z"/>
</g>
<g fill="None" fill-opacity="0.0" stroke="#000000" stroke-opacity="0.52" stroke-width="0.3"><path d="
M 1177.00 441.00 
C 1180.05 444.64 1182.92 446.65 1185.00 451.00
C 1186.77 450.44 1185.63 448.05 1187.00 447.00
C 1185.27 442.79 1178.24 441.82 1177.00 441.00 Z"/>
</g>
<g fill="None" fill-opacity="0.0" stroke="#000000" stroke-opacity="0.49" stroke-width="0.3"><path d="
M 1200.00 673.00 
C 1201.97 673.67 1199.02 674.88 1199.00 676.00
C 1207.43 670.86 1203.22 657.67 1207.03 648.03 C 1210.83 638.39 1209.10 626.59 1211.00 616.00 C 1212.90 605.41 1207.26 591.30 1211.00 581.00 C 1214.75 570.71 1212.73 561.97 1211.00 551.00 C 1209.27 540.03 1211.13 528.14 1209.33 517.67 C 1207.54 507.20 1206.66 497.19 1203.33 487.67 C 1200.01 478.15 1199.16 469.60 1194.00 462.00
C 1194.77 473.63 1201.98 482.15 1202.00 495.00
C 1204.51 486.39 1206.11 499.34 1206.67 505.33 C 1207.23 511.32 1207.73 521.94 1209.00 529.00 C 1210.27 536.06 1207.00 547.42 1209.00 555.00 C 1211.01 562.57 1211.03 569.14 1209.00 577.00 C 1206.97 584.86 1209.59 595.71 1209.00 604.00 C 1208.41 612.29 1209.08 620.64 1207.33 628.33 C 1205.58 636.02 1206.25 643.81 1203.75 650.75 C 1201.26 657.70 1200.21 665.55 1200.00 673.00 Z"/>
</g>
<g fill="None" fill-opacity="0.0" stroke="#000000" stroke-opacity="0.44" stroke-width="0.3"><path d="
M 1338.00 661.00 
C 1344.38 659.46 1339.52 646.12 1343.00 641.00 C 1346.48 635.88 1342.98 624.52 1345.08 618.08 C 1347.19 611.64 1347.34 602.67 1347.00 595.00 C 1346.66 587.33 1347.24 578.80 1347.00 571.00 C 1346.76 563.20 1347.31 553.69 1347.00 546.00 C 1346.69 538.31 1344.73 531.76 1343.33 524.67 C 1341.93 517.58 1342.22 510.48 1340.00 504.00
C 1339.27 505.69 1337.26 503.23 1336.00 503.00
C 1337.72 510.75 1340.78 518.75 1341.67 527.33 C 1342.56 535.91 1345.72 544.97 1345.00 554.00 C 1344.28 563.03 1346.41 574.26 1345.00 583.00 C 1343.59 591.74 1347.97 605.14 1344.92 612.92 C 1341.87 620.69 1342.73 630.87 1340.00 638.00 C 1337.26 645.13 1344.79 655.47 1338.00 661.00 Z"/>
</g>
<g fill="None" fill-opacity="0.0" stroke="#000000" stroke-opacity="0.99" stroke-width="0.3"><path d="
M 1373.00 625.00 
C 1373.75 629.26 1381.10 633.26 1379.97 639.03 C 1378.85 644.79 1383.03 650.90 1384.00 656.00
C 1386.67 670.11 1386.13 685.19 1386.00 700.00 C 1385.87 714.81 1386.69 729.81 1384.00 744.00
C 1383.36 747.40 1380.17 754.03 1380.25 757.25 C 1380.32 760.46 1377.81 771.49 1377.00 766.00
C 1371.13 776.29 1374.18 786.85 1371.00 798.00
C 1366.48 797.05 1368.36 802.39 1368.00 805.00
C 1380.14 798.29 1384.76 786.52 1395.00 779.00
C 1396.61 778.77 1397.44 780.12 1399.00 780.00
C 1397.72 776.69 1407.40 772.87 1410.00 772.00
C 1423.94 767.35 1435.54 770.71 1445.00 782.00
C 1448.24 785.86 1451.04 796.93 1452.00 802.00
C 1456.23 824.32 1455.87 854.13 1452.00 877.00
C 1450.50 885.85 1446.36 894.31 1443.00 902.00
C 1442.59 906.88 1440.71 909.23 1439.00 913.00
C 1436.29 919.00 1434.56 922.92 1430.00 928.00
C 1425.10 935.52 1419.39 947.31 1411.75 952.75 C 1404.11 958.19 1397.48 972.33 1388.00 970.00
C 1388.25 970.26 1388.00 971.00 1388.00 971.00
C 1389.45 973.28 1383.31 976.38 1380.68 977.68 C 1378.04 978.98 1371.98 980.70 1369.00 982.00
C 1366.16 983.24 1362.73 982.86 1360.00 984.00
C 1357.59 987.20 1346.57 989.94 1341.00 991.00
C 1334.87 992.16 1324.13 992.16 1318.00 991.00
C 1311.02 989.68 1302.46 988.66 1296.00 986.00
C 1291.58 984.18 1286.11 981.91 1284.00 980.00
C 1283.46 979.78 1280.65 978.35 1280.00 978.00
C 1277.94 978.04 1281.31 979.38 1281.00 980.00
C 1272.81 978.52 1265.46 972.91 1259.00 969.00
C 1259.24 967.33 1261.85 968.83 1262.00 967.00
C 1256.89 964.21 1253.82 962.61 1248.00 961.00
C 1251.10 954.41 1238.32 954.90 1235.25 948.75 C 1232.17 942.60 1220.64 939.81 1224.00 932.00
C 1218.71 929.67 1215.69 921.77 1211.78 918.22 C 1207.86 914.68 1205.96 902.82 1203.00 908.00
C 1203.39 904.83 1198.95 903.31 1202.00 900.00
C 1197.83 898.17 1197.78 893.35 1196.00 890.00
C 1194.19 895.31 1190.13 886.44 1187.78 883.22 C 1185.43 880.01 1188.09 873.27 1185.00 870.00
C 1175.13 869.58 1175.70 857.90 1171.92 851.08 C 1168.14 844.26 1161.07 834.68 1159.00 828.00
C 1153.50 831.44 1150.01 818.61 1148.00 814.00
C 1146.95 812.19 1146.81 809.87 1146.00 808.00
C 1142.29 801.34 1141.80 796.06 1139.00 789.00
C 1132.02 791.01 1131.99 777.38 1130.00 772.00
C 1126.65 765.99 1128.53 752.01 1124.00 748.00
C 1125.85 753.08 1120.50 756.19 1120.74 760.74 C 1120.98 765.30 1118.15 769.59 1117.00 773.00
C 1116.96 778.66 1113.93 781.52 1113.00 785.00
C 1109.51 798.07 1109.81 810.27 1106.00 823.00
C 1103.05 832.87 1101.86 846.18 1100.00 855.00
C 1098.72 866.20 1100.49 878.81 1097.00 889.00
C 1095.28 894.02 1094.81 903.01 1095.00 909.00 C 1095.19 914.99 1097.35 926.10 1091.00 925.00
C 1089.95 930.54 1091.00 937.34 1091.00 943.00 C 1091.00 948.66 1089.95 955.45 1091.00 961.00
C 1099.76 959.83 1091.80 977.95 1096.26 982.74 C 1100.71 987.54 1093.96 993.18 1097.00 996.00 C 1100.04 998.82 1095.86 1004.94 1100.00 1006.00
C 1102.60 1006.11 1104.49 1000.67 1105.00 999.00
C 1107.86 989.72 1115.00 982.51 1124.25 974.25 C 1133.49 965.99 1147.22 961.98 1160.00 962.00 C 1172.78 962.02 1184.26 968.26 1192.25 977.75 C 1200.24 987.24 1212.67 990.66 1215.00 1002.00
C 1218.19 1001.94 1220.04 1004.65 1222.00 1007.00
C 1226.20 1003.52 1232.91 1008.91 1230.00 1013.00
C 1234.54 1014.91 1239.80 1016.83 1243.00 1021.00
C 1247.82 1016.28 1251.09 1024.60 1253.00 1028.00
C 1255.13 1027.56 1256.70 1026.83 1259.00 1027.00
C 1263.74 1027.36 1268.50 1029.65 1272.68 1032.32 C 1276.86 1034.99 1283.20 1035.31 1288.00 1037.00
C 1291.23 1038.13 1293.49 1038.24 1297.00 1039.00
C 1318.26 1043.63 1340.41 1042.06 1362.00 1042.00
C 1368.10 1041.98 1375.71 1037.88 1380.00 1036.00
C 1378.73 1036.18 1378.30 1037.92 1377.00 1038.00
C 1381.27 1030.97 1392.12 1031.44 1399.00 1026.00
C 1403.89 1024.77 1407.13 1020.30 1412.00 1024.00
C 1413.17 1021.97 1415.30 1019.41 1418.00 1020.00
C 1413.73 1016.24 1421.72 1011.03 1425.00 1015.00
C 1437.69 1001.69 1453.93 987.93 1462.00 971.00
C 1464.29 975.12 1466.75 968.79 1468.00 967.00
C 1468.96 965.63 1470.23 964.44 1471.00 963.00
C 1469.82 964.36 1467.81 965.24 1466.00 965.00
C 1471.15 959.59 1471.23 951.12 1478.00 947.00
C 1481.35 940.08 1483.93 930.64 1487.90 923.90 C 1491.87 917.16 1489.98 905.51 1494.00 898.00
C 1494.18 897.67 1494.95 897.23 1495.00 897.00
C 1494.95 891.67 1495.03 886.33 1495.00 881.00
C 1497.21 881.73 1496.66 878.26 1499.00 879.00
C 1498.83 868.27 1498.58 857.39 1501.00 848.00
C 1495.63 841.56 1498.83 827.28 1496.00 819.00
C 1493.08 810.46 1494.78 799.91 1492.00 791.00
C 1493.16 790.21 1494.53 792.96 1495.00 791.00
C 1493.23 785.82 1491.75 779.04 1489.00 775.00
C 1484.87 768.92 1483.01 757.41 1480.00 748.00
C 1479.22 745.55 1475.47 743.45 1476.00 740.00
C 1474.85 737.24 1475.35 735.39 1475.00 733.00
C 1474.57 731.78 1474.07 730.25 1474.00 730.00
C 1473.77 725.88 1470.56 720.57 1469.00 727.00
C 1468.60 722.12 1463.96 719.10 1466.00 714.00
C 1459.70 714.60 1454.71 703.41 1454.00 698.00
C 1453.12 696.34 1451.06 693.51 1450.00 692.00
C 1446.49 688.52 1438.48 684.49 1443.00 679.00
C 1430.65 667.80 1420.82 651.11 1406.00 643.00
C 1412.72 649.96 1423.45 658.02 1429.00 667.00
C 1411.43 649.60 1393.14 633.50 1373.00 621.00
C 1372.66 622.20 1373.45 623.84 1373.00 625.00 Z"/>
</g>
<g fill="None" fill-opacity="0.0" stroke="#000000" stroke-opacity="0.51" stroke-width="0.3"><path d="
M 1384.00 656.00 
C 1383.03 650.90 1378.85 644.79 1379.97 639.03 C 1381.10 633.26 1373.75 629.26 1373.00 625.00
C 1370.42 628.53 1375.80 633.50 1376.22 638.78 C 1376.64 644.05 1378.01 650.95 1380.00 656.00
C 1380.46 653.86 1383.49 654.88 1384.00 656.00 Z"/>
</g>
<g fill="None" fill-opacity="0.0" stroke="#000000" stroke-opacity="0.37" stroke-width="0.3"><path d="
M 1450.00 692.00 
C 1451.06 693.51 1453.12 696.34 1454.00 698.00
C 1455.35 692.75 1447.94 686.01 1443.00 682.00
C 1443.43 686.28 1447.65 688.64 1450.00 692.00 Z"/>
</g>
<g fill="None" fill-opacity="0.0" stroke="#000000" stroke-opacity="0.53" stroke-width="0.3"><path d="
M 1194.00 691.00 
C 1191.15 699.11 1188.79 707.07 1185.00 715.00
C 1187.63 715.63 1183.51 718.35 1186.00 719.00
C 1191.87 709.19 1197.30 695.70 1197.00 685.00
C 1199.09 688.68 1194.89 689.30 1194.00 691.00 Z"/>
</g>
<g fill="None" fill-opacity="0.0" stroke="#000000" stroke-opacity="0.49" stroke-width="0.3"><path d="
M 1310.00 739.00 
C 1310.05 738.96 1312.97 739.24 1314.00 738.00
C 1318.44 727.83 1325.09 715.52 1326.00 705.00
C 1322.97 705.93 1324.26 709.65 1324.00 712.00
C 1317.54 711.59 1319.66 720.42 1316.75 724.75 C 1313.85 729.09 1312.33 734.15 1310.00 739.00 Z"/>
</g>
<g fill="None" fill-opacity="0.0" stroke="#000000" stroke-opacity="0.63" stroke-width="0.3"><path d="
M 1174.00 739.00 
C 1176.31 740.14 1173.66 744.39 1177.00 745.00
C 1176.45 739.12 1181.61 733.47 1182.00 729.00
C 1179.11 730.58 1180.03 734.61 1178.00 730.00
C 1178.26 733.57 1175.04 735.89 1174.00 739.00 Z"/>
</g>
<g fill="None" fill-opacity="0.0" stroke="#000000" stroke-opacity="0.18" stroke-width="0.3"><path d="
M 1475.00 733.00 
C 1476.03 735.94 1475.17 736.54 1477.00 739.00
C 1478.03 737.24 1474.85 732.04 1474.00 730.00
C 1474.07 730.25 1474.57 731.78 1475.00 733.00 Z"/>
</g>
<g fill="None" fill-opacity="0.0" stroke="#000000" stroke-opacity="0.68" stroke-width="0.3"><path d="
M 1476.00 740.00 
C 1476.03 739.79 1476.81 739.32 1477.00 739.00
C 1475.17 736.54 1476.03 735.94 1475.00 733.00
C 1475.35 735.39 1474.85 737.24 1476.00 740.00 Z"/>
</g>
<g fill="None" fill-opacity="0.0" stroke="#000000" stroke-opacity="0.31" stroke-width="0.3"><path d="
M 1310.00 739.00 
C 1309.14 740.78 1309.03 741.43 1308.00 743.00
C 1310.41 746.20 1303.50 747.72 1308.00 751.00
C 1308.58 746.13 1312.08 742.40 1314.00 738.00
C 1312.97 739.24 1310.05 738.96 1310.00 739.00 Z"/>
</g>
<g fill="None" fill-opacity="0.0" stroke="#000000" stroke-opacity="0.47" stroke-width="0.3"><path d="
M 1377.00 766.00 
C 1377.81 771.49 1380.32 760.46 1380.25 757.25 C 1380.17 754.03 1383.36 747.40 1384.00 744.00
C 1382.31 744.48 1380.62 746.65 1379.00 745.00
C 1378.19 752.23 1378.44 758.91 1377.00 766.00 Z"/>
</g>
<g fill="None" fill-opacity="0.0" stroke="#000000" stroke-opacity="0.52" stroke-width="0.3"><path d="
M 1117.00 773.00 
C 1118.15 769.59 1120.98 765.30 1120.74 760.74 C 1120.50 756.19 1125.85 753.08 1124.00 748.00
C 1123.52 746.27 1121.95 748.69 1121.00 747.00
C 1118.47 755.47 1117.05 765.73 1117.00 773.00 Z"/>
</g>
<g fill="None" fill-opacity="0.0" stroke="#000000" stroke-opacity="0.51" stroke-width="0.3"><path d="
M 1480.00 748.00 
C 1483.01 757.41 1484.87 768.92 1489.00 775.00
C 1489.84 764.71 1483.60 757.11 1483.00 747.00
C 1482.52 747.38 1479.81 747.87 1480.00 748.00 Z"/>
</g>
<g fill="None" fill-opacity="0.0" stroke="#000000" stroke-opacity="0.53" stroke-width="0.3"><path d="
M 1280.00 787.00 
C 1286.41 785.46 1293.71 775.39 1294.00 768.00
C 1297.59 769.80 1299.81 763.38 1300.00 761.00
C 1294.40 758.64 1292.64 771.90 1289.25 774.25 C 1285.86 776.59 1281.04 784.43 1280.00 787.00 Z"/>
</g>
<g fill="None" fill-opacity="0.0" stroke="#000000" stroke-opacity="0.60" stroke-width="0.3"><path d="
M 1139.00 789.00 
C 1135.64 785.76 1135.26 770.61 1133.00 781.00
C 1133.85 777.40 1131.44 774.59 1130.00 772.00
C 1131.99 777.38 1132.02 791.01 1139.00 789.00 Z"/>
</g>
<g fill="None" fill-opacity="0.0" stroke="#000000" stroke-opacity="0.51" stroke-width="0.3"><path d="
M 1399.00 780.00 
C 1402.21 779.76 1412.35 777.27 1410.00 772.00
C 1407.40 772.87 1397.72 776.69 1399.00 780.00 Z"/>
</g>
<g fill="None" fill-opacity="0.0" stroke="#000000" stroke-opacity="0.50" stroke-width="0.3"><path d="
M 1452.00 802.00 
C 1451.04 796.93 1448.24 785.86 1445.00 782.00
C 1441.42 782.66 1438.53 774.35 1434.00 774.00
C 1437.65 778.14 1442.73 782.74 1444.22 787.78 C 1445.72 792.82 1445.40 803.59 1452.00 802.00 Z"/>
</g>
<g fill="None" fill-opacity="0.0" stroke="#000000" stroke-opacity="0.44" stroke-width="0.3"><path d="
M 1104.00 823.00 
C 1103.92 823.03 1105.35 824.02 1106.00 823.00
C 1109.81 810.27 1109.51 798.07 1113.00 785.00
C 1111.87 779.18 1109.36 790.40 1109.26 794.26 C 1109.15 798.12 1106.65 804.60 1106.00 809.00 C 1105.35 813.40 1105.29 818.95 1104.00 823.00 Z"/>
</g>
<g fill="None" fill-opacity="0.0" stroke="#000000" stroke-opacity="0.51" stroke-width="0.3"><path d="
M 1183.00 792.00 
C 1186.25 800.91 1192.32 812.98 1200.25 818.75 C 1208.18 824.52 1216.81 834.51 1226.00 837.00
C 1220.85 830.40 1209.11 821.56 1201.67 814.33 C 1194.24 807.09 1186.14 796.79 1180.00 787.00
C 1179.64 789.32 1182.30 790.08 1183.00 792.00 Z"/>
</g>
<g fill="None" fill-opacity="0.0" stroke="#000000" stroke-opacity="0.54" stroke-width="0.3"><path d="
M 1496.00 819.00 
C 1496.47 817.04 1497.84 819.79 1499.00 819.00
C 1496.79 809.90 1497.93 799.55 1495.00 791.00
C 1494.53 792.96 1493.16 790.21 1492.00 791.00
C 1494.78 799.91 1493.08 810.46 1496.00 819.00 Z"/>
</g>
<g fill="None" fill-opacity="0.0" stroke="#000000" stroke-opacity="0.20" stroke-width="0.3"><path d="
M 1145.00 805.00 
C 1145.78 806.44 1146.23 807.37 1147.00 809.00
C 1147.61 809.78 1149.46 810.27 1150.00 811.00
C 1147.03 807.63 1147.10 802.40 1143.00 800.00
C 1143.27 801.93 1144.44 803.19 1145.00 805.00 Z"/>
</g>
<g fill="None" fill-opacity="0.0" stroke="#000000" stroke-opacity="0.65" stroke-width="0.3"><path d="
M 1146.00 808.00 
C 1146.81 809.87 1146.95 812.19 1148.00 814.00
C 1148.00 814.00 1148.77 813.75 1149.00 814.00
C 1149.39 811.63 1147.87 810.85 1147.00 809.00
C 1146.23 807.37 1145.78 806.44 1145.00 805.00
C 1145.07 805.24 1145.45 806.74 1146.00 808.00 Z"/>
</g>
<g fill="None" fill-opacity="0.0" stroke="#000000" stroke-opacity="0.34" stroke-width="0.3"><path d="
M 1149.00 814.00 
C 1151.18 815.74 1150.47 820.20 1154.00 820.00
C 1151.59 817.45 1151.27 813.91 1150.00 811.00
C 1149.46 810.27 1147.61 809.78 1147.00 809.00
C 1147.87 810.85 1149.39 811.63 1149.00 814.00 Z"/>
</g>
<g fill="None" fill-opacity="0.0" stroke="#000000" stroke-opacity="0.55" stroke-width="0.3"><path d="
M 1100.00 853.00 
C 1100.05 853.73 1100.15 853.69 1100.00 855.00
C 1101.86 846.18 1103.05 832.87 1106.00 823.00
C 1105.35 824.02 1103.92 823.03 1104.00 823.00
C 1100.56 824.21 1102.20 833.24 1100.33 836.33 C 1098.47 839.42 1099.75 849.29 1100.00 853.00 Z"/>
</g>
<g fill="None" fill-opacity="0.0" stroke="#000000" stroke-opacity="0.33" stroke-width="0.3"><path d="
M 1091.00 925.00 
C 1097.35 926.10 1095.19 914.99 1095.00 909.00 C 1094.81 903.01 1095.28 894.02 1097.00 889.00
C 1097.40 885.28 1093.95 874.29 1097.26 871.26 C 1100.56 868.22 1094.88 852.98 1100.00 853.00
C 1099.15 855.58 1094.90 856.36 1097.00 862.00 C 1099.10 867.64 1095.53 866.01 1095.33 872.33 C 1095.13 878.65 1094.83 887.10 1093.00 893.00 C 1091.17 898.90 1092.02 897.07 1093.00 904.00 C 1093.98 910.93 1092.17 918.82 1091.00 925.00 Z"/>
</g>
<g fill="None" fill-opacity="0.0" stroke="#000000" stroke-opacity="0.68" stroke-width="0.3"><path d="
M 1097.00 889.00 
C 1100.49 878.81 1098.72 866.20 1100.00 855.00
C 1100.15 853.69 1100.05 853.73 1100.00 853.00
C 1094.88 852.98 1100.56 868.22 1097.26 871.26 C 1093.95 874.29 1097.40 885.28 1097.00 889.00 Z"/>
</g>
<g fill="None" fill-opacity="0.0" stroke="#000000" stroke-opacity="0.59" stroke-width="0.3"><path d="
M 1060.00 863.00 
C 1058.63 863.89 1057.01 865.67 1056.00 867.00
C 1056.00 867.00 1056.22 867.87 1056.00 868.00
C 1058.34 867.28 1066.37 861.61 1063.00 861.00
C 1062.42 861.33 1060.61 862.60 1060.00 863.00 Z"/>
</g>
<g fill="None" fill-opacity="0.0" stroke="#000000" stroke-opacity="0.25" stroke-width="0.3"><path d="
M 1056.00 867.00 
C 1057.01 865.67 1058.63 863.89 1060.00 863.00
C 1057.95 863.27 1053.05 866.41 1051.00 869.00
C 1052.80 868.63 1054.36 867.68 1056.00 867.00 Z"/>
</g>
<g fill="None" fill-opacity="0.0" stroke="#000000" stroke-opacity="0.46" stroke-width="0.3"><path d="
M 1014.00 886.00 
C 1014.02 885.99 1017.06 885.99 1017.00 886.00
C 1023.32 884.54 1029.41 883.06 1035.00 880.00
C 1033.51 878.58 1035.00 875.79 1036.00 875.00
C 1028.12 878.06 1020.89 882.85 1014.00 886.00 Z"/>
</g>
<g fill="None" fill-opacity="0.0" stroke="#000000" stroke-opacity="0.54" stroke-width="0.3"><path d="
M 1443.00 902.00 
C 1446.36 894.31 1450.50 885.85 1452.00 877.00
C 1444.35 880.15 1443.54 895.59 1443.00 902.00 Z"/>
</g>
<g fill="None" fill-opacity="0.0" stroke="#000000" stroke-opacity="0.49" stroke-width="0.3"><path d="
M 1495.00 897.00 
C 1496.50 898.21 1493.33 902.55 1496.00 904.00
C 1497.65 896.18 1498.64 886.33 1499.00 879.00
C 1496.66 878.26 1497.21 881.73 1495.00 881.00
C 1495.03 886.33 1494.95 891.67 1495.00 897.00 Z"/>
</g>
<g fill="None" fill-opacity="0.0" stroke="#000000" stroke-opacity="0.59" stroke-width="0.3"><path d="
M 1014.00 886.00 
C 1007.37 887.52 1001.08 889.93 994.00 890.00
C 995.26 892.57 999.67 889.50 1001.00 892.00
C 996.61 890.06 995.28 893.56 993.00 895.00
C 1001.24 891.40 1010.05 890.13 1017.00 886.00
C 1017.06 885.99 1014.02 885.99 1014.00 886.00 Z"/>
</g>
<g fill="None" fill-opacity="0.0" stroke="#000000" stroke-opacity="0.54" stroke-width="0.3"><path d="
M 1478.00 947.00 
C 1487.39 933.84 1494.27 914.84 1494.00 898.00
C 1489.98 905.51 1491.87 917.16 1487.90 923.90 C 1483.93 930.64 1481.35 940.08 1478.00 947.00 Z"/>
</g>
<g fill="None" fill-opacity="0.0" stroke="#000000" stroke-opacity="0.85" stroke-width="0.3"><path d="
M 1056.00 916.00 
C 1057.19 915.71 1059.16 914.20 1061.00 915.00
C 1061.80 910.40 1059.08 903.98 1063.00 901.00
C 1057.36 901.95 1061.06 909.97 1060.00 914.00
C 1057.22 913.69 1054.08 913.98 1053.00 917.00
C 1054.19 917.60 1055.05 916.03 1056.00 916.00 Z"/>
</g>
<g fill="None" fill-opacity="0.0" stroke="#000000" stroke-opacity="0.46" stroke-width="0.3"><path d="
M 1056.00 916.00 
C 1057.22 915.96 1059.94 916.55 1061.00 916.00
C 1063.92 912.61 1061.16 905.82 1064.00 902.00
C 1064.10 901.86 1063.29 900.94 1063.00 901.00
C 1059.08 903.98 1061.80 910.40 1061.00 915.00
C 1059.16 914.20 1057.19 915.71 1056.00 916.00 Z"/>
</g>
<g fill="None" fill-opacity="0.0" stroke="#000000" stroke-opacity="0.60" stroke-width="0.3"><path d="
M 704.00 918.00 
C 704.16 918.02 710.64 918.79 714.78 915.78 C 718.92 912.77 723.83 913.20 728.00 911.00
C 724.60 911.76 719.01 909.40 715.03 912.03 C 711.06 914.66 708.54 916.69 704.00 918.00 Z"/>
</g>
<g fill="None" fill-opacity="0.0" stroke="#000000" stroke-opacity="0.53" stroke-width="0.3"><path d="
M 1430.00 928.00 
C 1434.56 922.92 1436.29 919.00 1439.00 913.00
C 1433.58 915.52 1427.96 927.06 1426.00 934.00
C 1427.64 932.16 1428.38 929.80 1430.00 928.00 Z"/>
</g>
<g fill="None" fill-opacity="0.0" stroke="#000000" stroke-opacity="0.53" stroke-width="0.3"><path d="
M 688.00 923.00 
C 684.49 923.52 678.90 921.25 678.00 926.00
C 667.19 920.61 657.25 930.04 670.00 930.00 C 682.75 929.96 688.76 930.02 700.00 930.00 C 711.24 929.98 719.44 930.01 730.00 930.00 C 740.56 929.99 749.75 930.00 760.00 930.00 C 770.25 930.00 779.89 930.00 790.00 930.00 C 800.11 930.00 809.95 929.99 820.00 930.00 C 830.05 930.01 839.99 929.99 850.00 930.00 C 860.01 930.01 870.01 929.97 880.00 930.00 C 889.99 930.03 900.04 929.93 910.00 930.00 C 919.96 930.07 930.10 929.85 940.00 930.00 C 949.90 930.15 960.23 929.66 970.00 930.00 C 979.77 930.34 988.17 926.61 998.00 928.00 C 1007.83 929.39 1014.14 923.66 1023.00 923.00 C 1031.86 922.34 1041.81 920.92 1049.00 919.00
C 1043.31 917.93 1031.62 919.88 1023.00 921.00 C 1014.38 922.12 1005.41 926.28 995.00 925.00 C 984.60 923.72 975.50 927.70 965.00 927.00 C 954.50 926.30 943.56 927.32 933.00 927.00 C 922.44 926.68 911.55 927.15 901.00 927.00 C 890.45 926.85 880.56 927.07 870.00 927.00 C 859.44 926.93 848.61 927.04 838.00 927.00 C 827.39 926.96 816.62 927.04 806.00 927.00 C 795.38 926.96 784.59 927.06 774.00 927.00 C 763.41 926.94 752.52 927.11 742.00 927.00 C 731.48 926.89 720.36 927.24 710.00 927.00 C 699.64 926.76 689.47 928.01 680.00 926.00
C 683.82 925.74 690.60 927.54 691.00 922.00
C 689.86 923.33 688.68 923.00 688.00 923.00 Z"/>
</g>
<g fill="None" fill-opacity="0.0" stroke="#000000" stroke-opacity="0.76" stroke-width="0.3"><path d="
M 1471.00 963.00 
C 1473.27 958.78 1472.25 954.93 1475.00 951.00
C 1475.93 949.68 1477.03 948.36 1478.00 947.00
C 1471.23 951.12 1471.15 959.59 1466.00 965.00
C 1467.81 965.24 1469.82 964.36 1471.00 963.00 Z"/>
</g>
<g fill="None" fill-opacity="0.0" stroke="#000000" stroke-opacity="0.26" stroke-width="0.3"><path d="
M 1475.00 951.00 
C 1472.25 954.93 1473.27 958.78 1471.00 963.00
C 1470.23 964.44 1468.96 965.63 1468.00 967.00
C 1474.32 962.29 1473.82 953.26 1480.00 948.00
C 1478.23 948.13 1476.21 949.68 1475.00 951.00 Z"/>
</g>
<g fill="None" fill-opacity="0.0" stroke="#000000" stroke-opacity="0.37" stroke-width="0.3"><path d="
M 1091.00 961.00 
C 1092.15 967.06 1093.12 979.28 1094.67 984.33 C 1096.22 989.38 1092.93 1005.70 1100.00 1006.00
C 1095.86 1004.94 1100.04 998.82 1097.00 996.00 C 1093.96 993.18 1100.71 987.54 1096.26 982.74 C 1091.80 977.95 1099.76 959.83 1091.00 961.00 Z"/>
</g>
<g fill="None" fill-opacity="0.0" stroke="#000000" stroke-opacity="0.52" stroke-width="0.3"><path d="
M 1105.00 999.00 
C 1110.83 989.65 1124.15 981.52 1128.00 972.00
C 1139.18 968.89 1151.51 964.37 1165.00 965.00 C 1178.49 965.64 1183.15 976.18 1193.25 982.75 C 1203.34 989.32 1205.42 995.94 1215.00 1002.00
C 1212.67 990.66 1200.24 987.24 1192.25 977.75 C 1184.26 968.26 1172.78 962.02 1160.00 962.00 C 1147.22 961.98 1133.49 965.99 1124.25 974.25 C 1115.00 982.51 1107.86 989.72 1105.00 999.00 Z"/>
</g>
<g fill="None" fill-opacity="0.0" stroke="#000000" stroke-opacity="0.49" stroke-width="0.3"><path d="
M 1280.00 978.00 
C 1274.03 974.79 1268.02 970.92 1262.00 967.00
C 1261.85 968.83 1259.24 967.33 1259.00 969.00
C 1265.46 972.91 1272.81 978.52 1281.00 980.00
C 1281.31 979.38 1277.94 978.04 1280.00 978.00 Z"/>
</g>
<g fill="None" fill-opacity="0.0" stroke="#000000" stroke-opacity="0.23" stroke-width="0.3"><path d="
M 1388.00 971.00 
C 1388.00 971.00 1388.25 970.26 1388.00 970.00
C 1385.95 970.27 1381.05 973.41 1379.00 976.00
C 1382.87 975.98 1385.05 973.05 1388.00 971.00 Z"/>
</g>
<g fill="None" fill-opacity="0.0" stroke="#000000" stroke-opacity="0.42" stroke-width="0.3"><path d="
M 1296.00 986.00 
C 1295.72 985.74 1295.28 982.13 1292.03 981.97 C 1288.77 981.81 1286.71 981.08 1284.00 980.00
C 1286.11 981.91 1291.58 984.18 1296.00 986.00 Z"/>
</g>
<g fill="None" fill-opacity="0.0" stroke="#000000" stroke-opacity="0.40" stroke-width="0.3"><path d="
M 1360.00 984.00 
C 1362.73 982.86 1366.16 983.24 1369.00 982.00
C 1369.77 982.02 1369.36 978.78 1366.08 980.08 C 1362.80 981.38 1360.86 982.87 1360.00 984.00 Z"/>
</g>
<g fill="None" fill-opacity="0.0" stroke="#000000" stroke-opacity="0.53" stroke-width="0.3"><path d="
M 1318.00 991.00 
C 1324.13 992.16 1334.87 992.16 1341.00 991.00
C 1334.70 985.59 1322.28 992.26 1316.00 987.00
C 1316.95 987.78 1316.88 990.45 1318.00 991.00 Z"/>
</g>
<g fill="None" fill-opacity="0.0" stroke="#000000" stroke-opacity="0.51" stroke-width="0.3"><path d="
M 1380.00 1036.00 
C 1385.29 1035.24 1399.60 1033.94 1399.00 1026.00
C 1392.12 1031.44 1381.27 1030.97 1377.00 1038.00
C 1378.30 1037.92 1378.73 1036.18 1380.00 1036.00 Z"/>
</g>
<g fill="None" fill-opacity="0.0" stroke="#000000" stroke-opacity="0.47" stroke-width="0.3"><path d="
M 1288.00 1037.00 
C 1283.20 1035.31 1276.86 1034.99 1272.68 1032.32 C 1268.50 1029.65 1263.74 1027.36 1259.00 1027.00
C 1265.39 1037.08 1280.71 1036.21 1290.00 1041.00
C 1289.07 1039.98 1289.10 1037.88 1288.00 1037.00 Z"/>
</g>
<g fill="None" fill-opacity="0.0" stroke="#000000" stroke-opacity="0.51" stroke-width="0.3"><path d="
M 1362.00 1042.00 
C 1340.41 1042.06 1318.26 1043.63 1297.00 1039.00
C 1296.72 1041.33 1300.54 1041.63 1298.00 1044.00
C 1318.99 1045.44 1342.54 1048.74 1362.00 1042.00 Z"/>
</g>
<g fill="#000000" fill-opacity="0.00" stroke="None"><path d="
M 0.00 1241.00 
L 2062.00 1241.00
L 2062.00 0.00
L 0.00 0.00
L 0.00 1241.00
M 666.00 353.00 
C 682.17 349.34 700.37 354.65 717.00 353.00 C 733.63 351.35 751.17 353.74 768.00 353.00 C 784.83 352.26 802.07 353.33 819.00 353.00 C 835.93 352.67 853.03 353.13 870.00 353.00 C 886.97 352.87 904.01 353.02 921.00 353.00 C 938.00 352.98 954.98 352.93 972.00 353.00 C 989.02 353.07 1005.96 352.79 1023.00 353.00 C 1040.04 353.21 1056.90 352.50 1074.00 353.00 C 1091.10 353.50 1108.88 351.92 1126.00 353.00
C 1142.53 354.05 1162.77 356.07 1179.00 361.00
C 1187.19 360.23 1196.40 362.22 1203.00 365.00
C 1209.44 367.71 1216.50 368.43 1223.00 371.00
C 1217.36 373.05 1221.25 372.02 1224.00 375.00
C 1236.52 376.08 1248.67 383.75 1260.00 390.00
C 1269.67 395.33 1280.21 403.87 1287.75 412.25 C 1295.30 420.63 1307.24 428.70 1311.00 439.00
C 1311.76 441.09 1311.15 451.81 1316.00 447.00
C 1322.06 461.92 1332.09 470.98 1332.00 489.00
C 1333.55 481.04 1333.56 485.18 1335.92 490.08 C 1338.28 494.98 1336.56 500.22 1340.00 504.00
C 1342.22 510.48 1341.93 517.58 1343.33 524.67 C 1344.73 531.76 1346.69 538.31 1347.00 546.00 C 1347.31 553.69 1346.76 563.20 1347.00 571.00 C 1347.24 578.80 1346.66 587.33 1347.00 595.00 C 1347.34 602.67 1347.19 611.64 1345.08 618.08 C 1342.98 624.52 1346.48 635.88 1343.00 641.00 C 1339.52 646.12 1344.38 659.46 1338.00 661.00
C 1336.37 661.40 1339.00 658.26 1339.00 658.00
C 1331.95 663.54 1340.81 684.79 1329.00 686.00
C 1330.05 693.05 1324.61 698.53 1326.00 705.00
C 1325.09 715.52 1318.44 727.83 1314.00 738.00
C 1312.08 742.40 1308.58 746.13 1308.00 751.00
C 1303.50 747.72 1310.41 746.20 1308.00 743.00
C 1304.95 747.66 1304.02 754.06 1299.00 757.00
C 1298.63 758.54 1300.43 759.40 1300.00 761.00
C 1299.81 763.38 1297.59 769.80 1294.00 768.00
C 1293.71 775.39 1286.41 785.46 1280.00 787.00
C 1278.49 790.72 1274.56 797.88 1270.00 797.00
C 1270.90 803.50 1264.11 806.35 1260.25 811.25 C 1256.39 816.14 1250.43 819.59 1246.75 824.75 C 1243.08 829.91 1234.05 833.17 1235.00 838.00
C 1232.16 837.41 1228.02 839.22 1226.00 837.00
C 1216.81 834.51 1208.18 824.52 1200.25 818.75 C 1192.32 812.98 1186.25 800.91 1183.00 792.00
C 1181.38 788.65 1176.54 787.37 1176.08 782.92 C 1175.62 778.47 1173.57 773.66 1172.00 770.00
C 1175.81 772.04 1173.74 763.96 1171.67 760.33 C 1169.60 756.70 1172.13 750.89 1170.00 747.00
C 1173.13 745.51 1174.73 742.44 1174.00 739.00
C 1175.04 735.89 1178.26 733.57 1178.00 730.00
C 1180.03 734.61 1179.11 730.58 1182.00 729.00
C 1182.41 724.25 1182.71 719.78 1185.00 715.00
C 1188.79 707.07 1191.15 699.11 1194.00 691.00
C 1196.03 685.21 1198.70 678.96 1200.00 673.00
C 1200.21 665.55 1201.26 657.70 1203.75 650.75 C 1206.25 643.81 1205.58 636.02 1207.33 628.33 C 1209.08 620.64 1208.41 612.29 1209.00 604.00 C 1209.59 595.71 1206.97 584.86 1209.00 577.00 C 1211.03 569.14 1211.01 562.57 1209.00 555.00 C 1207.00 547.42 1210.27 536.06 1209.00 529.00 C 1207.73 521.94 1207.23 511.32 1206.67 505.33 C 1206.11 499.34 1204.51 486.39 1202.00 495.00
C 1201.98 482.15 1194.77 473.63 1194.00 462.00
C 1191.67 458.57 1187.46 456.14 1185.00 451.00
C 1182.92 446.65 1180.05 444.64 1177.00 441.00
C 1174.90 438.50 1171.83 434.64 1172.00 431.00
C 1167.87 431.94 1165.14 427.76 1163.00 425.00
C 1166.15 424.96 1167.30 429.02 1170.00 430.00
C 1162.28 417.75 1149.44 408.61 1137.00 406.00
C 1142.63 404.30 1131.86 398.77 1128.00 401.00
C 1136.31 405.56 1121.68 400.55 1119.00 398.00
C 1113.29 395.05 1105.61 394.15 1100.00 392.00
C 1066.80 383.39 1031.15 384.87 994.00 385.00 C 956.85 385.13 918.28 384.90 881.00 385.00
C 881.00 555.67 881.00 726.34 881.00 897.00
C 912.58 896.34 944.87 898.33 976.00 896.00
C 976.53 897.28 975.03 897.86 975.00 899.00
C 979.88 898.11 987.86 897.25 993.00 895.00
C 995.28 893.56 996.61 890.06 1001.00 892.00
C 999.67 889.50 995.26 892.57 994.00 890.00
C 1001.08 889.93 1007.37 887.52 1014.00 886.00
C 1020.89 882.85 1028.12 878.06 1036.00 875.00
C 1042.82 872.36 1049.61 871.71 1056.00 868.00
C 1056.22 867.87 1056.00 867.00 1056.00 867.00
C 1054.36 867.68 1052.80 868.63 1051.00 869.00
C 1053.05 866.41 1057.95 863.27 1060.00 863.00
C 1060.61 862.60 1062.42 861.33 1063.00 861.00
C 1065.45 859.60 1069.83 859.55 1069.00 864.00
C 1062.96 873.57 1066.55 890.24 1064.00 902.00
C 1061.16 905.82 1063.92 912.61 1061.00 916.00
C 1058.65 918.72 1052.37 918.10 1049.00 919.00
C 1041.81 920.92 1031.86 922.34 1023.00 923.00 C 1014.14 923.66 1007.83 929.39 998.00 928.00 C 988.17 926.61 979.77 930.34 970.00 930.00 C 960.23 929.66 949.90 930.15 940.00 930.00 C 930.10 929.85 919.96 930.07 910.00 930.00 C 900.04 929.93 889.99 930.03 880.00 930.00 C 870.01 929.97 860.01 930.01 850.00 930.00 C 839.99 929.99 830.05 930.01 820.00 930.00 C 809.95 929.99 800.11 930.00 790.00 930.00 C 779.89 930.00 770.25 930.00 760.00 930.00 C 749.75 930.00 740.56 929.99 730.00 930.00 C 719.44 930.01 711.24 929.98 700.00 930.00 C 688.76 930.02 682.75 929.96 670.00 930.00 C 657.25 930.04 667.19 920.61 678.00 926.00
C 678.90 921.25 684.49 923.52 688.00 923.00
C 692.28 922.00 700.81 918.92 704.00 918.00
C 708.54 916.69 711.06 914.66 715.03 912.03 C 719.01 909.40 724.60 911.76 728.00 911.00
C 731.58 909.11 735.04 905.50 740.00 906.00
C 746.15 895.92 758.06 886.77 764.00 875.00
C 769.65 862.39 763.16 842.19 765.00 826.00 C 766.84 809.81 764.16 789.90 765.00 773.00 C 765.84 756.10 764.63 738.23 765.00 721.00 C 765.37 703.77 764.85 685.37 765.00 668.00 C 765.15 650.63 764.97 633.43 765.00 616.00 C 765.03 598.57 765.07 580.43 765.00 563.00 C 764.93 545.57 765.22 528.38 765.00 511.00 C 764.78 493.62 765.50 475.25 765.00 458.00 C 764.50 440.75 767.01 423.03 763.00 407.00
C 764.82 406.45 765.47 408.75 767.00 409.00
C 766.58 406.72 763.77 405.24 765.00 402.00
C 762.36 401.55 761.76 397.70 759.00 400.00
C 757.27 391.56 750.89 388.79 745.25 383.75 C 739.61 378.71 735.56 373.91 727.32 373.68 C 719.09 373.45 713.15 361.12 704.00 362.00
C 699.38 361.53 688.30 359.58 683.00 359.00 C 677.70 358.42 659.95 354.37 666.00 353.00
M 1450.00 692.00 
C 1447.65 688.64 1443.43 686.28 1443.00 682.00
C 1447.94 686.01 1455.35 692.75 1454.00 698.00
C 1454.71 703.41 1459.70 714.60 1466.00 714.00
C 1463.96 719.10 1468.60 722.12 1469.00 727.00
C 1470.56 720.57 1473.77 725.88 1474.00 730.00
C 1474.85 732.04 1478.03 737.24 1477.00 739.00
C 1476.81 739.32 1476.03 739.79 1476.00 740.00
C 1475.47 743.45 1479.22 745.55 1480.00 748.00
C 1479.81 747.87 1482.52 747.38 1483.00 747.00
C 1483.60 757.11 1489.84 764.71 1489.00 775.00
C 1491.75 779.04 1493.23 785.82 1495.00 791.00
C 1497.93 799.55 1496.79 809.90 1499.00 819.00
C 1497.84 819.79 1496.47 817.04 1496.00 819.00
C 1498.83 827.28 1495.63 841.56 1501.00 848.00
C 1498.58 857.39 1498.83 868.27 1499.00 879.00
C 1498.64 886.33 1497.65 896.18 1496.00 904.00
C 1493.33 902.55 1496.50 898.21 1495.00 897.00
C 1494.95 897.23 1494.18 897.67 1494.00 898.00
C 1494.27 914.84 1487.39 933.84 1478.00 947.00
C 1477.03 948.36 1475.93 949.68 1475.00 951.00
C 1476.21 949.68 1478.23 948.13 1480.00 948.00
C 1473.82 953.26 1474.32 962.29 1468.00 967.00
C 1466.75 968.79 1464.29 975.12 1462.00 971.00
C 1453.93 987.93 1437.69 1001.69 1425.00 1015.00
C 1421.72 1011.03 1413.73 1016.24 1418.00 1020.00
C 1415.30 1019.41 1413.17 1021.97 1412.00 1024.00
C 1407.13 1020.30 1403.89 1024.77 1399.00 1026.00
C 1399.60 1033.94 1385.29 1035.24 1380.00 1036.00
C 1375.71 1037.88 1368.10 1041.98 1362.00 1042.00
C 1342.54 1048.74 1318.99 1045.44 1298.00 1044.00
C 1300.54 1041.63 1296.72 1041.33 1297.00 1039.00
C 1293.49 1038.24 1291.23 1038.13 1288.00 1037.00
C 1289.10 1037.88 1289.07 1039.98 1290.00 1041.00
C 1280.71 1036.21 1265.39 1037.08 1259.00 1027.00
C 1256.70 1026.83 1255.13 1027.56 1253.00 1028.00
C 1251.09 1024.60 1247.82 1016.28 1243.00 1021.00
C 1239.80 1016.83 1234.54 1014.91 1230.00 1013.00
C 1232.91 1008.91 1226.20 1003.52 1222.00 1007.00
C 1220.04 1004.65 1218.19 1001.94 1215.00 1002.00
C 1205.42 995.94 1203.34 989.32 1193.25 982.75 C 1183.15 976.18 1178.49 965.64 1165.00 965.00 C 1151.51 964.37 1139.18 968.89 1128.00 972.00
C 1124.15 981.52 1110.83 989.65 1105.00 999.00
C 1104.49 1000.67 1102.60 1006.11 1100.00 1006.00
C 1092.93 1005.70 1096.22 989.38 1094.67 984.33 C 1093.12 979.28 1092.15 967.06 1091.00 961.00
C 1089.95 955.45 1091.00 948.66 1091.00 943.00 C 1091.00 937.34 1089.95 930.54 1091.00 925.00
C 1092.17 918.82 1093.98 910.93 1093.00 904.00 C 1092.02 897.07 1091.17 898.90 1093.00 893.00 C 1094.83 887.10 1095.13 878.65 1095.33 872.33 C 1095.53 866.01 1099.10 867.64 1097.00 862.00 C 1094.90 856.36 1099.15 855.58 1100.00 853.00
C 1099.75 849.29 1098.47 839.42 1100.33 836.33 C 1102.20 833.24 1100.56 824.21 1104.00 823.00
C 1105.29 818.95 1105.35 813.40 1106.00 809.00 C 1106.65 804.60 1109.15 798.12 1109.26 794.26 C 1109.36 790.40 1111.87 779.18 1113.00 785.00
C 1113.93 781.52 1116.96 778.66 1117.00 773.00
C 1117.05 765.73 1118.47 755.47 1121.00 747.00
C 1121.95 748.69 1123.52 746.27 1124.00 748.00
C 1128.53 752.01 1126.65 765.99 1130.00 772.00
C 1131.44 774.59 1133.85 777.40 1133.00 781.00
C 1135.26 770.61 1135.64 785.76 1139.00 789.00
C 1141.80 796.06 1142.29 801.34 1146.00 808.00
C 1145.45 806.74 1145.07 805.24 1145.00 805.00
C 1144.44 803.19 1143.27 801.93 1143.00 800.00
C 1147.10 802.40 1147.03 807.63 1150.00 811.00
C 1151.27 813.91 1151.59 817.45 1154.00 820.00
C 1150.47 820.20 1151.18 815.74 1149.00 814.00
C 1148.77 813.75 1148.00 814.00 1148.00 814.00
C 1150.01 818.61 1153.50 831.44 1159.00 828.00
C 1161.07 834.68 1168.14 844.26 1171.92 851.08 C 1175.70 857.90 1175.13 869.58 1185.00 870.00
C 1188.09 873.27 1185.43 880.01 1187.78 883.22 C 1190.13 886.44 1194.19 895.31 1196.00 890.00
C 1197.78 893.35 1197.83 898.17 1202.00 900.00
C 1198.95 903.31 1203.39 904.83 1203.00 908.00
C 1205.96 902.82 1207.86 914.68 1211.78 918.22 C 1215.69 921.77 1218.71 929.67 1224.00 932.00
C 1220.64 939.81 1232.17 942.60 1235.25 948.75 C 1238.32 954.90 1251.10 954.41 1248.00 961.00
C 1253.82 962.61 1256.89 964.21 1262.00 967.00
C 1268.02 970.92 1274.03 974.79 1280.00 978.00
C 1280.65 978.35 1283.46 979.78 1284.00 980.00
C 1286.71 981.08 1288.77 981.81 1292.03 981.97 C 1295.28 982.13 1295.72 985.74 1296.00 986.00
C 1302.46 988.66 1311.02 989.68 1318.00 991.00
C 1316.88 990.45 1316.95 987.78 1316.00 987.00
C 1322.28 992.26 1334.70 985.59 1341.00 991.00
C 1346.57 989.94 1357.59 987.20 1360.00 984.00
C 1360.86 982.87 1362.80 981.38 1366.08 980.08 C 1369.36 978.78 1369.77 982.02 1369.00 982.00
C 1371.98 980.70 1378.04 978.98 1380.68 977.68 C 1383.31 976.38 1389.45 973.28 1388.00 971.00
C 1385.05 973.05 1382.87 975.98 1379.00 976.00
C 1381.05 973.41 1385.95 970.27 1388.00 970.00
C 1397.48 972.33 1404.11 958.19 1411.75 952.75 C 1419.39 947.31 1425.10 935.52 1430.00 928.00
C 1428.38 929.80 1427.64 932.16 1426.00 934.00
C 1427.96 927.06 1433.58 915.52 1439.00 913.00
C 1440.71 909.23 1442.59 906.88 1443.00 902.00
C 1443.54 895.59 1444.35 880.15 1452.00 877.00
C 1455.87 854.13 1456.23 824.32 1452.00 802.00
C 1445.40 803.59 1445.72 792.82 1444.22 787.78 C 1442.73 782.74 1437.65 778.14 1434.00 774.00
C 1438.53 774.35 1441.42 782.66 1445.00 782.00
C 1435.54 770.71 1423.94 767.35 1410.00 772.00
C 1412.35 777.27 1402.21 779.76 1399.00 780.00
C 1397.44 780.12 1396.61 778.77 1395.00 779.00
C 1384.76 786.52 1380.14 798.29 1368.00 805.00
C 1368.36 802.39 1366.48 797.05 1371.00 798.00
C 1374.18 786.85 1371.13 776.29 1377.00 766.00
C 1378.44 758.91 1378.19 752.23 1379.00 745.00
C 1380.62 746.65 1382.31 744.48 1384.00 744.00
C 1386.69 729.81 1385.87 714.81 1386.00 700.00 C 1386.13 685.19 1386.67 670.11 1384.00 656.00
C 1383.49 654.88 1380.46 653.86 1380.00 656.00
C 1378.01 650.95 1376.64 644.05 1376.22 638.78 C 1375.80 633.50 1370.42 628.53 1373.00 625.00
C 1373.45 623.84 1372.66 622.20 1373.00 621.00
C 1393.14 633.50 1411.43 649.60 1429.00 667.00
C 1423.45 658.02 1412.72 649.96 1406.00 643.00
C 1420.82 651.11 1430.65 667.80 1443.00 679.00
C 1438.48 684.49 1446.49 688.52 1450.00 692.00 Z"/>
</g>
<g fill="#000000" fill-opacity="0.48" stroke="None"><path d="
M 704.00 362.00 
C 691.28 356.18 679.26 354.01 665.00 356.00
C 664.47 354.72 665.97 354.14 666.00 353.00
C 659.95 354.37 677.70 358.42 683.00 359.00 C 688.30 359.58 699.38 361.53 704.00 362.00 Z"/>
</g>
<g fill="#000000" fill-opacity="0.49" stroke="None"><path d="
M 1126.00 353.00 
C 1127.43 353.61 1128.09 355.79 1127.00 357.00
C 1136.23 355.84 1146.83 357.69 1155.03 358.97 C 1163.23 360.25 1172.91 361.74 1179.00 361.00
C 1162.77 356.07 1142.53 354.05 1126.00 353.00 Z"/>
</g>
<g fill="#000000" fill-opacity="1.00" stroke="None"><path d="
M 704.00 362.00 
C 713.15 361.12 719.09 373.45 727.32 373.68 C 735.56 373.91 739.61 378.71 745.25 383.75 C 750.89 388.79 757.27 391.56 759.00 400.00
C 761.76 397.70 762.36 401.55 765.00 402.00
C 763.77 405.24 766.58 406.72 767.00 409.00
C 769.74 423.99 765.80 439.68 767.00 455.00 C 768.20 470.32 766.46 486.50 767.00 502.00 C 767.54 517.50 766.77 533.42 767.00 549.00 C 767.23 564.58 766.92 580.39 767.00 596.00 C 767.08 611.61 767.02 627.40 767.00 643.00 C 766.98 658.60 767.14 674.46 767.00 690.00 C 766.86 705.54 767.34 721.61 767.00 737.00 C 766.66 752.39 767.78 768.95 767.00 784.00 C 766.22 799.05 768.74 816.69 767.00 831.00 C 765.26 845.31 772.23 864.36 764.00 875.00
C 758.06 886.77 746.15 895.92 740.00 906.00
C 735.04 905.50 731.58 909.11 728.00 911.00
C 723.83 913.20 718.92 912.77 714.78 915.78 C 710.64 918.79 704.16 918.02 704.00 918.00
C 700.81 918.92 692.28 922.00 688.00 923.00
C 688.68 923.00 689.86 923.33 691.00 922.00
C 690.60 927.54 683.82 925.74 680.00 926.00
C 689.47 928.01 699.64 926.76 710.00 927.00 C 720.36 927.24 731.48 926.89 742.00 927.00 C 752.52 927.11 763.41 926.94 774.00 927.00 C 784.59 927.06 795.38 926.96 806.00 927.00 C 816.62 927.04 827.39 926.96 838.00 927.00 C 848.61 927.04 859.44 926.93 870.00 927.00 C 880.56 927.07 890.45 926.85 901.00 927.00 C 911.55 927.15 922.44 926.68 933.00 927.00 C 943.56 927.32 954.50 926.30 965.00 927.00 C 975.50 927.70 984.60 923.72 995.00 925.00 C 1005.41 926.28 1014.38 922.12 1023.00 921.00 C 1031.62 919.88 1043.31 917.93 1049.00 919.00
C 1052.37 918.10 1058.65 918.72 1061.00 916.00
C 1059.94 916.55 1057.22 915.96 1056.00 916.00
C 1055.05 916.03 1054.19 917.60 1053.00 917.00
C 1054.08 913.98 1057.22 913.69 1060.00 914.00
C 1061.06 909.97 1057.36 901.95 1063.00 901.00
C 1063.29 900.94 1064.10 901.86 1064.00 902.00
C 1066.55 890.24 1062.96 873.57 1069.00 864.00
C 1069.83 859.55 1065.45 859.60 1063.00 861.00
C 1066.37 861.61 1058.34 867.28 1056.00 868.00
C 1049.61 871.71 1042.82 872.36 1036.00 875.00
C 1035.00 875.79 1033.51 878.58 1035.00 880.00
C 1029.41 883.06 1023.32 884.54 1017.00 886.00
C 1010.05 890.13 1001.24 891.40 993.00 895.00
C 987.86 897.25 979.88 898.11 975.00 899.00
C 963.24 901.15 950.98 897.77 939.00 899.00 C 927.02 900.23 915.19 897.87 903.00 899.00 C 890.81 900.13 876.81 901.15 879.00 887.00 C 881.19 872.85 878.01 863.97 879.00 851.00 C 879.99 838.03 878.55 827.44 879.00 815.00 C 879.45 802.56 878.80 791.20 879.00 779.00 C 879.20 766.80 878.91 755.09 879.00 743.00 C 879.09 730.91 878.96 719.04 879.00 707.00 C 879.04 694.96 878.98 683.02 879.00 671.00 C 879.02 658.98 878.99 647.01 879.00 635.00 C 879.01 622.99 879.00 611.00 879.00 599.00 C 879.00 587.00 879.00 575.00 879.00 563.00 C 879.00 551.00 879.00 539.00 879.00 527.00 C 879.00 515.00 879.00 503.00 879.00 491.00 C 879.00 479.00 879.00 467.00 879.00 455.00 C 879.00 443.00 879.00 431.00 879.00 419.00 C 879.00 407.00 879.00 395.00 879.00 383.00
C 916.25 383.15 954.89 382.80 992.00 383.00 C 1029.11 383.20 1066.09 380.93 1100.00 389.00
C 1105.06 390.51 1110.55 392.79 1116.00 393.00 C 1121.45 393.21 1117.86 396.30 1119.00 398.00
C 1121.68 400.55 1136.31 405.56 1128.00 401.00
C 1131.86 398.77 1142.63 404.30 1137.00 406.00
C 1149.44 408.61 1162.28 417.75 1170.00 430.00
C 1167.30 429.02 1166.15 424.96 1163.00 425.00
C 1165.14 427.76 1167.87 431.94 1172.00 431.00
C 1171.83 434.64 1174.90 438.50 1177.00 441.00
C 1178.24 441.82 1185.27 442.79 1187.00 447.00
C 1185.63 448.05 1186.77 450.44 1185.00 451.00
C 1187.46 456.14 1191.67 458.57 1194.00 462.00
C 1199.16 469.60 1200.01 478.15 1203.33 487.67 C 1206.66 497.19 1207.54 507.20 1209.33 517.67 C 1211.13 528.14 1209.27 540.03 1211.00 551.00 C 1212.73 561.97 1214.75 570.71 1211.00 581.00 C 1207.26 591.30 1212.90 605.41 1211.00 616.00 C 1209.10 626.59 1210.83 638.39 1207.03 648.03 C 1203.22 657.67 1207.43 670.86 1199.00 676.00
C 1199.02 674.88 1201.97 673.67 1200.00 673.00
C 1198.70 678.96 1196.03 685.21 1194.00 691.00
C 1194.89 689.30 1199.09 688.68 1197.00 685.00
C 1197.30 695.70 1191.87 709.19 1186.00 719.00
C 1183.51 718.35 1187.63 715.63 1185.00 715.00
C 1182.71 719.78 1182.41 724.25 1182.00 729.00
C 1181.61 733.47 1176.45 739.12 1177.00 745.00
C 1173.66 744.39 1176.31 740.14 1174.00 739.00
C 1174.73 742.44 1173.13 745.51 1170.00 747.00
C 1172.13 750.89 1169.60 756.70 1171.67 760.33 C 1173.74 763.96 1175.81 772.04 1172.00 770.00
C 1173.57 773.66 1175.62 778.47 1176.08 782.92 C 1176.54 787.37 1181.38 788.65 1183.00 792.00
C 1182.30 790.08 1179.64 789.32 1180.00 787.00
C 1186.14 796.79 1194.24 807.09 1201.67 814.33 C 1209.11 821.56 1220.85 830.40 1226.00 837.00
C 1228.02 839.22 1232.16 837.41 1235.00 838.00
C 1234.05 833.17 1243.08 829.91 1246.75 824.75 C 1250.43 819.59 1256.39 816.14 1260.25 811.25 C 1264.11 806.35 1270.90 803.50 1270.00 797.00
C 1274.56 797.88 1278.49 790.72 1280.00 787.00
C 1281.04 784.43 1285.86 776.59 1289.25 774.25 C 1292.64 771.90 1294.40 758.64 1300.00 761.00
C 1300.43 759.40 1298.63 758.54 1299.00 757.00
C 1304.02 754.06 1304.95 747.66 1308.00 743.00
C 1309.03 741.43 1309.14 740.78 1310.00 739.00
C 1312.33 734.15 1313.85 729.09 1316.75 724.75 C 1319.66 720.42 1317.54 711.59 1324.00 712.00
C 1324.26 709.65 1322.97 705.93 1326.00 705.00
C 1324.61 698.53 1330.05 693.05 1329.00 686.00
C 1340.81 684.79 1331.95 663.54 1339.00 658.00
C 1339.00 658.26 1336.37 661.40 1338.00 661.00
C 1344.79 655.47 1337.26 645.13 1340.00 638.00 C 1342.73 630.87 1341.87 620.69 1344.92 612.92 C 1347.97 605.14 1343.59 591.74 1345.00 583.00 C 1346.41 574.26 1344.28 563.03 1345.00 554.00 C 1345.72 544.97 1342.56 535.91 1341.67 527.33 C 1340.78 518.75 1337.72 510.75 1336.00 503.00
C 1337.26 503.23 1339.27 505.69 1340.00 504.00
C 1336.56 500.22 1338.28 494.98 1335.92 490.08 C 1333.56 485.18 1333.55 481.04 1332.00 489.00
C 1332.09 470.98 1322.06 461.92 1316.00 447.00
C 1311.15 451.81 1311.76 441.09 1311.00 439.00
C 1300.57 434.09 1294.49 420.75 1283.75 412.25 C 1273.01 403.75 1263.23 392.75 1250.00 390.00
C 1252.61 387.55 1256.54 391.25 1260.00 390.00
C 1248.67 383.75 1236.52 376.08 1224.00 375.00
C 1213.62 374.10 1199.01 367.03 1189.00 363.00
C 1193.45 365.28 1199.19 365.36 1203.00 365.00
C 1196.40 362.22 1187.19 360.23 1179.00 361.00
C 1172.91 361.74 1163.23 360.25 1155.03 358.97 C 1146.83 357.69 1136.23 355.84 1127.00 357.00
C 1128.09 355.79 1127.43 353.61 1126.00 353.00
C 1108.88 351.92 1091.10 353.50 1074.00 353.00 C 1056.90 352.50 1040.04 353.21 1023.00 353.00 C 1005.96 352.79 989.02 353.07 972.00 353.00 C 954.98 352.93 938.00 352.98 921.00 353.00 C 904.01 353.02 886.97 352.87 870.00 353.00 C 853.03 353.13 835.93 352.67 819.00 353.00 C 802.07 353.33 784.83 352.26 768.00 353.00 C 751.17 353.74 733.63 351.35 717.00 353.00 C 700.37 354.65 682.17 349.34 666.00 353.00
C 665.97 354.14 664.47 354.72 665.00 356.00
C 679.26 354.01 691.28 356.18 704.00 362.00
M 1248.00 387.00 
C 1244.67 383.98 1239.33 384.13 1237.00 380.00
C 1240.50 382.17 1246.76 382.66 1248.00 387.00 Z"/>
</g>
<g fill="#000000" fill-opacity="0.55" stroke="None"><path d="
M 1224.00 375.00 
C 1221.25 372.02 1217.36 373.05 1223.00 371.00
C 1216.50 368.43 1209.44 367.71 1203.00 365.00
C 1199.19 365.36 1193.45 365.28 1189.00 363.00
C 1199.01 367.03 1213.62 374.10 1224.00 375.00 Z"/>
</g>
<g fill="#000000" fill-opacity="0.73" stroke="None"><path d="
M 1248.00 387.00 
C 1246.76 382.66 1240.50 382.17 1237.00 380.00
C 1239.33 384.13 1244.67 383.98 1248.00 387.00 Z"/>
</g>
<g fill="#000000" fill-opacity="0.45" stroke="None"><path d="
M 975.00 899.00 
C 975.03 897.86 976.53 897.28 976.00 896.00
C 944.87 898.33 912.58 896.34 881.00 897.00
C 881.00 726.34 881.00 555.67 881.00 385.00
C 918.28 384.90 956.85 385.13 994.00 385.00 C 1031.15 384.87 1066.80 383.39 1100.00 392.00
C 1097.86 391.18 1092.92 391.61 1093.00 388.00
C 1094.72 389.61 1098.31 391.35 1100.00 389.00
C 1066.09 380.93 1029.11 383.20 992.00 383.00 C 954.89 382.80 916.25 383.15 879.00 383.00
C 879.00 395.00 879.00 407.00 879.00 419.00 C 879.00 431.00 879.00 443.00 879.00 455.00 C 879.00 467.00 879.00 479.00 879.00 491.00 C 879.00 503.00 879.00 515.00 879.00 527.00 C 879.00 539.00 879.00 551.00 879.00 563.00 C 879.00 575.00 879.00 587.00 879.00 599.00 C 879.00 611.00 879.01 622.99 879.00 635.00 C 878.99 647.01 879.02 658.98 879.00 671.00 C 878.98 683.02 879.04 694.96 879.00 707.00 C 878.96 719.04 879.09 730.91 879.00 743.00 C 878.91 755.09 879.20 766.80 879.00 779.00 C 878.80 791.20 879.45 802.56 879.00 815.00 C 878.55 827.44 879.99 838.03 879.00 851.00 C 878.01 863.97 881.19 872.85 879.00 887.00 C 876.81 901.15 890.81 900.13 903.00 899.00 C 915.19 897.87 927.02 900.23 939.00 899.00 C 950.98 897.77 963.24 901.15 975.00 899.00 Z"/>
</g>
<g fill="#000000" fill-opacity="0.54" stroke="None"><path d="
M 1100.00 392.00 
C 1105.61 394.15 1113.29 395.05 1119.00 398.00
C 1117.86 396.30 1121.45 393.21 1116.00 393.00 C 1110.55 392.79 1105.06 390.51 1100.00 389.00
C 1098.31 391.35 1094.72 389.61 1093.00 388.00
C 1092.92 391.61 1097.86 391.18 1100.00 392.00 Z"/>
</g>
<g fill="#000000" fill-opacity="0.51" stroke="None"><path d="
M 1311.00 439.00 
C 1307.24 428.70 1295.30 420.63 1287.75 412.25 C 1280.21 403.87 1269.67 395.33 1260.00 390.00
C 1256.54 391.25 1252.61 387.55 1250.00 390.00
C 1263.23 392.75 1273.01 403.75 1283.75 412.25 C 1294.49 420.75 1300.57 434.09 1311.00 439.00 Z"/>
</g>
<g fill="#000000" fill-opacity="0.42" stroke="None"><path d="
M 764.00 875.00 
C 772.23 864.36 765.26 845.31 767.00 831.00 C 768.74 816.69 766.22 799.05 767.00 784.00 C 767.78 768.95 766.66 752.39 767.00 737.00 C 767.34 721.61 766.86 705.54 767.00 690.00 C 767.14 674.46 766.98 658.60 767.00 643.00 C 767.02 627.40 767.08 611.61 767.00 596.00 C 766.92 580.39 767.23 564.58 767.00 549.00 C 766.77 533.42 767.54 517.50 767.00 502.00 C 766.46 486.50 768.20 470.32 767.00 455.00 C 765.80 439.68 769.74 423.99 767.00 409.00
C 765.47 408.75 764.82 406.45 763.00 407.00
C 767.01 423.03 764.50 440.75 765.00 458.00 C 765.50 475.25 764.78 493.62 765.00 511.00 C 765.22 528.38 764.93 545.57 765.00 563.00 C 765.07 580.43 765.03 598.57 765.00 616.00 C 764.97 633.43 765.15 650.63 765.00 668.00 C 764.85 685.37 765.37 703.77 765.00 721.00 C 764.63 738.23 765.84 756.10 765.00 773.00 C 764.16 789.90 766.84 809.81 765.00 826.00 C 763.16 842.19 769.65 862.39 764.00 875.00 Z"/>
</g>
<g fill="#000000" fill-opacity="0.52" stroke="None"><path d="
M 1177.00 441.00 
C 1180.05 444.64 1182.92 446.65 1185.00 451.00
C 1186.77 450.44 1185.63 448.05 1187.00 447.00
C 1185.27 442.79 1178.24 441.82 1177.00 441.00 Z"/>
</g>
<g fill="#000000" fill-opacity="0.49" stroke="None"><path d="
M 1200.00 673.00 
C 1201.97 673.67 1199.02 674.88 1199.00 676.00
C 1207.43 670.86 1203.22 657.67 1207.03 648.03 C 1210.83 638.39 1209.10 626.59 1211.00 616.00 C 1212.90 605.41 1207.26 591.30 1211.00 581.00 C 1214.75 570.71 1212.73 561.97 1211.00 551.00 C 1209.27 540.03 1211.13 528.14 1209.33 517.67 C 1207.54 507.20 1206.66 497.19 1203.33 487.67 C 1200.01 478.15 1199.16 469.60 1194.00 462.00
C 1194.77 473.63 1201.98 482.15 1202.00 495.00
C 1204.51 486.39 1206.11 499.34 1206.67 505.33 C 1207.23 511.32 1207.73 521.94 1209.00 529.00 C 1210.27 536.06 1207.00 547.42 1209.00 555.00 C 1211.01 562.57 1211.03 569.14 1209.00 577.00 C 1206.97 584.86 1209.59 595.71 1209.00 604.00 C 1208.41 612.29 1209.08 620.64 1207.33 628.33 C 1205.58 636.02 1206.25 643.81 1203.75 650.75 C 1201.26 657.70 1200.21 665.55 1200.00 673.00 Z"/>
</g>
<g fill="#000000" fill-opacity="0.44" stroke="None"><path d="
M 1338.00 661.00 
C 1344.38 659.46 1339.52 646.12 1343.00 641.00 C 1346.48 635.88 1342.98 624.52 1345.08 618.08 C 1347.19 611.64 1347.34 602.67 1347.00 595.00 C 1346.66 587.33 1347.24 578.80 1347.00 571.00 C 1346.76 563.20 1347.31 553.69 1347.00 546.00 C 1346.69 538.31 1344.73 531.76 1343.33 524.67 C 1341.93 517.58 1342.22 510.48 1340.00 504.00
C 1339.27 505.69 1337.26 503.23 1336.00 503.00
C 1337.72 510.75 1340.78 518.75 1341.67 527.33 C 1342.56 535.91 1345.72 544.97 1345.00 554.00 C 1344.28 563.03 1346.41 574.26 1345.00 583.00 C 1343.59 591.74 1347.97 605.14 1344.92 612.92 C 1341.87 620.69 1342.73 630.87 1340.00 638.00 C 1337.26 645.13 1344.79 655.47 1338.00 661.00 Z"/>
</g>
<g fill="#000000" fill-opacity="0.99" stroke="None"><path d="
M 1373.00 625.00 
C 1373.75 629.26 1381.10 633.26 1379.97 639.03 C 1378.85 644.79 1383.03 650.90 1384.00 656.00
C 1386.67 670.11 1386.13 685.19 1386.00 700.00 C 1385.87 714.81 1386.69 729.81 1384.00 744.00
C 1383.36 747.40 1380.17 754.03 1380.25 757.25 C 1380.32 760.46 1377.81 771.49 1377.00 766.00
C 1371.13 776.29 1374.18 786.85 1371.00 798.00
C 1366.48 797.05 1368.36 802.39 1368.00 805.00
C 1380.14 798.29 1384.76 786.52 1395.00 779.00
C 1396.61 778.77 1397.44 780.12 1399.00 780.00
C 1397.72 776.69 1407.40 772.87 1410.00 772.00
C 1423.94 767.35 1435.54 770.71 1445.00 782.00
C 1448.24 785.86 1451.04 796.93 1452.00 802.00
C 1456.23 824.32 1455.87 854.13 1452.00 877.00
C 1450.50 885.85 1446.36 894.31 1443.00 902.00
C 1442.59 906.88 1440.71 909.23 1439.00 913.00
C 1436.29 919.00 1434.56 922.92 1430.00 928.00
C 1425.10 935.52 1419.39 947.31 1411.75 952.75 C 1404.11 958.19 1397.48 972.33 1388.00 970.00
C 1388.25 970.26 1388.00 971.00 1388.00 971.00
C 1389.45 973.28 1383.31 976.38 1380.68 977.68 C 1378.04 978.98 1371.98 980.70 1369.00 982.00
C 1366.16 983.24 1362.73 982.86 1360.00 984.00
C 1357.59 987.20 1346.57 989.94 1341.00 991.00
C 1334.87 992.16 1324.13 992.16 1318.00 991.00
C 1311.02 989.68 1302.46 988.66 1296.00 986.00
C 1291.58 984.18 1286.11 981.91 1284.00 980.00
C 1283.46 979.78 1280.65 978.35 1280.00 978.00
C 1277.94 978.04 1281.31 979.38 1281.00 980.00
C 1272.81 978.52 1265.46 972.91 1259.00 969.00
C 1259.24 967.33 1261.85 968.83 1262.00 967.00
C 1256.89 964.21 1253.82 962.61 1248.00 961.00
C 1251.10 954.41 1238.32 954.90 1235.25 948.75 C 1232.17 942.60 1220.64 939.81 1224.00 932.00
C 1218.71 929.67 1215.69 921.77 1211.78 918.22 C 1207.86 914.68 1205.96 902.82 1203.00 908.00
C 1203.39 904.83 1198.95 903.31 1202.00 900.00
C 1197.83 898.17 1197.78 893.35 1196.00 890.00
C 1194.19 895.31 1190.13 886.44 1187.78 883.22 C 1185.43 880.01 1188.09 873.27 1185.00 870.00
C 1175.13 869.58 1175.70 857.90 1171.92 851.08 C 1168.14 844.26 1161.07 834.68 1159.00 828.00
C 1153.50 831.44 1150.01 818.61 1148.00 814.00
C 1146.95 812.19 1146.81 809.87 1146.00 808.00
C 1142.29 801.34 1141.80 796.06 1139.00 789.00
C 1132.02 791.01 1131.99 777.38 1130.00 772.00
C 1126.65 765.99 1128.53 752.01 1124.00 748.00
C 1125.85 753.08 1120.50 756.19 1120.74 760.74 C 1120.98 765.30 1118.15 769.59 1117.00 773.00
C 1116.96 778.66 1113.93 781.52 1113.00 785.00
C 1109.51 798.07 1109.81 810.27 1106.00 823.00
C 1103.05 832.87 1101.86 846.18 1100.00 855.00
C 1098.72 866.20 1100.49 878.81 1097.00 889.00
C 1095.28 894.02 1094.81 903.01 1095.00 909.00 C 1095.19 914.99 1097.35 926.10 1091.00 925.00
C 1089.95 930.54 1091.00 937.34 1091.00 943.00 C 1091.00 948.66 1089.95 955.45 1091.00 961.00
C 1099.76 959.83 1091.80 977.95 1096.26 982.74 C 1100.71 987.54 1093.96 993.18 1097.00 996.00 C 1100.04 998.82 1095.86 1004.94 1100.00 1006.00
C 1102.60 1006.11 1104.49 1000.67 1105.00 999.00
C 1107.86 989.72 1115.00 982.51 1124.25 974.25 C 1133.49 965.99 1147.22 961.98 1160.00 962.00 C 1172.78 962.02 1184.26 968.26 1192.25 977.75 C 1200.24 987.24 1212.67 990.66 1215.00 1002.00
C 1218.19 1001.94 1220.04 1004.65 1222.00 1007.00
C 1226.20 1003.52 1232.91 1008.91 1230.00 1013.00
C 1234.54 1014.91 1239.80 1016.83 1243.00 1021.00
C 1247.82 1016.28 1251.09 1024.60 1253.00 1028.00
C 1255.13 1027.56 1256.70 1026.83 1259.00 1027.00
C 1263.74 1027.36 1268.50 1029.65 1272.68 1032.32 C 1276.86 1034.99 1283.20 1035.31 1288.00 1037.00
C 1291.23 1038.13 1293.49 1038.24 1297.00 1039.00
C 1318.26 1043.63 1340.41 1042.06 1362.00 1042.00
C 1368.10 1041.98 1375.71 1037.88 1380.00 1036.00
C 1378.73 1036.18 1378.30 1037.92 1377.00 1038.00
C 1381.27 1030.97 1392.12 1031.44 1399.00 1026.00
C 1403.89 1024.77 1407.13 1020.30 1412.00 1024.00
C 1413.17 1021.97 1415.30 1019.41 1418.00 1020.00
C 1413.73 1016.24 1421.72 1011.03 1425.00 1015.00
C 1437.69 1001.69 1453.93 987.93 1462.00 971.00
C 1464.29 975.12 1466.75 968.79 1468.00 967.00
C 1468.96 965.63 1470.23 964.44 1471.00 963.00
C 1469.82 964.36 1467.81 965.24 1466.00 965.00
C 1471.15 959.59 1471.23 951.12 1478.00 947.00
C 1481.35 940.08 1483.93 930.64 1487.90 923.90 C 1491.87 917.16 1489.98 905.51 1494.00 898.00
C 1494.18 897.67 1494.95 897.23 1495.00 897.00
C 1494.95 891.67 1495.03 886.33 1495.00 881.00
C 1497.21 881.73 1496.66 878.26 1499.00 879.00
C 1498.83 868.27 1498.58 857.39 1501.00 848.00
C 1495.63 841.56 1498.83 827.28 1496.00 819.00
C 1493.08 810.46 1494.78 799.91 1492.00 791.00
C 1493.16 790.21 1494.53 792.96 1495.00 791.00
C 1493.23 785.82 1491.75 779.04 1489.00 775.00
C 1484.87 768.92 1483.01 757.41 1480.00 748.00
C 1479.22 745.55 1475.47 743.45 1476.00 740.00
C 1474.85 737.24 1475.35 735.39 1475.00 733.00
C 1474.57 731.78 1474.07 730.25 1474.00 730.00
C 1473.77 725.88 1470.56 720.57 1469.00 727.00
C 1468.60 722.12 1463.96 719.10 1466.00 714.00
C 1459.70 714.60 1454.71 703.41 1454.00 698.00
C 1453.12 696.34 1451.06 693.51 1450.00 692.00
C 1446.49 688.52 1438.48 684.49 1443.00 679.00
C 1430.65 667.80 1420.82 651.11 1406.00 643.00
C 1412.72 649.96 1423.45 658.02 1429.00 667.00
C 1411.43 649.60 1393.14 633.50 1373.00 621.00
C 1372.66 622.20 1373.45 623.84 1373.00 625.00 Z"/>
</g>
<g fill="#000000" fill-opacity="0.51" stroke="None"><path d="
M 1384.00 656.00 
C 1383.03 650.90 1378.85 644.79 1379.97 639.03 C 1381.10 633.26 1373.75 629.26 1373.00 625.00
C 1370.42 628.53 1375.80 633.50 1376.22 638.78 C 1376.64 644.05 1378.01 650.95 1380.00 656.00
C 1380.46 653.86 1383.49 654.88 1384.00 656.00 Z"/>
</g>
<g fill="#000000" fill-opacity="0.37" stroke="None"><path d="
M 1450.00 692.00 
C 1451.06 693.51 1453.12 696.34 1454.00 698.00
C 1455.35 692.75 1447.94 686.01 1443.00 682.00
C 1443.43 686.28 1447.65 688.64 1450.00 692.00 Z"/>
</g>
<g fill="#000000" fill-opacity="0.53" stroke="None"><path d="
M 1194.00 691.00 
C 1191.15 699.11 1188.79 707.07 1185.00 715.00
C 1187.63 715.63 1183.51 718.35 1186.00 719.00
C 1191.87 709.19 1197.30 695.70 1197.00 685.00
C 1199.09 688.68 1194.89 689.30 1194.00 691.00 Z"/>
</g>
<g fill="#000000" fill-opacity="0.49" stroke="None"><path d="
M 1310.00 739.00 
C 1310.05 738.96 1312.97 739.24 1314.00 738.00
C 1318.44 727.83 1325.09 715.52 1326.00 705.00
C 1322.97 705.93 1324.26 709.65 1324.00 712.00
C 1317.54 711.59 1319.66 720.42 1316.75 724.75 C 1313.85 729.09 1312.33 734.15 1310.00 739.00 Z"/>
</g>
<g fill="#000000" fill-opacity="0.63" stroke="None"><path d="
M 1174.00 739.00 
C 1176.31 740.14 1173.66 744.39 1177.00 745.00
C 1176.45 739.12 1181.61 733.47 1182.00 729.00
C 1179.11 730.58 1180.03 734.61 1178.00 730.00
C 1178.26 733.57 1175.04 735.89 1174.00 739.00 Z"/>
</g>
<g fill="#000000" fill-opacity="0.18" stroke="None"><path d="
M 1475.00 733.00 
C 1476.03 735.94 1475.17 736.54 1477.00 739.00
C 1478.03 737.24 1474.85 732.04 1474.00 730.00
C 1474.07 730.25 1474.57 731.78 1475.00 733.00 Z"/>
</g>
<g fill="#000000" fill-opacity="0.68" stroke="None"><path d="
M 1476.00 740.00 
C 1476.03 739.79 1476.81 739.32 1477.00 739.00
C 1475.17 736.54 1476.03 735.94 1475.00 733.00
C 1475.35 735.39 1474.85 737.24 1476.00 740.00 Z"/>
</g>
<g fill="#000000" fill-opacity="0.31" stroke="None"><path d="
M 1310.00 739.00 
C 1309.14 740.78 1309.03 741.43 1308.00 743.00
C 1310.41 746.20 1303.50 747.72 1308.00 751.00
C 1308.58 746.13 1312.08 742.40 1314.00 738.00
C 1312.97 739.24 1310.05 738.96 1310.00 739.00 Z"/>
</g>
<g fill="#000000" fill-opacity="0.47" stroke="None"><path d="
M 1377.00 766.00 
C 1377.81 771.49 1380.32 760.46 1380.25 757.25 C 1380.17 754.03 1383.36 747.40 1384.00 744.00
C 1382.31 744.48 1380.62 746.65 1379.00 745.00
C 1378.19 752.23 1378.44 758.91 1377.00 766.00 Z"/>
</g>
<g fill="#000000" fill-opacity="0.52" stroke="None"><path d="
M 1117.00 773.00 
C 1118.15 769.59 1120.98 765.30 1120.74 760.74 C 1120.50 756.19 1125.85 753.08 1124.00 748.00
C 1123.52 746.27 1121.95 748.69 1121.00 747.00
C 1118.47 755.47 1117.05 765.73 1117.00 773.00 Z"/>
</g>
<g fill="#000000" fill-opacity="0.51" stroke="None"><path d="
M 1480.00 748.00 
C 1483.01 757.41 1484.87 768.92 1489.00 775.00
C 1489.84 764.71 1483.60 757.11 1483.00 747.00
C 1482.52 747.38 1479.81 747.87 1480.00 748.00 Z"/>
</g>
<g fill="#000000" fill-opacity="0.53" stroke="None"><path d="
M 1280.00 787.00 
C 1286.41 785.46 1293.71 775.39 1294.00 768.00
C 1297.59 769.80 1299.81 763.38 1300.00 761.00
C 1294.40 758.64 1292.64 771.90 1289.25 774.25 C 1285.86 776.59 1281.04 784.43 1280.00 787.00 Z"/>
</g>
<g fill="#000000" fill-opacity="0.60" stroke="None"><path d="
M 1139.00 789.00 
C 1135.64 785.76 1135.26 770.61 1133.00 781.00
C 1133.85 777.40 1131.44 774.59 1130.00 772.00
C 1131.99 777.38 1132.02 791.01 1139.00 789.00 Z"/>
</g>
<g fill="#000000" fill-opacity="0.51" stroke="None"><path d="
M 1399.00 780.00 
C 1402.21 779.76 1412.35 777.27 1410.00 772.00
C 1407.40 772.87 1397.72 776.69 1399.00 780.00 Z"/>
</g>
<g fill="#000000" fill-opacity="0.50" stroke="None"><path d="
M 1452.00 802.00 
C 1451.04 796.93 1448.24 785.86 1445.00 782.00
C 1441.42 782.66 1438.53 774.35 1434.00 774.00
C 1437.65 778.14 1442.73 782.74 1444.22 787.78 C 1445.72 792.82 1445.40 803.59 1452.00 802.00 Z"/>
</g>
<g fill="#000000" fill-opacity="0.44" stroke="None"><path d="
M 1104.00 823.00 
C 1103.92 823.03 1105.35 824.02 1106.00 823.00
C 1109.81 810.27 1109.51 798.07 1113.00 785.00
C 1111.87 779.18 1109.36 790.40 1109.26 794.26 C 1109.15 798.12 1106.65 804.60 1106.00 809.00 C 1105.35 813.40 1105.29 818.95 1104.00 823.00 Z"/>
</g>
<g fill="#000000" fill-opacity="0.51" stroke="None"><path d="
M 1183.00 792.00 
C 1186.25 800.91 1192.32 812.98 1200.25 818.75 C 1208.18 824.52 1216.81 834.51 1226.00 837.00
C 1220.85 830.40 1209.11 821.56 1201.67 814.33 C 1194.24 807.09 1186.14 796.79 1180.00 787.00
C 1179.64 789.32 1182.30 790.08 1183.00 792.00 Z"/>
</g>
<g fill="#000000" fill-opacity="0.54" stroke="None"><path d="
M 1496.00 819.00 
C 1496.47 817.04 1497.84 819.79 1499.00 819.00
C 1496.79 809.90 1497.93 799.55 1495.00 791.00
C 1494.53 792.96 1493.16 790.21 1492.00 791.00
C 1494.78 799.91 1493.08 810.46 1496.00 819.00 Z"/>
</g>
<g fill="#000000" fill-opacity="0.20" stroke="None"><path d="
M 1145.00 805.00 
C 1145.78 806.44 1146.23 807.37 1147.00 809.00
C 1147.61 809.78 1149.46 810.27 1150.00 811.00
C 1147.03 807.63 1147.10 802.40 1143.00 800.00
C 1143.27 801.93 1144.44 803.19 1145.00 805.00 Z"/>
</g>
<g fill="#000000" fill-opacity="0.65" stroke="None"><path d="
M 1146.00 808.00 
C 1146.81 809.87 1146.95 812.19 1148.00 814.00
C 1148.00 814.00 1148.77 813.75 1149.00 814.00
C 1149.39 811.63 1147.87 810.85 1147.00 809.00
C 1146.23 807.37 1145.78 806.44 1145.00 805.00
C 1145.07 805.24 1145.45 806.74 1146.00 808.00 Z"/>
</g>
<g fill="#000000" fill-opacity="0.34" stroke="None"><path d="
M 1149.00 814.00 
C 1151.18 815.74 1150.47 820.20 1154.00 820.00
C 1151.59 817.45 1151.27 813.91 1150.00 811.00
C 1149.46 810.27 1147.61 809.78 1147.00 809.00
C 1147.87 810.85 1149.39 811.63 1149.00 814.00 Z"/>
</g>
<g fill="#000000" fill-opacity="0.55" stroke="None"><path d="
M 1100.00 853.00 
C 1100.05 853.73 1100.15 853.69 1100.00 855.00
C 1101.86 846.18 1103.05 832.87 1106.00 823.00
C 1105.35 824.02 1103.92 823.03 1104.00 823.00
C 1100.56 824.21 1102.20 833.24 1100.33 836.33 C 1098.47 839.42 1099.75 849.29 1100.00 853.00 Z"/>
</g>
<g fill="#000000" fill-opacity="0.33" stroke="None"><path d="
M 1091.00 925.00 
C 1097.35 926.10 1095.19 914.99 1095.00 909.00 C 1094.81 903.01 1095.28 894.02 1097.00 889.00
C 1097.40 885.28 1093.95 874.29 1097.26 871.26 C 1100.56 868.22 1094.88 852.98 1100.00 853.00
C 1099.15 855.58 1094.90 856.36 1097.00 862.00 C 1099.10 867.64 1095.53 866.01 1095.33 872.33 C 1095.13 878.65 1094.83 887.10 1093.00 893.00 C 1091.17 898.90 1092.02 897.07 1093.00 904.00 C 1093.98 910.93 1092.17 918.82 1091.00 925.00 Z"/>
</g>
<g fill="#000000" fill-opacity="0.68" stroke="None"><path d="
M 1097.00 889.00 
C 1100.49 878.81 1098.72 866.20 1100.00 855.00
C 1100.15 853.69 1100.05 853.73 1100.00 853.00
C 1094.88 852.98 1100.56 868.22 1097.26 871.26 C 1093.95 874.29 1097.40 885.28 1097.00 889.00 Z"/>
</g>
<g fill="#000000" fill-opacity="0.59" stroke="None"><path d="
M 1060.00 863.00 
C 1058.63 863.89 1057.01 865.67 1056.00 867.00
C 1056.00 867.00 1056.22 867.87 1056.00 868.00
C 1058.34 867.28 1066.37 861.61 1063.00 861.00
C 1062.42 861.33 1060.61 862.60 1060.00 863.00 Z"/>
</g>
<g fill="#000000" fill-opacity="0.25" stroke="None"><path d="
M 1056.00 867.00 
C 1057.01 865.67 1058.63 863.89 1060.00 863.00
C 1057.95 863.27 1053.05 866.41 1051.00 869.00
C 1052.80 868.63 1054.36 867.68 1056.00 867.00 Z"/>
</g>
<g fill="#000000" fill-opacity="0.46" stroke="None"><path d="
M 1014.00 886.00 
C 1014.02 885.99 1017.06 885.99 1017.00 886.00
C 1023.32 884.54 1029.41 883.06 1035.00 880.00
C 1033.51 878.58 1035.00 875.79 1036.00 875.00
C 1028.12 878.06 1020.89 882.85 1014.00 886.00 Z"/>
</g>
<g fill="#000000" fill-opacity="0.54" stroke="None"><path d="
M 1443.00 902.00 
C 1446.36 894.31 1450.50 885.85 1452.00 877.00
C 1444.35 880.15 1443.54 895.59 1443.00 902.00 Z"/>
</g>
<g fill="#000000" fill-opacity="0.49" stroke="None"><path d="
M 1495.00 897.00 
C 1496.50 898.21 1493.33 902.55 1496.00 904.00
C 1497.65 896.18 1498.64 886.33 1499.00 879.00
C 1496.66 878.26 1497.21 881.73 1495.00 881.00
C 1495.03 886.33 1494.95 891.67 1495.00 897.00 Z"/>
</g>
<g fill="#000000" fill-opacity="0.59" stroke="None"><path d="
M 1014.00 886.00 
C 1007.37 887.52 1001.08 889.93 994.00 890.00
C 995.26 892.57 999.67 889.50 1001.00 892.00
C 996.61 890.06 995.28 893.56 993.00 895.00
C 1001.24 891.40 1010.05 890.13 1017.00 886.00
C 1017.06 885.99 1014.02 885.99 1014.00 886.00 Z"/>
</g>
<g fill="#000000" fill-opacity="0.54" stroke="None"><path d="
M 1478.00 947.00 
C 1487.39 933.84 1494.27 914.84 1494.00 898.00
C 1489.98 905.51 1491.87 917.16 1487.90 923.90 C 1483.93 930.64 1481.35 940.08 1478.00 947.00 Z"/>
</g>
<g fill="#000000" fill-opacity="0.85" stroke="None"><path d="
M 1056.00 916.00 
C 1057.19 915.71 1059.16 914.20 1061.00 915.00
C 1061.80 910.40 1059.08 903.98 1063.00 901.00
C 1057.36 901.95 1061.06 909.97 1060.00 914.00
C 1057.22 913.69 1054.08 913.98 1053.00 917.00
C 1054.19 917.60 1055.05 916.03 1056.00 916.00 Z"/>
</g>
<g fill="#000000" fill-opacity="0.46" stroke="None"><path d="
M 1056.00 916.00 
C 1057.22 915.96 1059.94 916.55 1061.00 916.00
C 1063.92 912.61 1061.16 905.82 1064.00 902.00
C 1064.10 901.86 1063.29 900.94 1063.00 901.00
C 1059.08 903.98 1061.80 910.40 1061.00 915.00
C 1059.16 914.20 1057.19 915.71 1056.00 916.00 Z"/>
</g>
<g fill="#000000" fill-opacity="0.60" stroke="None"><path d="
M 704.00 918.00 
C 704.16 918.02 710.64 918.79 714.78 915.78 C 718.92 912.77 723.83 913.20 728.00 911.00
C 724.60 911.76 719.01 909.40 715.03 912.03 C 711.06 914.66 708.54 916.69 704.00 918.00 Z"/>
</g>
<g fill="#000000" fill-opacity="0.53" stroke="None"><path d="
M 1430.00 928.00 
C 1434.56 922.92 1436.29 919.00 1439.00 913.00
C 1433.58 915.52 1427.96 927.06 1426.00 934.00
C 1427.64 932.16 1428.38 929.80 1430.00 928.00 Z"/>
</g>
<g fill="#000000" fill-opacity="0.53" stroke="None"><path d="
M 688.00 923.00 
C 684.49 923.52 678.90 921.25 678.00 926.00
C 667.19 920.61 657.25 930.04 670.00 930.00 C 682.75 929.96 688.76 930.02 700.00 930.00 C 711.24 929.98 719.44 930.01 730.00 930.00 C 740.56 929.99 749.75 930.00 760.00 930.00 C 770.25 930.00 779.89 930.00 790.00 930.00 C 800.11 930.00 809.95 929.99 820.00 930.00 C 830.05 930.01 839.99 929.99 850.00 930.00 C 860.01 930.01 870.01 929.97 880.00 930.00 C 889.99 930.03 900.04 929.93 910.00 930.00 C 919.96 930.07 930.10 929.85 940.00 930.00 C 949.90 930.15 960.23 929.66 970.00 930.00 C 979.77 930.34 988.17 926.61 998.00 928.00 C 1007.83 929.39 1014.14 923.66 1023.00 923.00 C 1031.86 922.34 1041.81 920.92 1049.00 919.00
C 1043.31 917.93 1031.62 919.88 1023.00 921.00 C 1014.38 922.12 1005.41 926.28 995.00 925.00 C 984.60 923.72 975.50 927.70 965.00 927.00 C 954.50 926.30 943.56 927.32 933.00 927.00 C 922.44 926.68 911.55 927.15 901.00 927.00 C 890.45 926.85 880.56 927.07 870.00 927.00 C 859.44 926.93 848.61 927.04 838.00 927.00 C 827.39 926.96 816.62 927.04 806.00 927.00 C 795.38 926.96 784.59 927.06 774.00 927.00 C 763.41 926.94 752.52 927.11 742.00 927.00 C 731.48 926.89 720.36 927.24 710.00 927.00 C 699.64 926.76 689.47 928.01 680.00 926.00
C 683.82 925.74 690.60 927.54 691.00 922.00
C 689.86 923.33 688.68 923.00 688.00 923.00 Z"/>
</g>
<g fill="#000000" fill-opacity="0.76" stroke="None"><path d="
M 1471.00 963.00 
C 1473.27 958.78 1472.25 954.93 1475.00 951.00
C 1475.93 949.68 1477.03 948.36 1478.00 947.00
C 1471.23 951.12 1471.15 959.59 1466.00 965.00
C 1467.81 965.24 1469.82 964.36 1471.00 963.00 Z"/>
</g>
<g fill="#000000" fill-opacity="0.26" stroke="None"><path d="
M 1475.00 951.00 
C 1472.25 954.93 1473.27 958.78 1471.00 963.00
C 1470.23 964.44 1468.96 965.63 1468.00 967.00
C 1474.32 962.29 1473.82 953.26 1480.00 948.00
C 1478.23 948.13 1476.21 949.68 1475.00 951.00 Z"/>
</g>
<g fill="#000000" fill-opacity="0.37" stroke="None"><path d="
M 1091.00 961.00 
C 1092.15 967.06 1093.12 979.28 1094.67 984.33 C 1096.22 989.38 1092.93 1005.70 1100.00 1006.00
C 1095.86 1004.94 1100.04 998.82 1097.00 996.00 C 1093.96 993.18 1100.71 987.54 1096.26 982.74 C 1091.80 977.95 1099.76 959.83 1091.00 961.00 Z"/>
</g>
<g fill="#000000" fill-opacity="0.52" stroke="None"><path d="
M 1105.00 999.00 
C 1110.83 989.65 1124.15 981.52 1128.00 972.00
C 1139.18 968.89 1151.51 964.37 1165.00 965.00 C 1178.49 965.64 1183.15 976.18 1193.25 982.75 C 1203.34 989.32 1205.42 995.94 1215.00 1002.00
C 1212.67 990.66 1200.24 987.24 1192.25 977.75 C 1184.26 968.26 1172.78 962.02 1160.00 962.00 C 1147.22 961.98 1133.49 965.99 1124.25 974.25 C 1115.00 982.51 1107.86 989.72 1105.00 999.00 Z"/>
</g>
<g fill="#000000" fill-opacity="0.49" stroke="None"><path d="
M 1280.00 978.00 
C 1274.03 974.79 1268.02 970.92 1262.00 967.00
C 1261.85 968.83 1259.24 967.33 1259.00 969.00
C 1265.46 972.91 1272.81 978.52 1281.00 980.00
C 1281.31 979.38 1277.94 978.04 1280.00 978.00 Z"/>
</g>
<g fill="#000000" fill-opacity="0.23" stroke="None"><path d="
M 1388.00 971.00 
C 1388.00 971.00 1388.25 970.26 1388.00 970.00
C 1385.95 970.27 1381.05 973.41 1379.00 976.00
C 1382.87 975.98 1385.05 973.05 1388.00 971.00 Z"/>
</g>
<g fill="#000000" fill-opacity="0.42" stroke="None"><path d="
M 1296.00 986.00 
C 1295.72 985.74 1295.28 982.13 1292.03 981.97 C 1288.77 981.81 1286.71 981.08 1284.00 980.00
C 1286.11 981.91 1291.58 984.18 1296.00 986.00 Z"/>
</g>
<g fill="#000000" fill-opacity="0.40" stroke="None"><path d="
M 1360.00 984.00 
C 1362.73 982.86 1366.16 983.24 1369.00 982.00
C 1369.77 982.02 1369.36 978.78 1366.08 980.08 C 1362.80 981.38 1360.86 982.87 1360.00 984.00 Z"/>
</g>
<g fill="#000000" fill-opacity="0.53" stroke="None"><path d="
M 1318.00 991.00 
C 1324.13 992.16 1334.87 992.16 1341.00 991.00
C 1334.70 985.59 1322.28 992.26 1316.00 987.00
C 1316.95 987.78 1316.88 990.45 1318.00 991.00 Z"/>
</g>
<g fill="#000000" fill-opacity="0.51" stroke="None"><path d="
M 1380.00 1036.00 
C 1385.29 1035.24 1399.60 1033.94 1399.00 1026.00
C 1392.12 1031.44 1381.27 1030.97 1377.00 1038.00
C 1378.30 1037.92 1378.73 1036.18 1380.00 1036.00 Z"/>
</g>
<g fill="#000000" fill-opacity="0.47" stroke="None"><path d="
M 1288.00 1037.00 
C 1283.20 1035.31 1276.86 1034.99 1272.68 1032.32 C 1268.50 1029.65 1263.74 1027.36 1259.00 1027.00
C 1265.39 1037.08 1280.71 1036.21 1290.00 1041.00
C 1289.07 1039.98 1289.10 1037.88 1288.00 1037.00 Z"/>
</g>
<g fill="#000000" fill-opacity="0.51" stroke="None"><path d="
M 1362.00 1042.00 
C 1340.41 1042.06 1318.26 1043.63 1297.00 1039.00
C 1296.72 1041.33 1300.54 1041.63 1298.00 1044.00
C 1318.99 1045.44 1342.54 1048.74 1362.00 1042.00 Z"/>
</g>
</svg>